<svg width="74" height="39" viewBox="0 0 74 39" fill="none" xmlns="http://www.w3.org/2000/svg">
<path d="M12.628 5.332L21.412 27.976C21.772 28.888 22.18 29.5 22.636 29.812C23.092 30.1 23.512 30.256 23.896 30.28V31C23.416 30.952 22.828 30.928 22.132 30.928C21.436 30.904 20.74 30.892 20.044 30.892C19.108 30.892 18.232 30.904 17.416 30.928C16.6 30.928 15.94 30.952 15.436 31V30.28C16.66 30.232 17.44 30.028 17.776 29.668C18.112 29.284 18.04 28.48 17.56 27.256L10.864 9.364L11.44 8.896L5.176 25.168C4.792 26.128 4.564 26.944 4.492 27.616C4.42 28.264 4.48 28.78 4.672 29.164C4.888 29.548 5.236 29.824 5.716 29.992C6.22 30.16 6.844 30.256 7.588 30.28V31C6.916 30.952 6.208 30.928 5.464 30.928C4.744 30.904 4.072 30.892 3.448 30.892C2.848 30.892 2.332 30.904 1.9 30.928C1.492 30.928 1.108 30.952 0.748 31V30.28C1.228 30.16 1.72 29.884 2.224 29.452C2.728 28.996 3.184 28.228 3.592 27.148L12.052 5.332C12.148 5.332 12.244 5.332 12.34 5.332C12.436 5.332 12.532 5.332 12.628 5.332ZM17.02 20.632V21.352H6.292L6.652 20.632H17.02ZM37.3566 0.111999V38.02H35.9166V0.111999H37.3566ZM71.7259 5.512V6.232C70.9819 6.328 70.2619 6.568 69.5659 6.952C68.8699 7.336 68.1739 7.972 67.4779 8.86L60.5299 17.752L61.3219 15.988L69.9619 28.084C70.3699 28.684 70.8139 29.152 71.2939 29.488C71.7739 29.824 72.3859 30.088 73.1299 30.28V31C72.5539 30.952 71.8339 30.928 70.9699 30.928C70.1299 30.904 69.4099 30.892 68.8099 30.892C68.4019 30.892 67.8979 30.904 67.2979 30.928C66.7219 30.928 65.9899 30.952 65.1019 31V30.28C65.9179 30.232 66.4339 30.088 66.6499 29.848C66.8659 29.608 66.7819 29.212 66.3979 28.66L61.1419 20.74C60.6619 19.996 60.2299 19.444 59.8459 19.084C59.4859 18.7 59.1019 18.448 58.6939 18.328C58.3099 18.208 57.8179 18.136 57.2179 18.112V17.392C58.2259 17.368 59.0659 17.176 59.7379 16.816C60.4339 16.432 61.0099 15.952 61.4659 15.376L64.9219 10.984C65.7139 9.976 66.2539 9.124 66.5419 8.428C66.8299 7.732 66.8179 7.204 66.5059 6.844C66.1939 6.46 65.5339 6.256 64.5259 6.232V5.512C64.9819 5.536 65.4499 5.56 65.9299 5.584C66.4099 5.584 66.8779 5.596 67.3339 5.62C67.8139 5.62 68.2579 5.62 68.6659 5.62C69.2899 5.62 69.8659 5.608 70.3939 5.584C70.9219 5.56 71.3659 5.536 71.7259 5.512ZM60.2779 5.512V6.232C59.4619 6.256 58.8379 6.352 58.4059 6.52C57.9979 6.664 57.7219 6.952 57.5779 7.384C57.4339 7.792 57.3619 8.44 57.3619 9.328V27.184C57.3619 28.048 57.4339 28.696 57.5779 29.128C57.7219 29.56 57.9979 29.848 58.4059 29.992C58.8379 30.136 59.4619 30.232 60.2779 30.28V31C59.7259 30.952 59.0299 30.928 58.1899 30.928C57.3739 30.904 56.5459 30.892 55.7059 30.892C54.7699 30.892 53.8939 30.904 53.0779 30.928C52.2619 30.928 51.6019 30.952 51.0979 31V30.28C51.9139 30.232 52.5259 30.136 52.9339 29.992C53.3659 29.848 53.6539 29.56 53.7979 29.128C53.9419 28.696 54.0139 28.048 54.0139 27.184V9.328C54.0139 8.44 53.9419 7.792 53.7979 7.384C53.6539 6.952 53.3659 6.664 52.9339 6.52C52.5259 6.352 51.9139 6.256 51.0979 6.232V5.512C51.6019 5.536 52.2619 5.56 53.0779 5.584C53.8939 5.608 54.7699 5.62 55.7059 5.62C56.5459 5.62 57.3739 5.608 58.1899 5.584C59.0299 5.56 59.7259 5.536 60.2779 5.512Z" fill="black"/>
</svg>
