<svg width="154" height="100" viewBox="0 0 154 100" fill="none" xmlns="http://www.w3.org/2000/svg">
<path fill-rule="evenodd" clip-rule="evenodd" d="M132.967 1.14844C144.012 1.14844 152.967 10.1027 152.967 21.1484V59.9417C152.967 70.9873 144.013 79.9417 132.967 79.9417H45.0885L27.6322 97.5377V79.9417H21.5768C10.5311 79.9417 1.5768 70.9874 1.5768 59.9417V21.1484C1.5768 10.1027 10.5311 1.14844 21.5768 1.14844H132.967Z" fill="white"/>
<path d="M45.0885 79.9417L44.3786 79.2374L44.6719 78.9417H45.0885V79.9417ZM27.6322 97.5377L28.3421 98.242L26.6322 99.9656V97.5377H27.6322ZM27.6322 79.9417V78.9417H28.6322V79.9417H27.6322ZM151.967 21.1484C151.967 10.655 143.46 2.14844 132.967 2.14844V0.148438C144.565 0.148438 153.967 9.55046 153.967 21.1484H151.967ZM151.967 59.9417V21.1484H153.967V59.9417H151.967ZM132.967 78.9417C143.46 78.9417 151.967 70.4351 151.967 59.9417H153.967C153.967 71.5396 144.565 80.9417 132.967 80.9417V78.9417ZM45.0885 78.9417H132.967V80.9417H45.0885V78.9417ZM26.9223 96.8334L44.3786 79.2374L45.7984 80.6459L28.3421 98.242L26.9223 96.8334ZM28.6322 79.9417V97.5377H26.6322V79.9417H28.6322ZM21.5768 78.9417H27.6322V80.9417H21.5768V78.9417ZM2.5768 59.9417C2.5768 70.4351 11.0834 78.9417 21.5768 78.9417V80.9417C9.97881 80.9417 0.576797 71.5396 0.576797 59.9417H2.5768ZM2.5768 21.1484V59.9417H0.576797V21.1484H2.5768ZM21.5768 2.14844C11.0834 2.14844 2.5768 10.655 2.5768 21.1484H0.576797C0.576797 9.55046 9.97879 0.148438 21.5768 0.148438V2.14844ZM132.967 2.14844H21.5768V0.148438H132.967V2.14844Z" fill="black"/>
<path d="M34.0592 49.3438V32.3037H44.2112V34.6797H36.7472V49.3438H34.0592ZM52.0424 49.5838C51.0504 49.5838 50.1624 49.4158 49.3784 49.0797C48.5944 48.7277 47.9144 48.2477 47.3384 47.6397C46.7784 47.0317 46.3464 46.3437 46.0424 45.5757C45.7384 44.7917 45.5864 43.9597 45.5864 43.0797C45.5864 42.1997 45.7384 41.3677 46.0424 40.5837C46.3464 39.7997 46.7784 39.1117 47.3384 38.5197C47.9144 37.9117 48.5944 37.4397 49.3784 37.1037C50.1784 36.7517 51.0664 36.5757 52.0424 36.5757C53.0184 36.5757 53.8984 36.7517 54.6824 37.1037C55.4824 37.4397 56.1624 37.9117 56.7224 38.5197C57.2984 39.1117 57.7384 39.7997 58.0424 40.5837C58.3464 41.3677 58.4984 42.1997 58.4984 43.0797C58.4984 43.9597 58.3464 44.7917 58.0424 45.5757C57.7384 46.3437 57.2984 47.0317 56.7224 47.6397C56.1624 48.2477 55.4824 48.7277 54.6824 49.0797C53.8984 49.4158 53.0184 49.5838 52.0424 49.5838ZM48.2984 43.1037C48.2984 43.9037 48.4664 44.6237 48.8024 45.2637C49.1384 45.9037 49.5864 46.4077 50.1464 46.7757C50.7064 47.1437 51.3384 47.3277 52.0424 47.3277C52.7304 47.3277 53.3544 47.1437 53.9144 46.7757C54.4904 46.3917 54.9464 45.8797 55.2824 45.2397C55.6184 44.5837 55.7864 43.8637 55.7864 43.0797C55.7864 42.2797 55.6184 41.5597 55.2824 40.9197C54.9464 40.2797 54.4904 39.7757 53.9144 39.4077C53.3544 39.0237 52.7304 38.8317 52.0424 38.8317C51.3384 38.8317 50.7064 39.0237 50.1464 39.4077C49.5864 39.7917 49.1384 40.3037 48.8024 40.9437C48.4664 41.5677 48.2984 42.2877 48.2984 43.1037ZM63.8159 49.3438V39.1197H59.6639V36.7917H70.6319V39.1197H66.4559V49.3438H63.8159ZM78.2455 49.5838C77.2535 49.5838 76.3655 49.4158 75.5815 49.0797C74.7975 48.7277 74.1175 48.2477 73.5415 47.6397C72.9815 47.0317 72.5495 46.3437 72.2455 45.5757C71.9415 44.7917 71.7895 43.9597 71.7895 43.0797C71.7895 42.1997 71.9415 41.3677 72.2455 40.5837C72.5495 39.7997 72.9815 39.1117 73.5415 38.5197C74.1175 37.9117 74.7975 37.4397 75.5815 37.1037C76.3815 36.7517 77.2695 36.5757 78.2455 36.5757C79.2215 36.5757 80.1015 36.7517 80.8855 37.1037C81.6855 37.4397 82.3655 37.9117 82.9255 38.5197C83.5015 39.1117 83.9415 39.7997 84.2455 40.5837C84.5495 41.3677 84.7015 42.1997 84.7015 43.0797C84.7015 43.9597 84.5495 44.7917 84.2455 45.5757C83.9415 46.3437 83.5015 47.0317 82.9255 47.6397C82.3655 48.2477 81.6855 48.7277 80.8855 49.0797C80.1015 49.4158 79.2215 49.5838 78.2455 49.5838ZM74.5015 43.1037C74.5015 43.9037 74.6695 44.6237 75.0055 45.2637C75.3415 45.9037 75.7895 46.4077 76.3495 46.7757C76.9095 47.1437 77.5415 47.3277 78.2455 47.3277C78.9335 47.3277 79.5575 47.1437 80.1175 46.7757C80.6935 46.3917 81.1495 45.8797 81.4855 45.2397C81.8215 44.5837 81.9895 43.8637 81.9895 43.0797C81.9895 42.2797 81.8215 41.5597 81.4855 40.9197C81.1495 40.2797 80.6935 39.7757 80.1175 39.4077C79.5575 39.0237 78.9335 38.8317 78.2455 38.8317C77.5415 38.8317 76.9095 39.0237 76.3495 39.4077C75.7895 39.7917 75.3415 40.3037 75.0055 40.9437C74.6695 41.5677 74.5015 42.2877 74.5015 43.1037ZM87.043 49.3438V36.7917H93.763C94.563 36.7917 95.219 36.9437 95.731 37.2477C96.259 37.5357 96.651 37.9117 96.907 38.3757C97.163 38.8237 97.291 39.3197 97.291 39.8637C97.291 40.5517 97.131 41.1597 96.811 41.6877C96.491 42.2157 96.019 42.6157 95.395 42.8877C96.115 43.0957 96.699 43.4637 97.147 43.9917C97.611 44.5037 97.843 45.1677 97.843 45.9837C97.843 46.7197 97.667 47.3437 97.315 47.8557C96.963 48.3517 96.459 48.7277 95.803 48.9837C95.163 49.2237 94.411 49.3438 93.547 49.3438H87.043ZM89.539 47.5197H93.475C93.811 47.5197 94.115 47.4397 94.387 47.2797C94.675 47.1037 94.899 46.8797 95.059 46.6077C95.219 46.3197 95.299 46.0157 95.299 45.6957C95.299 45.3437 95.219 45.0317 95.059 44.7597C94.915 44.4877 94.707 44.2717 94.435 44.1117C94.179 43.9517 93.875 43.8717 93.523 43.8717H89.539V47.5197ZM89.539 42.1677H93.091C93.427 42.1677 93.723 42.0877 93.979 41.9277C94.235 41.7517 94.435 41.5197 94.579 41.2317C94.723 40.9437 94.795 40.6397 94.795 40.3197C94.795 39.8557 94.643 39.4557 94.339 39.1197C94.035 38.7837 93.635 38.6157 93.139 38.6157H89.539V42.1677ZM105.995 49.5838C105.003 49.5838 104.115 49.4158 103.331 49.0797C102.547 48.7277 101.867 48.2477 101.291 47.6397C100.731 47.0317 100.299 46.3437 99.9955 45.5757C99.6915 44.7917 99.5395 43.9597 99.5395 43.0797C99.5395 42.1997 99.6915 41.3677 99.9955 40.5837C100.299 39.7997 100.731 39.1117 101.291 38.5197C101.867 37.9117 102.547 37.4397 103.331 37.1037C104.131 36.7517 105.019 36.5757 105.995 36.5757C106.971 36.5757 107.851 36.7517 108.635 37.1037C109.435 37.4397 110.115 37.9117 110.675 38.5197C111.251 39.1117 111.691 39.7997 111.995 40.5837C112.299 41.3677 112.451 42.1997 112.451 43.0797C112.451 43.9597 112.299 44.7917 111.995 45.5757C111.691 46.3437 111.251 47.0317 110.675 47.6397C110.115 48.2477 109.435 48.7277 108.635 49.0797C107.851 49.4158 106.971 49.5838 105.995 49.5838ZM102.251 43.1037C102.251 43.9037 102.419 44.6237 102.755 45.2637C103.091 45.9037 103.539 46.4077 104.099 46.7757C104.659 47.1437 105.291 47.3277 105.995 47.3277C106.683 47.3277 107.307 47.1437 107.867 46.7757C108.443 46.3917 108.899 45.8797 109.235 45.2397C109.571 44.5837 109.739 43.8637 109.739 43.0797C109.739 42.2797 109.571 41.5597 109.235 40.9197C108.899 40.2797 108.443 39.7757 107.867 39.4077C107.307 39.0237 106.683 38.8317 105.995 38.8317C105.291 38.8317 104.659 39.0237 104.099 39.4077C103.539 39.7917 103.091 40.3037 102.755 40.9437C102.419 41.5677 102.251 42.2877 102.251 43.1037ZM115.297 43.2717V32.1357H117.937V43.2717H115.297ZM115.297 49.3438V46.0557H117.937V49.3438H115.297Z" fill="black"/>
</svg>
