<svg width="533" height="212" viewBox="0 0 533 212" fill="none" xmlns="http://www.w3.org/2000/svg">
<path fill-rule="evenodd" clip-rule="evenodd" d="M20.9551 0.211914C9.90938 0.211914 0.955078 9.16619 0.955078 20.2119V152.865C0.955078 163.911 9.90939 172.865 20.9551 172.865H379.703L440.988 211.421V172.865H512.465C523.511 172.865 532.465 163.911 532.465 152.865V20.2119C532.465 9.16622 523.511 0.211914 512.465 0.211914H20.9551Z" fill="#7A0923"/>
<path d="M46.8569 54.6637C46.8569 55.5757 46.6169 56.3597 46.1369 57.0157C45.6729 57.6717 45.0409 58.1757 44.2409 58.5277C43.4409 58.8797 42.5609 59.0557 41.6009 59.0557H33.4649V42.0157H42.2489C43.0489 42.0157 43.7369 42.2317 44.3129 42.6637C44.9049 43.0797 45.3529 43.6237 45.6569 44.2957C45.9769 44.9517 46.1369 45.6397 46.1369 46.3597C46.1369 47.1917 45.9209 47.9757 45.4889 48.7117C45.0729 49.4317 44.4729 49.9677 43.6889 50.3197C44.6649 50.6077 45.4329 51.1357 45.9929 51.9037C46.5689 52.6557 46.8569 53.5757 46.8569 54.6637ZM44.0969 54.1597C44.0969 53.6797 43.9929 53.2477 43.7849 52.8637C43.5929 52.4637 43.3209 52.1437 42.9689 51.9037C42.6329 51.6477 42.2329 51.5197 41.7689 51.5197H36.1529V56.7277H41.6009C42.0809 56.7277 42.5049 56.6157 42.8729 56.3917C43.2569 56.1517 43.5529 55.8397 43.7609 55.4557C43.9849 55.0557 44.0969 54.6237 44.0969 54.1597ZM36.1529 44.3437V49.3597H41.0969C41.5449 49.3597 41.9449 49.2557 42.2969 49.0477C42.6489 48.8237 42.9289 48.5277 43.1369 48.1597C43.3449 47.7757 43.4489 47.3437 43.4489 46.8637C43.4489 46.3677 43.3529 45.9357 43.1609 45.5677C42.9689 45.1837 42.7049 44.8877 42.3689 44.6797C42.0489 44.4557 41.6729 44.3437 41.2409 44.3437H36.1529ZM49.3242 59.0557V46.5037H51.9642V50.6317H54.3402C55.8282 50.6317 56.9642 51.0077 57.7482 51.7597C58.5322 52.5117 58.9242 53.5037 58.9242 54.7357C58.9242 55.5677 58.7562 56.3117 58.4202 56.9677C58.0842 57.6237 57.5882 58.1357 56.9322 58.5037C56.2922 58.8717 55.4922 59.0557 54.5322 59.0557H49.3242ZM51.9642 57.0157H54.1242C54.6522 57.0157 55.0762 56.9197 55.3962 56.7277C55.7162 56.5197 55.9482 56.2477 56.0922 55.9117C56.2522 55.5597 56.3322 55.1837 56.3322 54.7837C56.3322 54.3837 56.2602 54.0237 56.1162 53.7037C55.9722 53.3677 55.7322 53.1037 55.3962 52.9117C55.0762 52.7037 54.6442 52.5997 54.1002 52.5997H51.9642V57.0157ZM60.9882 59.0557V46.5277H63.6282V59.0557H60.9882ZM76.9383 59.2477C75.6583 59.2477 74.5783 59.0157 73.6983 58.5517C72.8343 58.0717 72.1703 57.4157 71.7063 56.5837L73.8423 55.6237C74.1143 56.0877 74.4983 56.4557 74.9943 56.7277C75.4903 56.9837 76.0903 57.1117 76.7943 57.1117C77.6423 57.1117 78.2983 56.9357 78.7623 56.5837C79.2263 56.2317 79.4583 55.7677 79.4583 55.1917C79.4583 54.6637 79.2663 54.2397 78.8823 53.9197C78.4983 53.5837 77.9543 53.4077 77.2503 53.3917H75.9543V51.7117H77.2983C77.6183 51.7117 77.8983 51.6397 78.1383 51.4957C78.3783 51.3517 78.5623 51.1597 78.6903 50.9197C78.8343 50.6637 78.9063 50.3757 78.9063 50.0557C78.9063 49.5757 78.7223 49.1917 78.3543 48.9037C78.0023 48.5997 77.4663 48.4477 76.7463 48.4477C76.1223 48.4477 75.6103 48.5677 75.2103 48.8077C74.8103 49.0317 74.4823 49.3677 74.2263 49.8157L72.2343 48.7597C72.6503 47.9917 73.2583 47.3917 74.0583 46.9597C74.8583 46.5277 75.7943 46.3117 76.8663 46.3117C77.7143 46.3117 78.4663 46.4477 79.1223 46.7197C79.7943 46.9757 80.3143 47.3597 80.6823 47.8717C81.0663 48.3677 81.2583 48.9837 81.2583 49.7197C81.2583 50.2957 81.1223 50.8397 80.8503 51.3517C80.5783 51.8477 80.1543 52.2157 79.5783 52.4557C80.3463 52.6797 80.9223 53.0717 81.3063 53.6317C81.7063 54.1757 81.9063 54.8237 81.9063 55.5757C81.9063 56.3437 81.6903 57.0077 81.2583 57.5677C80.8423 58.1117 80.2583 58.5277 79.5063 58.8157C78.7543 59.1037 77.8983 59.2477 76.9383 59.2477ZM83.4279 55.3837C83.4279 54.5837 83.6519 53.8877 84.0999 53.2957C84.5639 52.6877 85.1959 52.2237 85.9959 51.9037C86.7959 51.5677 87.7239 51.3997 88.7799 51.3997C89.3399 51.3997 89.9079 51.4397 90.4839 51.5197C91.0759 51.5997 91.5959 51.7277 92.0439 51.9037V51.1117C92.0439 50.2317 91.7799 49.5437 91.2519 49.0477C90.7239 48.5517 89.9639 48.3037 88.9719 48.3037C88.2679 48.3037 87.6039 48.4317 86.9799 48.6877C86.3559 48.9277 85.6919 49.2717 84.9879 49.7197L84.0999 47.9437C84.9319 47.3837 85.7639 46.9677 86.5959 46.6957C87.4439 46.4237 88.3319 46.2877 89.2599 46.2877C90.9399 46.2877 92.2599 46.7357 93.2199 47.6317C94.1959 48.5117 94.6839 49.7677 94.6839 51.3997V56.0797C94.6839 56.3837 94.7319 56.5997 94.8279 56.7277C94.9399 56.8557 95.1239 56.9277 95.3799 56.9437V59.0557C95.1399 59.1037 94.9239 59.1357 94.7319 59.1517C94.5399 59.1677 94.3799 59.1757 94.2519 59.1757C93.6919 59.1757 93.2679 59.0397 92.9799 58.7677C92.6919 58.4957 92.5239 58.1757 92.4759 57.8077L92.4039 57.0877C91.8599 57.7917 91.1639 58.3357 90.3159 58.7197C89.4679 59.1037 88.6119 59.2957 87.7479 59.2957C86.9159 59.2957 86.1719 59.1277 85.5159 58.7917C84.8599 58.4397 84.3479 57.9677 83.9799 57.3757C83.6119 56.7837 83.4279 56.1197 83.4279 55.3837ZM91.4199 56.1517C91.6119 55.9437 91.7639 55.7357 91.8759 55.5277C91.9879 55.3197 92.0439 55.1357 92.0439 54.9757V53.5357C91.5959 53.3597 91.1239 53.2317 90.6279 53.1517C90.1319 53.0557 89.6439 53.0077 89.1639 53.0077C88.2039 53.0077 87.4199 53.1997 86.8119 53.5837C86.2199 53.9677 85.9239 54.4957 85.9239 55.1677C85.9239 55.5357 86.0199 55.8877 86.2119 56.2237C86.4199 56.5597 86.7079 56.8317 87.0759 57.0397C87.4599 57.2477 87.9319 57.3517 88.4919 57.3517C89.0679 57.3517 89.6199 57.2397 90.1479 57.0157C90.6759 56.7917 91.0999 56.5037 91.4199 56.1517ZM97.8867 59.0557V46.5037H108.687V59.0557H106.047V48.8317H100.527V59.0557H97.8867ZM111.879 59.0557V46.5277H114.519V55.5277L120.879 46.5037H123.279V59.0557H120.639V50.2477L114.351 59.0557H111.879ZM132.122 59.2957C131.146 59.2957 130.258 59.1277 129.458 58.7917C128.674 58.4397 127.994 57.9597 127.418 57.3517C126.842 56.7437 126.394 56.0477 126.074 55.2637C125.77 54.4797 125.618 53.6477 125.618 52.7677C125.618 51.5837 125.882 50.5037 126.41 49.5277C126.954 48.5517 127.706 47.7677 128.666 47.1757C129.642 46.5837 130.794 46.2877 132.122 46.2877C133.402 46.2877 134.514 46.5757 135.458 47.1517C136.418 47.7117 137.122 48.4637 137.57 49.4077L135.002 50.2237C134.714 49.6957 134.306 49.2877 133.778 48.9997C133.266 48.6957 132.698 48.5437 132.074 48.5437C131.37 48.5437 130.73 48.7277 130.154 49.0957C129.594 49.4477 129.146 49.9437 128.81 50.5837C128.49 51.2077 128.33 51.9357 128.33 52.7677C128.33 53.5677 128.498 54.2957 128.834 54.9517C129.17 55.5917 129.618 56.1037 130.178 56.4877C130.754 56.8557 131.394 57.0397 132.098 57.0397C132.53 57.0397 132.946 56.9677 133.346 56.8237C133.762 56.6637 134.122 56.4557 134.426 56.1997C134.73 55.9277 134.946 55.6317 135.074 55.3117L137.666 56.0797C137.394 56.7037 136.986 57.2557 136.442 57.7357C135.914 58.2157 135.282 58.5997 134.546 58.8877C133.826 59.1597 133.018 59.2957 132.122 59.2957ZM138.928 55.3837C138.928 54.5837 139.152 53.8877 139.6 53.2957C140.064 52.6877 140.696 52.2237 141.496 51.9037C142.296 51.5677 143.224 51.3997 144.28 51.3997C144.84 51.3997 145.408 51.4397 145.984 51.5197C146.576 51.5997 147.096 51.7277 147.544 51.9037V51.1117C147.544 50.2317 147.28 49.5437 146.752 49.0477C146.224 48.5517 145.464 48.3037 144.472 48.3037C143.768 48.3037 143.104 48.4317 142.48 48.6877C141.856 48.9277 141.192 49.2717 140.488 49.7197L139.6 47.9437C140.432 47.3837 141.264 46.9677 142.096 46.6957C142.944 46.4237 143.832 46.2877 144.76 46.2877C146.44 46.2877 147.76 46.7357 148.72 47.6317C149.696 48.5117 150.184 49.7677 150.184 51.3997V56.0797C150.184 56.3837 150.232 56.5997 150.328 56.7277C150.44 56.8557 150.624 56.9277 150.88 56.9437V59.0557C150.64 59.1037 150.424 59.1357 150.232 59.1517C150.04 59.1677 149.88 59.1757 149.752 59.1757C149.192 59.1757 148.768 59.0397 148.48 58.7677C148.192 58.4957 148.024 58.1757 147.976 57.8077L147.904 57.0877C147.36 57.7917 146.664 58.3357 145.816 58.7197C144.968 59.1037 144.112 59.2957 143.248 59.2957C142.416 59.2957 141.672 59.1277 141.016 58.7917C140.36 58.4397 139.848 57.9677 139.48 57.3757C139.112 56.7837 138.928 56.1197 138.928 55.3837ZM146.92 56.1517C147.112 55.9437 147.264 55.7357 147.376 55.5277C147.488 55.3197 147.544 55.1357 147.544 54.9757V53.5357C147.096 53.3597 146.624 53.2317 146.128 53.1517C145.632 53.0557 145.144 53.0077 144.664 53.0077C143.704 53.0077 142.92 53.1997 142.312 53.5837C141.72 53.9677 141.424 54.4957 141.424 55.1677C141.424 55.5357 141.52 55.8877 141.712 56.2237C141.92 56.5597 142.208 56.8317 142.576 57.0397C142.96 57.2477 143.432 57.3517 143.992 57.3517C144.568 57.3517 145.12 57.2397 145.648 57.0157C146.176 56.7917 146.6 56.5037 146.92 56.1517ZM153.387 59.0557V46.5037H156.027V51.4957H161.859V46.5037H164.499V59.0557H161.859V53.7757H156.027V59.0557H153.387ZM167.684 59.0557V46.5037H170.324V50.6317H172.7C174.188 50.6317 175.324 51.0077 176.108 51.7597C176.892 52.5117 177.284 53.5037 177.284 54.7357C177.284 55.5677 177.116 56.3117 176.78 56.9677C176.444 57.6237 175.948 58.1357 175.292 58.5037C174.652 58.8717 173.852 59.0557 172.892 59.0557H167.684ZM170.324 57.0157H172.484C173.012 57.0157 173.436 56.9197 173.756 56.7277C174.076 56.5197 174.308 56.2477 174.452 55.9117C174.612 55.5597 174.692 55.1837 174.692 54.7837C174.692 54.3837 174.62 54.0237 174.476 53.7037C174.332 53.3677 174.092 53.1037 173.756 52.9117C173.436 52.7037 173.004 52.5997 172.46 52.5997H170.324V57.0157ZM179.348 59.0557V46.5277H181.988V59.0557H179.348ZM185.336 61.3837L185.912 58.9117H185.048V55.9837H187.424V58.9117L186.584 61.3837H185.336ZM195.195 62.0557V56.7277H195.483C195.819 56.7277 196.131 56.6317 196.419 56.4397C196.707 56.2477 196.963 55.9197 197.187 55.4557C197.411 54.9757 197.595 54.3197 197.739 53.4877C197.883 52.6397 197.971 51.5757 198.003 50.2957L198.147 46.5037H207.099V56.7277H208.827V62.0557H206.499V59.0557H197.499V62.0557H195.195ZM198.963 56.7277H204.459V48.7837H200.475L200.403 50.5357C200.355 51.7517 200.267 52.7757 200.139 53.6077C200.027 54.4397 199.867 55.1037 199.659 55.5997C199.467 56.0957 199.235 56.4717 198.963 56.7277ZM210.154 55.3837C210.154 54.5837 210.378 53.8877 210.826 53.2957C211.29 52.6877 211.922 52.2237 212.722 51.9037C213.522 51.5677 214.45 51.3997 215.506 51.3997C216.066 51.3997 216.634 51.4397 217.21 51.5197C217.802 51.5997 218.322 51.7277 218.77 51.9037V51.1117C218.77 50.2317 218.506 49.5437 217.978 49.0477C217.45 48.5517 216.69 48.3037 215.698 48.3037C214.994 48.3037 214.33 48.4317 213.706 48.6877C213.082 48.9277 212.418 49.2717 211.714 49.7197L210.826 47.9437C211.658 47.3837 212.49 46.9677 213.322 46.6957C214.17 46.4237 215.058 46.2877 215.986 46.2877C217.666 46.2877 218.986 46.7357 219.946 47.6317C220.922 48.5117 221.41 49.7677 221.41 51.3997V56.0797C221.41 56.3837 221.458 56.5997 221.554 56.7277C221.666 56.8557 221.85 56.9277 222.106 56.9437V59.0557C221.866 59.1037 221.65 59.1357 221.458 59.1517C221.266 59.1677 221.106 59.1757 220.978 59.1757C220.418 59.1757 219.994 59.0397 219.706 58.7677C219.418 58.4957 219.25 58.1757 219.202 57.8077L219.13 57.0877C218.586 57.7917 217.89 58.3357 217.042 58.7197C216.194 59.1037 215.338 59.2957 214.474 59.2957C213.642 59.2957 212.898 59.1277 212.242 58.7917C211.586 58.4397 211.074 57.9677 210.706 57.3757C210.338 56.7837 210.154 56.1197 210.154 55.3837ZM218.146 56.1517C218.338 55.9437 218.49 55.7357 218.602 55.5277C218.714 55.3197 218.77 55.1357 218.77 54.9757V53.5357C218.322 53.3597 217.85 53.2317 217.354 53.1517C216.858 53.0557 216.37 53.0077 215.89 53.0077C214.93 53.0077 214.146 53.1997 213.538 53.5837C212.946 53.9677 212.65 54.4957 212.65 55.1677C212.65 55.5357 212.746 55.8877 212.938 56.2237C213.146 56.5597 213.434 56.8317 213.802 57.0397C214.186 57.2477 214.658 57.3517 215.218 57.3517C215.794 57.3517 216.346 57.2397 216.874 57.0157C217.402 56.7917 217.826 56.5037 218.146 56.1517ZM223.605 59.1757V56.8237C224.005 56.8237 224.365 56.7277 224.685 56.5357C225.005 56.3277 225.285 55.9917 225.525 55.5277C225.765 55.0477 225.957 54.3837 226.101 53.5357C226.245 52.6877 226.341 51.6077 226.389 50.2957L226.557 46.5037H235.509V59.0557H232.869V48.8317H228.885L228.837 50.5357C228.773 52.2157 228.621 53.6157 228.381 54.7357C228.141 55.8397 227.805 56.7197 227.373 57.3757C226.957 58.0157 226.429 58.4797 225.789 58.7677C225.165 59.0397 224.437 59.1757 223.605 59.1757ZM244.364 59.2957C243.388 59.2957 242.5 59.1277 241.7 58.7917C240.916 58.4397 240.236 57.9677 239.66 57.3757C239.084 56.7677 238.636 56.0797 238.316 55.3117C238.012 54.5277 237.86 53.6957 237.86 52.8157C237.86 51.6317 238.132 50.5517 238.676 49.5757C239.22 48.5837 239.98 47.7917 240.956 47.1997C241.932 46.5917 243.076 46.2877 244.388 46.2877C245.7 46.2877 246.828 46.5917 247.772 47.1997C248.732 47.7917 249.476 48.5757 250.004 49.5517C250.532 50.5277 250.796 51.5757 250.796 52.6957C250.796 52.8877 250.788 53.0717 250.772 53.2477C250.756 53.4077 250.74 53.5437 250.724 53.6557H240.668C240.716 54.3917 240.916 55.0397 241.268 55.5997C241.636 56.1437 242.1 56.5757 242.66 56.8957C243.22 57.1997 243.82 57.3517 244.46 57.3517C245.164 57.3517 245.828 57.1757 246.452 56.8237C247.092 56.4717 247.524 56.0077 247.748 55.4317L250.004 56.0797C249.732 56.6877 249.316 57.2397 248.756 57.7357C248.212 58.2157 247.564 58.5997 246.812 58.8877C246.06 59.1597 245.244 59.2957 244.364 59.2957ZM240.596 51.9037H248.18C248.132 51.1837 247.924 50.5517 247.556 50.0077C247.204 49.4477 246.748 49.0157 246.188 48.7117C245.644 48.3917 245.036 48.2317 244.364 48.2317C243.708 48.2317 243.1 48.3917 242.54 48.7117C241.996 49.0157 241.548 49.4477 241.196 50.0077C240.844 50.5517 240.644 51.1837 240.596 51.9037ZM258.637 59.2957C257.661 59.2957 256.773 59.1277 255.973 58.7917C255.189 58.4397 254.509 57.9677 253.933 57.3757C253.357 56.7677 252.909 56.0797 252.589 55.3117C252.285 54.5277 252.133 53.6957 252.133 52.8157C252.133 51.6317 252.405 50.5517 252.949 49.5757C253.493 48.5837 254.253 47.7917 255.229 47.1997C256.205 46.5917 257.349 46.2877 258.661 46.2877C259.973 46.2877 261.101 46.5917 262.045 47.1997C263.005 47.7917 263.749 48.5757 264.277 49.5517C264.805 50.5277 265.069 51.5757 265.069 52.6957C265.069 52.8877 265.061 53.0717 265.045 53.2477C265.029 53.4077 265.013 53.5437 264.997 53.6557H254.941C254.989 54.3917 255.189 55.0397 255.541 55.5997C255.909 56.1437 256.373 56.5757 256.933 56.8957C257.493 57.1997 258.093 57.3517 258.733 57.3517C259.437 57.3517 260.101 57.1757 260.725 56.8237C261.365 56.4717 261.797 56.0077 262.021 55.4317L264.277 56.0797C264.005 56.6877 263.589 57.2397 263.029 57.7357C262.485 58.2157 261.837 58.5997 261.085 58.8877C260.333 59.1597 259.517 59.2957 258.637 59.2957ZM254.869 51.9037H262.453C262.405 51.1837 262.197 50.5517 261.829 50.0077C261.477 49.4477 261.021 49.0157 260.461 48.7117C259.917 48.3917 259.309 48.2317 258.637 48.2317C257.981 48.2317 257.373 48.3917 256.813 48.7117C256.269 49.0157 255.821 49.4477 255.469 50.0077C255.117 50.5517 254.917 51.1837 254.869 51.9037ZM278.84 59.2957C277.864 59.2957 276.976 59.1277 276.176 58.7917C275.392 58.4397 274.712 57.9597 274.136 57.3517C273.56 56.7437 273.112 56.0477 272.792 55.2637C272.488 54.4797 272.336 53.6477 272.336 52.7677C272.336 51.5837 272.6 50.5037 273.128 49.5277C273.672 48.5517 274.424 47.7677 275.384 47.1757C276.36 46.5837 277.512 46.2877 278.84 46.2877C280.12 46.2877 281.232 46.5757 282.176 47.1517C283.136 47.7117 283.84 48.4637 284.288 49.4077L281.72 50.2237C281.432 49.6957 281.024 49.2877 280.496 48.9997C279.984 48.6957 279.416 48.5437 278.792 48.5437C278.088 48.5437 277.448 48.7277 276.872 49.0957C276.312 49.4477 275.864 49.9437 275.528 50.5837C275.208 51.2077 275.048 51.9357 275.048 52.7677C275.048 53.5677 275.216 54.2957 275.552 54.9517C275.888 55.5917 276.336 56.1037 276.896 56.4877C277.472 56.8557 278.112 57.0397 278.816 57.0397C279.248 57.0397 279.664 56.9677 280.064 56.8237C280.48 56.6637 280.84 56.4557 281.144 56.1997C281.448 55.9277 281.664 55.6317 281.792 55.3117L284.384 56.0797C284.112 56.7037 283.704 57.2557 283.16 57.7357C282.632 58.2157 282 58.5997 281.264 58.8877C280.544 59.1597 279.736 59.2957 278.84 59.2957ZM292.488 59.0557V46.5037H299.208C300.008 46.5037 300.664 46.6557 301.176 46.9597C301.704 47.2477 302.096 47.6237 302.352 48.0877C302.608 48.5357 302.736 49.0317 302.736 49.5757C302.736 50.2637 302.576 50.8717 302.256 51.3997C301.936 51.9277 301.464 52.3277 300.84 52.5997C301.56 52.8077 302.144 53.1757 302.592 53.7037C303.056 54.2157 303.288 54.8797 303.288 55.6957C303.288 56.4317 303.112 57.0557 302.76 57.5677C302.408 58.0637 301.904 58.4397 301.248 58.6957C300.608 58.9357 299.856 59.0557 298.992 59.0557H292.488ZM294.984 57.2317H298.92C299.256 57.2317 299.56 57.1517 299.832 56.9917C300.12 56.8157 300.344 56.5917 300.504 56.3197C300.664 56.0317 300.744 55.7277 300.744 55.4077C300.744 55.0557 300.664 54.7437 300.504 54.4717C300.36 54.1997 300.152 53.9837 299.88 53.8237C299.624 53.6637 299.32 53.5837 298.968 53.5837H294.984V57.2317ZM294.984 51.8797H298.536C298.872 51.8797 299.168 51.7997 299.424 51.6397C299.68 51.4637 299.88 51.2317 300.024 50.9437C300.168 50.6557 300.24 50.3517 300.24 50.0317C300.24 49.5677 300.088 49.1677 299.784 48.8317C299.48 48.4957 299.08 48.3277 298.584 48.3277H294.984V51.8797ZM304.889 55.3837C304.889 54.5837 305.113 53.8877 305.561 53.2957C306.025 52.6877 306.657 52.2237 307.457 51.9037C308.257 51.5677 309.185 51.3997 310.241 51.3997C310.801 51.3997 311.369 51.4397 311.945 51.5197C312.537 51.5997 313.057 51.7277 313.505 51.9037V51.1117C313.505 50.2317 313.241 49.5437 312.713 49.0477C312.185 48.5517 311.425 48.3037 310.433 48.3037C309.729 48.3037 309.065 48.4317 308.441 48.6877C307.817 48.9277 307.153 49.2717 306.449 49.7197L305.561 47.9437C306.393 47.3837 307.225 46.9677 308.057 46.6957C308.905 46.4237 309.793 46.2877 310.721 46.2877C312.401 46.2877 313.721 46.7357 314.681 47.6317C315.657 48.5117 316.145 49.7677 316.145 51.3997V56.0797C316.145 56.3837 316.193 56.5997 316.289 56.7277C316.401 56.8557 316.585 56.9277 316.841 56.9437V59.0557C316.601 59.1037 316.385 59.1357 316.193 59.1517C316.001 59.1677 315.841 59.1757 315.713 59.1757C315.153 59.1757 314.729 59.0397 314.441 58.7677C314.153 58.4957 313.985 58.1757 313.937 57.8077L313.865 57.0877C313.321 57.7917 312.625 58.3357 311.777 58.7197C310.929 59.1037 310.073 59.2957 309.209 59.2957C308.377 59.2957 307.633 59.1277 306.977 58.7917C306.321 58.4397 305.809 57.9677 305.441 57.3757C305.073 56.7837 304.889 56.1197 304.889 55.3837ZM312.881 56.1517C313.073 55.9437 313.225 55.7357 313.337 55.5277C313.449 55.3197 313.505 55.1357 313.505 54.9757V53.5357C313.057 53.3597 312.585 53.2317 312.089 53.1517C311.593 53.0557 311.105 53.0077 310.625 53.0077C309.665 53.0077 308.881 53.1997 308.273 53.5837C307.681 53.9677 307.385 54.4957 307.385 55.1677C307.385 55.5357 307.481 55.8877 307.673 56.2237C307.881 56.5597 308.169 56.8317 308.537 57.0397C308.921 57.2477 309.393 57.3517 309.953 57.3517C310.529 57.3517 311.081 57.2397 311.609 57.0157C312.137 56.7917 312.561 56.5037 312.881 56.1517ZM319.348 59.0557V46.5037H322.084L326.404 54.2557L330.748 46.5037H333.436V59.0557H330.916V50.2237L327.22 56.8237H325.564L321.844 50.2237V59.0557H319.348ZM336.598 59.0557V46.5277H339.238V55.5277L345.598 46.5037H347.998V59.0557H345.358V50.2477L339.07 59.0557H336.598ZM357.082 59.0557V46.5037H359.722V51.4957H365.554V46.5037H368.194V59.0557H365.554V53.7757H359.722V59.0557H357.082ZM370.467 55.3837C370.467 54.5837 370.691 53.8877 371.139 53.2957C371.603 52.6877 372.235 52.2237 373.035 51.9037C373.835 51.5677 374.763 51.3997 375.819 51.3997C376.379 51.3997 376.947 51.4397 377.523 51.5197C378.115 51.5997 378.635 51.7277 379.083 51.9037V51.1117C379.083 50.2317 378.819 49.5437 378.291 49.0477C377.763 48.5517 377.003 48.3037 376.011 48.3037C375.307 48.3037 374.643 48.4317 374.019 48.6877C373.395 48.9277 372.731 49.2717 372.027 49.7197L371.139 47.9437C371.971 47.3837 372.803 46.9677 373.635 46.6957C374.483 46.4237 375.371 46.2877 376.299 46.2877C377.979 46.2877 379.299 46.7357 380.259 47.6317C381.235 48.5117 381.723 49.7677 381.723 51.3997V56.0797C381.723 56.3837 381.771 56.5997 381.867 56.7277C381.979 56.8557 382.163 56.9277 382.419 56.9437V59.0557C382.179 59.1037 381.963 59.1357 381.771 59.1517C381.579 59.1677 381.419 59.1757 381.291 59.1757C380.731 59.1757 380.307 59.0397 380.019 58.7677C379.731 58.4957 379.563 58.1757 379.515 57.8077L379.443 57.0877C378.899 57.7917 378.203 58.3357 377.355 58.7197C376.507 59.1037 375.651 59.2957 374.787 59.2957C373.955 59.2957 373.211 59.1277 372.555 58.7917C371.899 58.4397 371.387 57.9677 371.019 57.3757C370.651 56.7837 370.467 56.1197 370.467 55.3837ZM378.459 56.1517C378.651 55.9437 378.803 55.7357 378.915 55.5277C379.027 55.3197 379.083 55.1357 379.083 54.9757V53.5357C378.635 53.3597 378.163 53.2317 377.667 53.1517C377.171 53.0557 376.683 53.0077 376.203 53.0077C375.243 53.0077 374.459 53.1997 373.851 53.5837C373.259 53.9677 372.963 54.4957 372.963 55.1677C372.963 55.5357 373.059 55.8877 373.251 56.2237C373.459 56.5597 373.747 56.8317 374.115 57.0397C374.499 57.2477 374.971 57.3517 375.531 57.3517C376.107 57.3517 376.659 57.2397 377.187 57.0157C377.715 56.7917 378.139 56.5037 378.459 56.1517ZM384.926 59.0557V46.5037H395.726V59.0557H393.086V48.8317H387.566V59.0557H384.926ZM406.046 59.2957C405.038 59.2957 404.15 59.0557 403.382 58.5757C402.614 58.0957 402.006 57.4717 401.558 56.7037V64.1677H398.918V46.5037H401.246V48.7597C401.726 48.0077 402.35 47.4077 403.118 46.9597C403.886 46.5117 404.742 46.2877 405.686 46.2877C406.55 46.2877 407.342 46.4637 408.062 46.8157C408.782 47.1517 409.406 47.6237 409.934 48.2317C410.462 48.8397 410.87 49.5357 411.158 50.3197C411.462 51.0877 411.614 51.9037 411.614 52.7677C411.614 53.9677 411.374 55.0637 410.894 56.0557C410.43 57.0477 409.774 57.8397 408.926 58.4317C408.094 59.0077 407.134 59.2957 406.046 59.2957ZM405.182 57.0397C405.742 57.0397 406.246 56.9197 406.694 56.6797C407.158 56.4397 407.55 56.1197 407.87 55.7197C408.206 55.3197 408.462 54.8637 408.638 54.3517C408.814 53.8397 408.902 53.3117 408.902 52.7677C408.902 52.1917 408.806 51.6477 408.614 51.1357C408.422 50.6237 408.142 50.1757 407.774 49.7917C407.422 49.4077 407.006 49.1037 406.526 48.8797C406.062 48.6557 405.55 48.5437 404.99 48.5437C404.654 48.5437 404.302 48.6077 403.934 48.7357C403.566 48.8637 403.222 49.0397 402.902 49.2637C402.582 49.4877 402.302 49.7517 402.062 50.0557C401.822 50.3597 401.654 50.6797 401.558 51.0157V54.3037C401.782 54.8157 402.078 55.2797 402.446 55.6957C402.814 56.0957 403.238 56.4237 403.718 56.6797C404.198 56.9197 404.686 57.0397 405.182 57.0397ZM413.196 59.0557L416.556 54.0877C415.772 53.8957 415.148 53.4957 414.684 52.8877C414.22 52.2797 413.988 51.4637 413.988 50.4397C413.988 49.6557 414.164 48.9677 414.516 48.3757C414.884 47.7837 415.396 47.3197 416.052 46.9837C416.708 46.6477 417.468 46.4797 418.332 46.4797H423.852V59.0557H421.212V54.5197H419.148L416.076 59.0557H413.196ZM418.596 52.5997H421.212V48.5197H418.764C418.092 48.5197 417.556 48.7037 417.156 49.0717C416.772 49.4397 416.58 49.9197 416.58 50.5117C416.58 51.1037 416.748 51.5997 417.084 51.9997C417.436 52.3997 417.94 52.5997 418.596 52.5997ZM427.043 59.0557V46.5037H429.779L434.099 54.2557L438.443 46.5037H441.131V59.0557H438.611V50.2237L434.915 56.8237H433.259L429.539 50.2237V59.0557H427.043ZM445.974 64.3837C445.686 64.3837 445.382 64.3437 445.062 64.2637C444.742 64.1837 444.406 64.0637 444.054 63.9037L444.726 61.9357C444.918 62.0317 445.102 62.1037 445.278 62.1517C445.454 62.1997 445.614 62.2237 445.758 62.2237C446.158 62.2237 446.518 62.0557 446.838 61.7197C447.174 61.3997 447.47 60.9117 447.726 60.2557L448.206 58.9597L442.902 46.5037H445.662L449.502 56.3677L452.91 46.5037H455.454L449.934 60.9757C449.662 61.7277 449.318 62.3517 448.902 62.8477C448.502 63.3437 448.054 63.7197 447.558 63.9757C447.062 64.2477 446.534 64.3837 445.974 64.3837ZM468.195 59.2957C467.091 59.2957 466.107 59.0637 465.243 58.5997C464.395 58.1357 463.707 57.5037 463.179 56.7037C462.667 55.8877 462.339 54.9677 462.195 53.9437H460.035V59.0557H457.395V46.5037H460.035V51.6397H462.195C462.339 50.5837 462.675 49.6557 463.203 48.8557C463.747 48.0397 464.443 47.4077 465.291 46.9597C466.139 46.5117 467.107 46.2877 468.195 46.2877C469.507 46.2877 470.627 46.5837 471.555 47.1757C472.483 47.7677 473.195 48.5517 473.691 49.5277C474.187 50.5037 474.435 51.5917 474.435 52.7917C474.435 54.0237 474.179 55.1277 473.667 56.1037C473.171 57.0797 472.451 57.8557 471.507 58.4317C470.579 59.0077 469.475 59.2957 468.195 59.2957ZM468.195 57.0397C468.899 57.0397 469.515 56.8637 470.043 56.5117C470.571 56.1437 470.987 55.6477 471.291 55.0237C471.595 54.3837 471.747 53.6397 471.747 52.7917C471.747 51.9277 471.595 51.1837 471.291 50.5597C470.987 49.9197 470.563 49.4237 470.019 49.0717C469.475 48.7197 468.867 48.5437 468.195 48.5437C467.523 48.5437 466.923 48.7197 466.395 49.0717C465.883 49.4237 465.483 49.9197 465.195 50.5597C464.907 51.1997 464.763 51.9437 464.763 52.7917C464.763 53.6557 464.907 54.4077 465.195 55.0477C465.499 55.6877 465.907 56.1837 466.419 56.5357C466.947 56.8717 467.539 57.0397 468.195 57.0397ZM38.8169 95.2957C37.8409 95.2957 36.9529 95.1277 36.1529 94.7917C35.3689 94.4397 34.6889 93.9597 34.1129 93.3517C33.5369 92.7437 33.0889 92.0477 32.7689 91.2637C32.4649 90.4797 32.3129 89.6477 32.3129 88.7677C32.3129 87.5837 32.5769 86.5037 33.1049 85.5277C33.6489 84.5517 34.4009 83.7677 35.3609 83.1757C36.3369 82.5837 37.4889 82.2877 38.8169 82.2877C40.0969 82.2877 41.2089 82.5757 42.1529 83.1517C43.1129 83.7117 43.8169 84.4637 44.2649 85.4077L41.6969 86.2237C41.4089 85.6957 41.0009 85.2877 40.4729 84.9997C39.9609 84.6957 39.3929 84.5437 38.7689 84.5437C38.0649 84.5437 37.4249 84.7277 36.8489 85.0957C36.2889 85.4477 35.8409 85.9437 35.5049 86.5837C35.1849 87.2077 35.0249 87.9357 35.0249 88.7677C35.0249 89.5677 35.1929 90.2957 35.5289 90.9517C35.8649 91.5917 36.3129 92.1037 36.8729 92.4877C37.4489 92.8557 38.0889 93.0397 38.7929 93.0397C39.2249 93.0397 39.6409 92.9677 40.0409 92.8237C40.4569 92.6637 40.8169 92.4557 41.1209 92.1997C41.4249 91.9277 41.6409 91.6317 41.7689 91.3117L44.3609 92.0797C44.0889 92.7037 43.6809 93.2557 43.1369 93.7357C42.6089 94.2157 41.9769 94.5997 41.2409 94.8877C40.5209 95.1597 39.7129 95.2957 38.8169 95.2957ZM46.5352 95.0557V82.5037H53.2552C54.0552 82.5037 54.7112 82.6557 55.2232 82.9597C55.7512 83.2477 56.1432 83.6237 56.3992 84.0877C56.6552 84.5357 56.7832 85.0317 56.7832 85.5757C56.7832 86.2637 56.6232 86.8717 56.3032 87.3997C55.9832 87.9277 55.5112 88.3277 54.8872 88.5997C55.6072 88.8077 56.1912 89.1757 56.6392 89.7037C57.1032 90.2157 57.3352 90.8797 57.3352 91.6957C57.3352 92.4317 57.1592 93.0557 56.8072 93.5677C56.4552 94.0637 55.9512 94.4397 55.2952 94.6957C54.6552 94.9357 53.9032 95.0557 53.0392 95.0557H46.5352ZM49.0312 93.2317H52.9672C53.3032 93.2317 53.6072 93.1517 53.8792 92.9917C54.1672 92.8157 54.3912 92.5917 54.5512 92.3197C54.7112 92.0317 54.7912 91.7277 54.7912 91.4077C54.7912 91.0557 54.7112 90.7437 54.5512 90.4717C54.4072 90.1997 54.1992 89.9837 53.9272 89.8237C53.6712 89.6637 53.3672 89.5837 53.0152 89.5837H49.0312V93.2317ZM49.0312 87.8797H52.5832C52.9192 87.8797 53.2152 87.7997 53.4712 87.6397C53.7272 87.4637 53.9272 87.2317 54.0712 86.9437C54.2152 86.6557 54.2872 86.3517 54.2872 86.0317C54.2872 85.5677 54.1352 85.1677 53.8312 84.8317C53.5272 84.4957 53.1272 84.3277 52.6312 84.3277H49.0312V87.8797ZM59.0322 95.0557L62.3922 90.0877C61.6082 89.8957 60.9842 89.4957 60.5202 88.8877C60.0562 88.2797 59.8242 87.4637 59.8242 86.4397C59.8242 85.6557 60.0002 84.9677 60.3522 84.3757C60.7202 83.7837 61.2322 83.3197 61.8882 82.9837C62.5442 82.6477 63.3042 82.4797 64.1682 82.4797H69.6882V95.0557H67.0482V90.5197H64.9842L61.9122 95.0557H59.0322ZM64.4322 88.5997H67.0482V84.5197H64.6002C63.9282 84.5197 63.3922 84.7037 62.9922 85.0717C62.6082 85.4397 62.4162 85.9197 62.4162 86.5117C62.4162 87.1037 62.5842 87.5997 62.9202 87.9997C63.2722 88.3997 63.7762 88.5997 64.4322 88.5997ZM71.9909 95.0557L76.5029 88.5757L72.3509 82.5037H75.3029L78.7109 87.4957H79.8869V82.5037H82.5989V87.4957H83.8229L87.1829 82.5037H90.1349L85.9829 88.5757L90.5189 95.0557H87.5189L83.8229 89.7997H82.5989V95.0557H79.8869V89.7997H78.7109L74.9909 95.0557H71.9909ZM98.4888 95.2957C97.5128 95.2957 96.6248 95.1277 95.8248 94.7917C95.0408 94.4397 94.3608 93.9677 93.7848 93.3757C93.2088 92.7677 92.7608 92.0797 92.4408 91.3117C92.1368 90.5277 91.9848 89.6957 91.9848 88.8157C91.9848 87.6317 92.2568 86.5517 92.8008 85.5757C93.3448 84.5837 94.1048 83.7917 95.0808 83.1997C96.0568 82.5917 97.2008 82.2877 98.5128 82.2877C99.8248 82.2877 100.953 82.5917 101.897 83.1997C102.857 83.7917 103.601 84.5757 104.129 85.5517C104.657 86.5277 104.921 87.5757 104.921 88.6957C104.921 88.8877 104.913 89.0717 104.897 89.2477C104.881 89.4077 104.865 89.5437 104.849 89.6557H94.7928C94.8408 90.3917 95.0408 91.0397 95.3928 91.5997C95.7608 92.1437 96.2248 92.5757 96.7848 92.8957C97.3448 93.1997 97.9448 93.3517 98.5848 93.3517C99.2888 93.3517 99.9528 93.1757 100.577 92.8237C101.217 92.4717 101.649 92.0077 101.873 91.4317L104.129 92.0797C103.857 92.6877 103.441 93.2397 102.881 93.7357C102.337 94.2157 101.689 94.5997 100.937 94.8877C100.185 95.1597 99.3688 95.2957 98.4888 95.2957ZM94.7208 87.9037H102.305C102.257 87.1837 102.049 86.5517 101.681 86.0077C101.329 85.4477 100.873 85.0157 100.313 84.7117C99.7688 84.3917 99.1608 84.2317 98.4888 84.2317C97.8328 84.2317 97.2248 84.3917 96.6648 84.7117C96.1208 85.0157 95.6728 85.4477 95.3208 86.0077C94.9688 86.5517 94.7688 87.1837 94.7208 87.9037ZM110.05 95.0557V84.8317H105.898V82.5037H116.866V84.8317H112.69V95.0557H110.05ZM124.528 95.2957C123.552 95.2957 122.664 95.1277 121.864 94.7917C121.08 94.4397 120.4 93.9597 119.824 93.3517C119.248 92.7437 118.8 92.0477 118.48 91.2637C118.176 90.4797 118.024 89.6477 118.024 88.7677C118.024 87.5837 118.288 86.5037 118.816 85.5277C119.36 84.5517 120.112 83.7677 121.072 83.1757C122.048 82.5837 123.2 82.2877 124.528 82.2877C125.808 82.2877 126.92 82.5757 127.864 83.1517C128.824 83.7117 129.528 84.4637 129.976 85.4077L127.408 86.2237C127.12 85.6957 126.712 85.2877 126.184 84.9997C125.672 84.6957 125.104 84.5437 124.48 84.5437C123.776 84.5437 123.136 84.7277 122.56 85.0957C122 85.4477 121.552 85.9437 121.216 86.5837C120.896 87.2077 120.736 87.9357 120.736 88.7677C120.736 89.5677 120.904 90.2957 121.24 90.9517C121.576 91.5917 122.024 92.1037 122.584 92.4877C123.16 92.8557 123.8 93.0397 124.504 93.0397C124.936 93.0397 125.352 92.9677 125.752 92.8237C126.168 92.6637 126.528 92.4557 126.832 92.1997C127.136 91.9277 127.352 91.6317 127.48 91.3117L130.072 92.0797C129.8 92.7037 129.392 93.2557 128.848 93.7357C128.32 94.2157 127.688 94.5997 126.952 94.8877C126.232 95.1597 125.424 95.2957 124.528 95.2957ZM131.313 95.0557L134.673 90.0877C133.889 89.8957 133.265 89.4957 132.801 88.8877C132.337 88.2797 132.105 87.4637 132.105 86.4397C132.105 85.6557 132.281 84.9677 132.633 84.3757C133.001 83.7837 133.513 83.3197 134.169 82.9837C134.825 82.6477 135.585 82.4797 136.449 82.4797H141.969V95.0557H139.329V90.5197H137.265L134.193 95.0557H131.313ZM136.713 88.5997H139.329V84.5197H136.881C136.209 84.5197 135.673 84.7037 135.273 85.0717C134.889 85.4397 134.697 85.9197 134.697 86.5117C134.697 87.1037 134.865 87.5997 135.201 87.9997C135.553 88.3997 136.057 88.5997 136.713 88.5997ZM151.09 95.0557V82.5037H153.826L158.146 90.2557L162.49 82.5037H165.178V95.0557H162.658V86.2237L158.962 92.8237H157.306L153.586 86.2237V95.0557H151.09ZM167.428 91.3837C167.428 90.5837 167.652 89.8877 168.1 89.2957C168.564 88.6877 169.196 88.2237 169.996 87.9037C170.796 87.5677 171.724 87.3997 172.78 87.3997C173.34 87.3997 173.908 87.4397 174.484 87.5197C175.076 87.5997 175.596 87.7277 176.044 87.9037V87.1117C176.044 86.2317 175.78 85.5437 175.252 85.0477C174.724 84.5517 173.964 84.3037 172.972 84.3037C172.268 84.3037 171.604 84.4317 170.98 84.6877C170.356 84.9277 169.692 85.2717 168.988 85.7197L168.1 83.9437C168.932 83.3837 169.764 82.9677 170.596 82.6957C171.444 82.4237 172.332 82.2877 173.26 82.2877C174.94 82.2877 176.26 82.7357 177.22 83.6317C178.196 84.5117 178.684 85.7677 178.684 87.3997V92.0797C178.684 92.3837 178.732 92.5997 178.828 92.7277C178.94 92.8557 179.124 92.9277 179.38 92.9437V95.0557C179.14 95.1037 178.924 95.1357 178.732 95.1517C178.54 95.1677 178.38 95.1757 178.252 95.1757C177.692 95.1757 177.268 95.0397 176.98 94.7677C176.692 94.4957 176.524 94.1757 176.476 93.8077L176.404 93.0877C175.86 93.7917 175.164 94.3357 174.316 94.7197C173.468 95.1037 172.612 95.2957 171.748 95.2957C170.916 95.2957 170.172 95.1277 169.516 94.7917C168.86 94.4397 168.348 93.9677 167.98 93.3757C167.612 92.7837 167.428 92.1197 167.428 91.3837ZM175.42 92.1517C175.612 91.9437 175.764 91.7357 175.876 91.5277C175.988 91.3197 176.044 91.1357 176.044 90.9757V89.5357C175.596 89.3597 175.124 89.2317 174.628 89.1517C174.132 89.0557 173.644 89.0077 173.164 89.0077C172.204 89.0077 171.42 89.1997 170.812 89.5837C170.22 89.9677 169.924 90.4957 169.924 91.1677C169.924 91.5357 170.02 91.8877 170.212 92.2237C170.42 92.5597 170.708 92.8317 171.076 93.0397C171.46 93.2477 171.932 93.3517 172.492 93.3517C173.068 93.3517 173.62 93.2397 174.148 93.0157C174.676 92.7917 175.1 92.5037 175.42 92.1517ZM189.015 95.2957C188.007 95.2957 187.119 95.0557 186.351 94.5757C185.583 94.0957 184.975 93.4717 184.527 92.7037V100.168H181.887V82.5037H184.215V84.7597C184.695 84.0077 185.319 83.4077 186.087 82.9597C186.855 82.5117 187.711 82.2877 188.655 82.2877C189.519 82.2877 190.311 82.4637 191.031 82.8157C191.751 83.1517 192.375 83.6237 192.903 84.2317C193.431 84.8397 193.839 85.5357 194.127 86.3197C194.431 87.0877 194.583 87.9037 194.583 88.7677C194.583 89.9677 194.343 91.0637 193.863 92.0557C193.399 93.0477 192.743 93.8397 191.895 94.4317C191.063 95.0077 190.103 95.2957 189.015 95.2957ZM188.151 93.0397C188.711 93.0397 189.215 92.9197 189.663 92.6797C190.127 92.4397 190.519 92.1197 190.839 91.7197C191.175 91.3197 191.431 90.8637 191.607 90.3517C191.783 89.8397 191.871 89.3117 191.871 88.7677C191.871 88.1917 191.775 87.6477 191.583 87.1357C191.391 86.6237 191.111 86.1757 190.743 85.7917C190.391 85.4077 189.975 85.1037 189.495 84.8797C189.031 84.6557 188.519 84.5437 187.959 84.5437C187.623 84.5437 187.271 84.6077 186.903 84.7357C186.535 84.8637 186.191 85.0397 185.871 85.2637C185.551 85.4877 185.271 85.7517 185.031 86.0557C184.791 86.3597 184.623 86.6797 184.527 87.0157V90.3037C184.751 90.8157 185.047 91.2797 185.415 91.6957C185.783 92.0957 186.207 92.4237 186.687 92.6797C187.167 92.9197 187.655 93.0397 188.151 93.0397ZM196.957 95.0557V82.5037H199.573V87.4717H200.821L204.517 82.5037H207.445L202.861 88.5757L207.973 95.0557H204.925L200.797 89.8477H199.573V95.0557H196.957ZM215.02 95.2957C214.044 95.2957 213.156 95.1277 212.356 94.7917C211.572 94.4397 210.892 93.9677 210.316 93.3757C209.74 92.7677 209.292 92.0797 208.972 91.3117C208.668 90.5277 208.516 89.6957 208.516 88.8157C208.516 87.6317 208.788 86.5517 209.332 85.5757C209.876 84.5837 210.636 83.7917 211.612 83.1997C212.588 82.5917 213.732 82.2877 215.044 82.2877C216.356 82.2877 217.484 82.5917 218.428 83.1997C219.388 83.7917 220.132 84.5757 220.66 85.5517C221.188 86.5277 221.452 87.5757 221.452 88.6957C221.452 88.8877 221.444 89.0717 221.428 89.2477C221.412 89.4077 221.396 89.5437 221.38 89.6557H211.324C211.372 90.3917 211.572 91.0397 211.924 91.5997C212.292 92.1437 212.756 92.5757 213.316 92.8957C213.876 93.1997 214.476 93.3517 215.116 93.3517C215.82 93.3517 216.484 93.1757 217.108 92.8237C217.748 92.4717 218.18 92.0077 218.404 91.4317L220.66 92.0797C220.388 92.6877 219.972 93.2397 219.412 93.7357C218.868 94.2157 218.22 94.5997 217.468 94.8877C216.716 95.1597 215.9 95.2957 215.02 95.2957ZM211.252 87.9037H218.836C218.788 87.1837 218.58 86.5517 218.212 86.0077C217.86 85.4477 217.404 85.0157 216.844 84.7117C216.3 84.3917 215.692 84.2317 215.02 84.2317C214.364 84.2317 213.756 84.3917 213.196 84.7117C212.652 85.0157 212.204 85.4477 211.852 86.0077C211.5 86.5517 211.3 87.1837 211.252 87.9037ZM226.581 95.0557V84.8317H222.429V82.5037H233.397V84.8317H229.221V95.0557H226.581ZM241.011 95.2957C240.019 95.2957 239.131 95.1277 238.347 94.7917C237.563 94.4397 236.883 93.9597 236.307 93.3517C235.747 92.7437 235.315 92.0557 235.011 91.2877C234.707 90.5037 234.555 89.6717 234.555 88.7917C234.555 87.9117 234.707 87.0797 235.011 86.2957C235.315 85.5117 235.747 84.8237 236.307 84.2317C236.883 83.6237 237.563 83.1517 238.347 82.8157C239.147 82.4637 240.035 82.2877 241.011 82.2877C241.987 82.2877 242.867 82.4637 243.651 82.8157C244.451 83.1517 245.131 83.6237 245.691 84.2317C246.267 84.8237 246.707 85.5117 247.011 86.2957C247.315 87.0797 247.467 87.9117 247.467 88.7917C247.467 89.6717 247.315 90.5037 247.011 91.2877C246.707 92.0557 246.267 92.7437 245.691 93.3517C245.131 93.9597 244.451 94.4397 243.651 94.7917C242.867 95.1277 241.987 95.2957 241.011 95.2957ZM237.267 88.8157C237.267 89.6157 237.435 90.3357 237.771 90.9757C238.107 91.6157 238.555 92.1197 239.115 92.4877C239.675 92.8557 240.307 93.0397 241.011 93.0397C241.699 93.0397 242.323 92.8557 242.883 92.4877C243.459 92.1037 243.915 91.5917 244.251 90.9517C244.587 90.2957 244.755 89.5757 244.755 88.7917C244.755 87.9917 244.587 87.2717 244.251 86.6317C243.915 85.9917 243.459 85.4877 242.883 85.1197C242.323 84.7357 241.699 84.5437 241.011 84.5437C240.307 84.5437 239.675 84.7357 239.115 85.1197C238.555 85.5037 238.107 86.0157 237.771 86.6557C237.435 87.2797 237.267 87.9997 237.267 88.8157ZM248.801 95.1757V92.8237C249.201 92.8237 249.561 92.7277 249.881 92.5357C250.201 92.3277 250.481 91.9917 250.721 91.5277C250.961 91.0477 251.153 90.3837 251.297 89.5357C251.441 88.6877 251.537 87.6077 251.585 86.2957L251.753 82.5037H260.705V95.0557H258.065V84.8317H254.081L254.033 86.5357C253.969 88.2157 253.817 89.6157 253.577 90.7357C253.337 91.8397 253.001 92.7197 252.569 93.3757C252.153 94.0157 251.625 94.4797 250.985 94.7677C250.361 95.0397 249.633 95.1757 248.801 95.1757ZM269.511 95.2957C268.519 95.2957 267.631 95.1277 266.847 94.7917C266.063 94.4397 265.383 93.9597 264.807 93.3517C264.247 92.7437 263.815 92.0557 263.511 91.2877C263.207 90.5037 263.055 89.6717 263.055 88.7917C263.055 87.9117 263.207 87.0797 263.511 86.2957C263.815 85.5117 264.247 84.8237 264.807 84.2317C265.383 83.6237 266.063 83.1517 266.847 82.8157C267.647 82.4637 268.535 82.2877 269.511 82.2877C270.487 82.2877 271.367 82.4637 272.151 82.8157C272.951 83.1517 273.631 83.6237 274.191 84.2317C274.767 84.8237 275.207 85.5117 275.511 86.2957C275.815 87.0797 275.967 87.9117 275.967 88.7917C275.967 89.6717 275.815 90.5037 275.511 91.2877C275.207 92.0557 274.767 92.7437 274.191 93.3517C273.631 93.9597 272.951 94.4397 272.151 94.7917C271.367 95.1277 270.487 95.2957 269.511 95.2957ZM265.767 88.8157C265.767 89.6157 265.935 90.3357 266.271 90.9757C266.607 91.6157 267.055 92.1197 267.615 92.4877C268.175 92.8557 268.807 93.0397 269.511 93.0397C270.199 93.0397 270.823 92.8557 271.383 92.4877C271.959 92.1037 272.415 91.5917 272.751 90.9517C273.087 90.2957 273.255 89.5757 273.255 88.7917C273.255 87.9917 273.087 87.2717 272.751 86.6317C272.415 85.9917 271.959 85.4877 271.383 85.1197C270.823 84.7357 270.199 84.5437 269.511 84.5437C268.807 84.5437 268.175 84.7357 267.615 85.1197C267.055 85.5037 266.607 86.0157 266.271 86.6557C265.935 87.2797 265.767 87.9997 265.767 88.8157ZM278.309 95.0557V82.5037H286.325V84.8317H280.949V95.0557H278.309ZM294.246 95.0557V82.5277H296.886V91.5277L303.246 82.5037H305.646V95.0557H303.006V86.2477L296.718 95.0557H294.246ZM321.858 95.2957C320.85 95.2957 319.962 95.0557 319.194 94.5757C318.426 94.0957 317.818 93.4717 317.37 92.7037V100.168H314.73V82.5037H317.058V84.7597C317.538 84.0077 318.162 83.4077 318.93 82.9597C319.698 82.5117 320.554 82.2877 321.498 82.2877C322.362 82.2877 323.154 82.4637 323.874 82.8157C324.594 83.1517 325.218 83.6237 325.746 84.2317C326.274 84.8397 326.682 85.5357 326.97 86.3197C327.274 87.0877 327.426 87.9037 327.426 88.7677C327.426 89.9677 327.186 91.0637 326.706 92.0557C326.242 93.0477 325.586 93.8397 324.738 94.4317C323.906 95.0077 322.946 95.2957 321.858 95.2957ZM320.994 93.0397C321.554 93.0397 322.058 92.9197 322.506 92.6797C322.97 92.4397 323.362 92.1197 323.682 91.7197C324.018 91.3197 324.274 90.8637 324.45 90.3517C324.626 89.8397 324.714 89.3117 324.714 88.7677C324.714 88.1917 324.618 87.6477 324.426 87.1357C324.234 86.6237 323.954 86.1757 323.586 85.7917C323.234 85.4077 322.818 85.1037 322.338 84.8797C321.874 84.6557 321.362 84.5437 320.802 84.5437C320.466 84.5437 320.114 84.6077 319.746 84.7357C319.378 84.8637 319.034 85.0397 318.714 85.2637C318.394 85.4877 318.114 85.7517 317.874 86.0557C317.634 86.3597 317.466 86.6797 317.37 87.0157V90.3037C317.594 90.8157 317.89 91.2797 318.258 91.6957C318.626 92.0957 319.05 92.4237 319.53 92.6797C320.01 92.9197 320.498 93.0397 320.994 93.0397ZM328.889 91.3837C328.889 90.5837 329.113 89.8877 329.561 89.2957C330.025 88.6877 330.657 88.2237 331.457 87.9037C332.257 87.5677 333.185 87.3997 334.241 87.3997C334.801 87.3997 335.369 87.4397 335.945 87.5197C336.537 87.5997 337.057 87.7277 337.505 87.9037V87.1117C337.505 86.2317 337.241 85.5437 336.713 85.0477C336.185 84.5517 335.425 84.3037 334.433 84.3037C333.729 84.3037 333.065 84.4317 332.441 84.6877C331.817 84.9277 331.153 85.2717 330.449 85.7197L329.561 83.9437C330.393 83.3837 331.225 82.9677 332.057 82.6957C332.905 82.4237 333.793 82.2877 334.721 82.2877C336.401 82.2877 337.721 82.7357 338.681 83.6317C339.657 84.5117 340.145 85.7677 340.145 87.3997V92.0797C340.145 92.3837 340.193 92.5997 340.289 92.7277C340.401 92.8557 340.585 92.9277 340.841 92.9437V95.0557C340.601 95.1037 340.385 95.1357 340.193 95.1517C340.001 95.1677 339.841 95.1757 339.713 95.1757C339.153 95.1757 338.729 95.0397 338.441 94.7677C338.153 94.4957 337.985 94.1757 337.937 93.8077L337.865 93.0877C337.321 93.7917 336.625 94.3357 335.777 94.7197C334.929 95.1037 334.073 95.2957 333.209 95.2957C332.377 95.2957 331.633 95.1277 330.977 94.7917C330.321 94.4397 329.809 93.9677 329.441 93.3757C329.073 92.7837 328.889 92.1197 328.889 91.3837ZM336.881 92.1517C337.073 91.9437 337.225 91.7357 337.337 91.5277C337.449 91.3197 337.505 91.1357 337.505 90.9757V89.5357C337.057 89.3597 336.585 89.2317 336.089 89.1517C335.593 89.0557 335.105 89.0077 334.625 89.0077C333.665 89.0077 332.881 89.1997 332.273 89.5837C331.681 89.9677 331.385 90.4957 331.385 91.1677C331.385 91.5357 331.481 91.8877 331.673 92.2237C331.881 92.5597 332.169 92.8317 332.537 93.0397C332.921 93.2477 333.393 93.3517 333.953 93.3517C334.529 93.3517 335.081 93.2397 335.609 93.0157C336.137 92.7917 336.561 92.5037 336.881 92.1517ZM349.036 95.2957C348.06 95.2957 347.172 95.1277 346.372 94.7917C345.588 94.4397 344.908 93.9597 344.332 93.3517C343.756 92.7437 343.308 92.0477 342.988 91.2637C342.684 90.4797 342.532 89.6477 342.532 88.7677C342.532 87.5837 342.796 86.5037 343.324 85.5277C343.868 84.5517 344.62 83.7677 345.58 83.1757C346.556 82.5837 347.708 82.2877 349.036 82.2877C350.316 82.2877 351.428 82.5757 352.372 83.1517C353.332 83.7117 354.036 84.4637 354.484 85.4077L351.916 86.2237C351.628 85.6957 351.22 85.2877 350.692 84.9997C350.18 84.6957 349.612 84.5437 348.988 84.5437C348.284 84.5437 347.644 84.7277 347.068 85.0957C346.508 85.4477 346.06 85.9437 345.724 86.5837C345.404 87.2077 345.244 87.9357 345.244 88.7677C345.244 89.5677 345.412 90.2957 345.748 90.9517C346.084 91.5917 346.532 92.1037 347.092 92.4877C347.668 92.8557 348.308 93.0397 349.012 93.0397C349.444 93.0397 349.86 92.9677 350.26 92.8237C350.676 92.6637 351.036 92.4557 351.34 92.1997C351.644 91.9277 351.86 91.6317 351.988 91.3117L354.58 92.0797C354.308 92.7037 353.9 93.2557 353.356 93.7357C352.828 94.2157 352.196 94.5997 351.46 94.8877C350.74 95.1597 349.932 95.2957 349.036 95.2957ZM362.325 95.2957C361.349 95.2957 360.461 95.1277 359.661 94.7917C358.877 94.4397 358.197 93.9597 357.621 93.3517C357.045 92.7437 356.597 92.0477 356.277 91.2637C355.973 90.4797 355.821 89.6477 355.821 88.7677C355.821 87.5837 356.085 86.5037 356.613 85.5277C357.157 84.5517 357.909 83.7677 358.869 83.1757C359.845 82.5837 360.997 82.2877 362.325 82.2877C363.605 82.2877 364.717 82.5757 365.661 83.1517C366.621 83.7117 367.325 84.4637 367.773 85.4077L365.205 86.2237C364.917 85.6957 364.509 85.2877 363.981 84.9997C363.469 84.6957 362.901 84.5437 362.277 84.5437C361.573 84.5437 360.933 84.7277 360.357 85.0957C359.797 85.4477 359.349 85.9437 359.013 86.5837C358.693 87.2077 358.533 87.9357 358.533 88.7677C358.533 89.5677 358.701 90.2957 359.037 90.9517C359.373 91.5917 359.821 92.1037 360.381 92.4877C360.957 92.8557 361.597 93.0397 362.301 93.0397C362.733 93.0397 363.149 92.9677 363.549 92.8237C363.965 92.6637 364.325 92.4557 364.629 92.1997C364.933 91.9277 365.149 91.6317 365.277 91.3117L367.869 92.0797C367.597 92.7037 367.189 93.2557 366.645 93.7357C366.117 94.2157 365.485 94.5997 364.749 94.8877C364.029 95.1597 363.221 95.2957 362.325 95.2957ZM370.043 95.0557V82.5037H372.659V87.4717H373.907L377.603 82.5037H380.531L375.947 88.5757L381.059 95.0557H378.011L373.883 89.8477H372.659V95.0557H370.043ZM382.115 91.3837C382.115 90.5837 382.339 89.8877 382.787 89.2957C383.251 88.6877 383.883 88.2237 384.683 87.9037C385.483 87.5677 386.411 87.3997 387.467 87.3997C388.027 87.3997 388.595 87.4397 389.171 87.5197C389.763 87.5997 390.283 87.7277 390.731 87.9037V87.1117C390.731 86.2317 390.467 85.5437 389.939 85.0477C389.411 84.5517 388.651 84.3037 387.659 84.3037C386.955 84.3037 386.291 84.4317 385.667 84.6877C385.043 84.9277 384.379 85.2717 383.675 85.7197L382.787 83.9437C383.619 83.3837 384.451 82.9677 385.283 82.6957C386.131 82.4237 387.019 82.2877 387.947 82.2877C389.627 82.2877 390.947 82.7357 391.907 83.6317C392.883 84.5117 393.371 85.7677 393.371 87.3997V92.0797C393.371 92.3837 393.419 92.5997 393.515 92.7277C393.627 92.8557 393.811 92.9277 394.067 92.9437V95.0557C393.827 95.1037 393.611 95.1357 393.419 95.1517C393.227 95.1677 393.067 95.1757 392.939 95.1757C392.379 95.1757 391.955 95.0397 391.667 94.7677C391.379 94.4957 391.211 94.1757 391.163 93.8077L391.091 93.0877C390.547 93.7917 389.851 94.3357 389.003 94.7197C388.155 95.1037 387.299 95.2957 386.435 95.2957C385.603 95.2957 384.859 95.1277 384.203 94.7917C383.547 94.4397 383.035 93.9677 382.667 93.3757C382.299 92.7837 382.115 92.1197 382.115 91.3837ZM390.107 92.1517C390.299 91.9437 390.451 91.7357 390.563 91.5277C390.675 91.3197 390.731 91.1357 390.731 90.9757V89.5357C390.283 89.3597 389.811 89.2317 389.315 89.1517C388.819 89.0557 388.331 89.0077 387.851 89.0077C386.891 89.0077 386.107 89.1997 385.499 89.5837C384.907 89.9677 384.611 90.4957 384.611 91.1677C384.611 91.5357 384.707 91.8877 384.899 92.2237C385.107 92.5597 385.395 92.8317 385.763 93.0397C386.147 93.2477 386.619 93.3517 387.179 93.3517C387.755 93.3517 388.307 93.2397 388.835 93.0157C389.363 92.7917 389.787 92.5037 390.107 92.1517ZM395.686 95.0557L400.198 88.5757L396.046 82.5037H398.998L402.406 87.4957H403.582V82.5037H406.294V87.4957H407.518L410.878 82.5037H413.83L409.678 88.5757L414.214 95.0557H411.214L407.518 89.7997H406.294V95.0557H403.582V89.7997H402.406L398.686 95.0557H395.686ZM422.184 95.2957C421.208 95.2957 420.32 95.1277 419.52 94.7917C418.736 94.4397 418.056 93.9677 417.48 93.3757C416.904 92.7677 416.456 92.0797 416.136 91.3117C415.832 90.5277 415.68 89.6957 415.68 88.8157C415.68 87.6317 415.952 86.5517 416.496 85.5757C417.04 84.5837 417.8 83.7917 418.776 83.1997C419.752 82.5917 420.896 82.2877 422.208 82.2877C423.52 82.2877 424.648 82.5917 425.592 83.1997C426.552 83.7917 427.296 84.5757 427.824 85.5517C428.352 86.5277 428.616 87.5757 428.616 88.6957C428.616 88.8877 428.608 89.0717 428.592 89.2477C428.576 89.4077 428.56 89.5437 428.544 89.6557H418.488C418.536 90.3917 418.736 91.0397 419.088 91.5997C419.456 92.1437 419.92 92.5757 420.48 92.8957C421.04 93.1997 421.64 93.3517 422.28 93.3517C422.984 93.3517 423.648 93.1757 424.272 92.8237C424.912 92.4717 425.344 92.0077 425.568 91.4317L427.824 92.0797C427.552 92.6877 427.136 93.2397 426.576 93.7357C426.032 94.2157 425.384 94.5997 424.632 94.8877C423.88 95.1597 423.064 95.2957 422.184 95.2957ZM418.416 87.9037H426C425.952 87.1837 425.744 86.5517 425.376 86.0077C425.024 85.4477 424.568 85.0157 424.008 84.7117C423.464 84.3917 422.856 84.2317 422.184 84.2317C421.528 84.2317 420.92 84.3917 420.36 84.7117C419.816 85.0157 419.368 85.4477 419.016 86.0077C418.664 86.5517 418.464 87.1837 418.416 87.9037ZM433.746 95.0557V84.8317H429.594V82.5037H440.562V84.8317H436.386V95.0557H433.746ZM448.465 95.0557V82.5037H455.185C455.985 82.5037 456.641 82.6557 457.153 82.9597C457.681 83.2477 458.073 83.6237 458.329 84.0877C458.585 84.5357 458.713 85.0317 458.713 85.5757C458.713 86.2637 458.553 86.8717 458.233 87.3997C457.913 87.9277 457.441 88.3277 456.817 88.5997C457.537 88.8077 458.121 89.1757 458.569 89.7037C459.033 90.2157 459.265 90.8797 459.265 91.6957C459.265 92.4317 459.089 93.0557 458.737 93.5677C458.385 94.0637 457.881 94.4397 457.225 94.6957C456.585 94.9357 455.833 95.0557 454.969 95.0557H448.465ZM450.961 93.2317H454.897C455.233 93.2317 455.537 93.1517 455.809 92.9917C456.097 92.8157 456.321 92.5917 456.481 92.3197C456.641 92.0317 456.721 91.7277 456.721 91.4077C456.721 91.0557 456.641 90.7437 456.481 90.4717C456.337 90.1997 456.129 89.9837 455.857 89.8237C455.601 89.6637 455.297 89.5837 454.945 89.5837H450.961V93.2317ZM450.961 87.8797H454.513C454.849 87.8797 455.145 87.7997 455.401 87.6397C455.657 87.4637 455.857 87.2317 456.001 86.9437C456.145 86.6557 456.217 86.3517 456.217 86.0317C456.217 85.5677 456.065 85.1677 455.761 84.8317C455.457 84.4957 455.057 84.3277 454.561 84.3277H450.961V87.8797ZM467.465 95.2957C466.489 95.2957 465.601 95.1277 464.801 94.7917C464.017 94.4397 463.337 93.9597 462.761 93.3517C462.185 92.7437 461.737 92.0477 461.417 91.2637C461.113 90.4797 460.961 89.6477 460.961 88.7677C460.961 87.5837 461.225 86.5037 461.753 85.5277C462.297 84.5517 463.049 83.7677 464.009 83.1757C464.985 82.5837 466.137 82.2877 467.465 82.2877C468.745 82.2877 469.857 82.5757 470.801 83.1517C471.761 83.7117 472.465 84.4637 472.913 85.4077L470.345 86.2237C470.057 85.6957 469.649 85.2877 469.121 84.9997C468.609 84.6957 468.041 84.5437 467.417 84.5437C466.713 84.5437 466.073 84.7277 465.497 85.0957C464.937 85.4477 464.489 85.9437 464.153 86.5837C463.833 87.2077 463.673 87.9357 463.673 88.7677C463.673 89.5677 463.841 90.2957 464.177 90.9517C464.513 91.5917 464.961 92.1037 465.521 92.4877C466.097 92.8557 466.737 93.0397 467.441 93.0397C467.873 93.0397 468.289 92.9677 468.689 92.8237C469.105 92.6637 469.465 92.4557 469.769 92.1997C470.073 91.9277 470.289 91.6317 470.417 91.3117L473.009 92.0797C472.737 92.7037 472.329 93.2557 471.785 93.7357C471.257 94.2157 470.625 94.5997 469.889 94.8877C469.169 95.1597 468.361 95.2957 467.465 95.2957ZM480.754 95.2957C479.778 95.2957 478.89 95.1277 478.09 94.7917C477.306 94.4397 476.626 93.9677 476.05 93.3757C475.474 92.7677 475.026 92.0797 474.706 91.3117C474.402 90.5277 474.25 89.6957 474.25 88.8157C474.25 87.6317 474.522 86.5517 475.066 85.5757C475.61 84.5837 476.37 83.7917 477.346 83.1997C478.322 82.5917 479.466 82.2877 480.778 82.2877C482.09 82.2877 483.218 82.5917 484.162 83.1997C485.122 83.7917 485.866 84.5757 486.394 85.5517C486.922 86.5277 487.186 87.5757 487.186 88.6957C487.186 88.8877 487.178 89.0717 487.162 89.2477C487.146 89.4077 487.13 89.5437 487.114 89.6557H477.058C477.106 90.3917 477.306 91.0397 477.658 91.5997C478.026 92.1437 478.49 92.5757 479.05 92.8957C479.61 93.1997 480.21 93.3517 480.85 93.3517C481.554 93.3517 482.218 93.1757 482.842 92.8237C483.482 92.4717 483.914 92.0077 484.138 91.4317L486.394 92.0797C486.122 92.6877 485.706 93.2397 485.146 93.7357C484.602 94.2157 483.954 94.5997 483.202 94.8877C482.45 95.1597 481.634 95.2957 480.754 95.2957ZM476.986 87.9037H484.57C484.522 87.1837 484.314 86.5517 483.946 86.0077C483.594 85.4477 483.138 85.0157 482.578 84.7117C482.034 84.3917 481.426 84.2317 480.754 84.2317C480.098 84.2317 479.49 84.3917 478.93 84.7117C478.386 85.0157 477.938 85.4477 477.586 86.0077C477.234 86.5517 477.034 87.1837 476.986 87.9037ZM38.7689 131.296C37.7769 131.296 36.8889 131.128 36.1049 130.792C35.3209 130.44 34.6409 129.96 34.0649 129.352C33.5049 128.744 33.0729 128.056 32.7689 127.288C32.4649 126.504 32.3129 125.672 32.3129 124.792C32.3129 123.912 32.4649 123.08 32.7689 122.296C33.0729 121.512 33.5049 120.824 34.0649 120.232C34.6409 119.624 35.3209 119.152 36.1049 118.816C36.9049 118.464 37.7929 118.288 38.7689 118.288C39.7449 118.288 40.6249 118.464 41.4089 118.816C42.2089 119.152 42.8889 119.624 43.4489 120.232C44.0249 120.824 44.4649 121.512 44.7689 122.296C45.0729 123.08 45.2249 123.912 45.2249 124.792C45.2249 125.672 45.0729 126.504 44.7689 127.288C44.4649 128.056 44.0249 128.744 43.4489 129.352C42.8889 129.96 42.2089 130.44 41.4089 130.792C40.6249 131.128 39.7449 131.296 38.7689 131.296ZM35.0249 124.816C35.0249 125.616 35.1929 126.336 35.5289 126.976C35.8649 127.616 36.3129 128.12 36.8729 128.488C37.4329 128.856 38.0649 129.04 38.7689 129.04C39.4569 129.04 40.0809 128.856 40.6409 128.488C41.2169 128.104 41.6729 127.592 42.0089 126.952C42.3449 126.296 42.5129 125.576 42.5129 124.792C42.5129 123.992 42.3449 123.272 42.0089 122.632C41.6729 121.992 41.2169 121.488 40.6409 121.12C40.0809 120.736 39.4569 120.544 38.7689 120.544C38.0649 120.544 37.4329 120.736 36.8729 121.12C36.3129 121.504 35.8649 122.016 35.5289 122.656C35.1929 123.28 35.0249 124 35.0249 124.816ZM56.4721 131.056V120.832H52.3201V118.504H63.2881V120.832H59.1121V131.056H56.4721ZM70.9017 131.296C69.9097 131.296 69.0217 131.128 68.2377 130.792C67.4537 130.44 66.7737 129.96 66.1977 129.352C65.6377 128.744 65.2057 128.056 64.9017 127.288C64.5977 126.504 64.4457 125.672 64.4457 124.792C64.4457 123.912 64.5977 123.08 64.9017 122.296C65.2057 121.512 65.6377 120.824 66.1977 120.232C66.7737 119.624 67.4537 119.152 68.2377 118.816C69.0377 118.464 69.9257 118.288 70.9017 118.288C71.8777 118.288 72.7577 118.464 73.5417 118.816C74.3417 119.152 75.0217 119.624 75.5817 120.232C76.1577 120.824 76.5977 121.512 76.9017 122.296C77.2057 123.08 77.3577 123.912 77.3577 124.792C77.3577 125.672 77.2057 126.504 76.9017 127.288C76.5977 128.056 76.1577 128.744 75.5817 129.352C75.0217 129.96 74.3417 130.44 73.5417 130.792C72.7577 131.128 71.8777 131.296 70.9017 131.296ZM67.1577 124.816C67.1577 125.616 67.3257 126.336 67.6617 126.976C67.9977 127.616 68.4457 128.12 69.0057 128.488C69.5657 128.856 70.1977 129.04 70.9017 129.04C71.5897 129.04 72.2137 128.856 72.7737 128.488C73.3497 128.104 73.8057 127.592 74.1417 126.952C74.4777 126.296 74.6457 125.576 74.6457 124.792C74.6457 123.992 74.4777 123.272 74.1417 122.632C73.8057 121.992 73.3497 121.488 72.7737 121.12C72.2137 120.736 71.5897 120.544 70.9017 120.544C70.1977 120.544 69.5657 120.736 69.0057 121.12C68.4457 121.504 67.9977 122.016 67.6617 122.656C67.3257 123.28 67.1577 124 67.1577 124.816ZM79.6992 131.056V118.504H82.4352L86.7552 126.256L91.0992 118.504H93.7872V131.056H91.2672V122.224L87.5712 128.824H85.9152L82.1952 122.224V131.056H79.6992ZM97.1172 133.384L97.6932 130.912H96.8292V127.984H99.2052V130.912L98.3652 133.384H97.1172ZM113.864 131.296C112.888 131.296 112 131.128 111.2 130.792C110.416 130.44 109.736 129.96 109.16 129.352C108.584 128.744 108.136 128.048 107.816 127.264C107.512 126.48 107.36 125.648 107.36 124.768C107.36 123.584 107.624 122.504 108.152 121.528C108.696 120.552 109.448 119.768 110.408 119.176C111.384 118.584 112.536 118.288 113.864 118.288C115.144 118.288 116.256 118.576 117.2 119.152C118.16 119.712 118.864 120.464 119.312 121.408L116.744 122.224C116.456 121.696 116.048 121.288 115.52 121C115.008 120.696 114.44 120.544 113.816 120.544C113.112 120.544 112.472 120.728 111.896 121.096C111.336 121.448 110.888 121.944 110.552 122.584C110.232 123.208 110.072 123.936 110.072 124.768C110.072 125.568 110.24 126.296 110.576 126.952C110.912 127.592 111.36 128.104 111.92 128.488C112.496 128.856 113.136 129.04 113.84 129.04C114.272 129.04 114.688 128.968 115.088 128.824C115.504 128.664 115.864 128.456 116.168 128.2C116.472 127.928 116.688 127.632 116.816 127.312L119.408 128.08C119.136 128.704 118.728 129.256 118.184 129.736C117.656 130.216 117.024 130.6 116.288 130.888C115.568 131.16 114.76 131.296 113.864 131.296ZM134.568 131.056V126.28C134.088 126.504 133.592 126.672 133.08 126.784C132.568 126.88 131.992 126.928 131.352 126.928C130.008 126.928 128.968 126.576 128.232 125.872C127.512 125.152 127.152 124.088 127.152 122.68V118.504H129.792V122.344C129.792 123.224 129.976 123.872 130.344 124.288C130.712 124.688 131.304 124.888 132.12 124.888C132.568 124.888 133.016 124.84 133.464 124.744C133.912 124.648 134.28 124.52 134.568 124.36V118.504H137.232V131.056H134.568ZM146.114 131.296C145.138 131.296 144.25 131.128 143.45 130.792C142.666 130.44 141.986 129.968 141.41 129.376C140.834 128.768 140.386 128.08 140.066 127.312C139.762 126.528 139.61 125.696 139.61 124.816C139.61 123.632 139.882 122.552 140.426 121.576C140.97 120.584 141.73 119.792 142.706 119.2C143.682 118.592 144.826 118.288 146.138 118.288C147.45 118.288 148.578 118.592 149.522 119.2C150.482 119.792 151.226 120.576 151.754 121.552C152.282 122.528 152.546 123.576 152.546 124.696C152.546 124.888 152.538 125.072 152.522 125.248C152.506 125.408 152.49 125.544 152.474 125.656H142.418C142.466 126.392 142.666 127.04 143.018 127.6C143.386 128.144 143.85 128.576 144.41 128.896C144.97 129.2 145.57 129.352 146.21 129.352C146.914 129.352 147.578 129.176 148.202 128.824C148.842 128.472 149.274 128.008 149.498 127.432L151.754 128.08C151.482 128.688 151.066 129.24 150.506 129.736C149.962 130.216 149.314 130.6 148.562 130.888C147.81 131.16 146.994 131.296 146.114 131.296ZM142.346 123.904H149.93C149.882 123.184 149.674 122.552 149.306 122.008C148.954 121.448 148.498 121.016 147.938 120.712C147.394 120.392 146.786 120.232 146.114 120.232C145.458 120.232 144.85 120.392 144.29 120.712C143.746 121.016 143.298 121.448 142.946 122.008C142.594 122.552 142.394 123.184 142.346 123.904ZM154.699 131.056V118.504H157.435L161.755 126.256L166.099 118.504H168.787V131.056H166.267V122.224L162.571 128.824H160.915L157.195 122.224V131.056H154.699ZM177.879 131.056V118.504H188.679V131.056H186.039V120.832H180.519V131.056H177.879ZM198.999 131.296C197.991 131.296 197.103 131.056 196.335 130.576C195.567 130.096 194.959 129.472 194.511 128.704V136.168H191.871V118.504H194.199V120.76C194.679 120.008 195.303 119.408 196.071 118.96C196.839 118.512 197.695 118.288 198.639 118.288C199.503 118.288 200.295 118.464 201.015 118.816C201.735 119.152 202.359 119.624 202.887 120.232C203.415 120.84 203.823 121.536 204.111 122.32C204.415 123.088 204.567 123.904 204.567 124.768C204.567 125.968 204.327 127.064 203.847 128.056C203.383 129.048 202.727 129.84 201.879 130.432C201.047 131.008 200.087 131.296 198.999 131.296ZM198.135 129.04C198.695 129.04 199.199 128.92 199.647 128.68C200.111 128.44 200.503 128.12 200.823 127.72C201.159 127.32 201.415 126.864 201.591 126.352C201.767 125.84 201.855 125.312 201.855 124.768C201.855 124.192 201.759 123.648 201.567 123.136C201.375 122.624 201.095 122.176 200.727 121.792C200.375 121.408 199.959 121.104 199.479 120.88C199.015 120.656 198.503 120.544 197.943 120.544C197.607 120.544 197.255 120.608 196.887 120.736C196.519 120.864 196.175 121.04 195.855 121.264C195.535 121.488 195.255 121.752 195.015 122.056C194.775 122.36 194.607 122.68 194.511 123.016V126.304C194.735 126.816 195.031 127.28 195.399 127.696C195.767 128.096 196.191 128.424 196.671 128.68C197.151 128.92 197.639 129.04 198.135 129.04ZM212.629 131.296C211.653 131.296 210.765 131.128 209.965 130.792C209.181 130.44 208.501 129.968 207.925 129.376C207.349 128.768 206.901 128.08 206.581 127.312C206.277 126.528 206.125 125.696 206.125 124.816C206.125 123.632 206.397 122.552 206.941 121.576C207.485 120.584 208.245 119.792 209.221 119.2C210.197 118.592 211.341 118.288 212.653 118.288C213.965 118.288 215.093 118.592 216.037 119.2C216.997 119.792 217.741 120.576 218.269 121.552C218.797 122.528 219.061 123.576 219.061 124.696C219.061 124.888 219.053 125.072 219.037 125.248C219.021 125.408 219.005 125.544 218.989 125.656H208.933C208.981 126.392 209.181 127.04 209.533 127.6C209.901 128.144 210.365 128.576 210.925 128.896C211.485 129.2 212.085 129.352 212.725 129.352C213.429 129.352 214.093 129.176 214.717 128.824C215.357 128.472 215.789 128.008 216.013 127.432L218.269 128.08C217.997 128.688 217.581 129.24 217.021 129.736C216.477 130.216 215.829 130.6 215.077 130.888C214.325 131.16 213.509 131.296 212.629 131.296ZM208.861 123.904H216.445C216.397 123.184 216.189 122.552 215.821 122.008C215.469 121.448 215.013 121.016 214.453 120.712C213.909 120.392 213.301 120.232 212.629 120.232C211.973 120.232 211.365 120.392 210.805 120.712C210.261 121.016 209.813 121.448 209.461 122.008C209.109 122.552 208.909 123.184 208.861 123.904ZM220.015 134.056V128.728H220.303C220.639 128.728 220.951 128.632 221.239 128.44C221.527 128.248 221.783 127.92 222.007 127.456C222.231 126.976 222.415 126.32 222.559 125.488C222.703 124.64 222.791 123.576 222.823 122.296L222.967 118.504H231.919V128.728H233.647V134.056H231.319V131.056H222.319V134.056H220.015ZM223.783 128.728H229.279V120.784H225.295L225.223 122.536C225.175 123.752 225.087 124.776 224.959 125.608C224.847 126.44 224.687 127.104 224.479 127.6C224.287 128.096 224.055 128.472 223.783 128.728ZM241.575 131.296C240.599 131.296 239.711 131.128 238.911 130.792C238.127 130.44 237.447 129.96 236.871 129.352C236.295 128.744 235.847 128.048 235.527 127.264C235.223 126.48 235.071 125.648 235.071 124.768C235.071 123.584 235.335 122.504 235.863 121.528C236.407 120.552 237.159 119.768 238.119 119.176C239.095 118.584 240.247 118.288 241.575 118.288C242.855 118.288 243.967 118.576 244.911 119.152C245.871 119.712 246.575 120.464 247.023 121.408L244.455 122.224C244.167 121.696 243.759 121.288 243.231 121C242.719 120.696 242.151 120.544 241.527 120.544C240.823 120.544 240.183 120.728 239.607 121.096C239.047 121.448 238.599 121.944 238.263 122.584C237.943 123.208 237.783 123.936 237.783 124.768C237.783 125.568 237.951 126.296 238.287 126.952C238.623 127.592 239.071 128.104 239.631 128.488C240.207 128.856 240.847 129.04 241.551 129.04C241.983 129.04 242.399 128.968 242.799 128.824C243.215 128.664 243.575 128.456 243.879 128.2C244.183 127.928 244.399 127.632 244.527 127.312L247.119 128.08C246.847 128.704 246.439 129.256 245.895 129.736C245.367 130.216 244.735 130.6 243.999 130.888C243.279 131.16 242.471 131.296 241.575 131.296ZM252.269 131.056V120.832H248.117V118.504H259.085V120.832H254.909V131.056H252.269ZM266.699 131.296C265.707 131.296 264.819 131.128 264.035 130.792C263.251 130.44 262.571 129.96 261.995 129.352C261.435 128.744 261.003 128.056 260.699 127.288C260.395 126.504 260.243 125.672 260.243 124.792C260.243 123.912 260.395 123.08 260.699 122.296C261.003 121.512 261.435 120.824 261.995 120.232C262.571 119.624 263.251 119.152 264.035 118.816C264.835 118.464 265.723 118.288 266.699 118.288C267.675 118.288 268.555 118.464 269.339 118.816C270.139 119.152 270.819 119.624 271.379 120.232C271.955 120.824 272.395 121.512 272.699 122.296C273.003 123.08 273.155 123.912 273.155 124.792C273.155 125.672 273.003 126.504 272.699 127.288C272.395 128.056 271.955 128.744 271.379 129.352C270.819 129.96 270.139 130.44 269.339 130.792C268.555 131.128 267.675 131.296 266.699 131.296ZM262.955 124.816C262.955 125.616 263.123 126.336 263.459 126.976C263.795 127.616 264.243 128.12 264.803 128.488C265.363 128.856 265.995 129.04 266.699 129.04C267.387 129.04 268.011 128.856 268.571 128.488C269.147 128.104 269.603 127.592 269.939 126.952C270.275 126.296 270.443 125.576 270.443 124.792C270.443 123.992 270.275 123.272 269.939 122.632C269.603 121.992 269.147 121.488 268.571 121.12C268.011 120.736 267.387 120.544 266.699 120.544C265.995 120.544 265.363 120.736 264.803 121.12C264.243 121.504 263.795 122.016 263.459 122.656C263.123 123.28 262.955 124 262.955 124.816ZM275.496 131.056V118.528H278.136V127.528L284.496 118.504H286.896V131.056H284.256V122.248L277.968 131.056H275.496ZM293.027 131.056V120.832H288.875V118.504H299.843V120.832H295.667V131.056H293.027ZM314.874 131.296C313.866 131.296 312.978 131.056 312.21 130.576C311.442 130.096 310.834 129.472 310.386 128.704V136.168H307.746V118.504H310.074V120.76C310.554 120.008 311.178 119.408 311.946 118.96C312.714 118.512 313.57 118.288 314.514 118.288C315.378 118.288 316.17 118.464 316.89 118.816C317.61 119.152 318.234 119.624 318.762 120.232C319.29 120.84 319.698 121.536 319.986 122.32C320.29 123.088 320.442 123.904 320.442 124.768C320.442 125.968 320.202 127.064 319.722 128.056C319.258 129.048 318.602 129.84 317.754 130.432C316.922 131.008 315.962 131.296 314.874 131.296ZM314.01 129.04C314.57 129.04 315.074 128.92 315.522 128.68C315.986 128.44 316.378 128.12 316.698 127.72C317.034 127.32 317.29 126.864 317.466 126.352C317.642 125.84 317.73 125.312 317.73 124.768C317.73 124.192 317.634 123.648 317.442 123.136C317.25 122.624 316.97 122.176 316.602 121.792C316.25 121.408 315.834 121.104 315.354 120.88C314.89 120.656 314.378 120.544 313.818 120.544C313.482 120.544 313.13 120.608 312.762 120.736C312.394 120.864 312.05 121.04 311.73 121.264C311.41 121.488 311.13 121.752 310.89 122.056C310.65 122.36 310.482 122.68 310.386 123.016V126.304C310.61 126.816 310.906 127.28 311.274 127.696C311.642 128.096 312.066 128.424 312.546 128.68C313.026 128.92 313.514 129.04 314.01 129.04ZM321.904 127.384C321.904 126.584 322.128 125.888 322.576 125.296C323.04 124.688 323.672 124.224 324.472 123.904C325.272 123.568 326.2 123.4 327.256 123.4C327.816 123.4 328.384 123.44 328.96 123.52C329.552 123.6 330.072 123.728 330.52 123.904V123.112C330.52 122.232 330.256 121.544 329.728 121.048C329.2 120.552 328.44 120.304 327.448 120.304C326.744 120.304 326.08 120.432 325.456 120.688C324.832 120.928 324.168 121.272 323.464 121.72L322.576 119.944C323.408 119.384 324.24 118.968 325.072 118.696C325.92 118.424 326.808 118.288 327.736 118.288C329.416 118.288 330.736 118.736 331.696 119.632C332.672 120.512 333.16 121.768 333.16 123.4V128.08C333.16 128.384 333.208 128.6 333.304 128.728C333.416 128.856 333.6 128.928 333.856 128.944V131.056C333.616 131.104 333.4 131.136 333.208 131.152C333.016 131.168 332.856 131.176 332.728 131.176C332.168 131.176 331.744 131.04 331.456 130.768C331.168 130.496 331 130.176 330.952 129.808L330.88 129.088C330.336 129.792 329.64 130.336 328.792 130.72C327.944 131.104 327.088 131.296 326.224 131.296C325.392 131.296 324.648 131.128 323.992 130.792C323.336 130.44 322.824 129.968 322.456 129.376C322.088 128.784 321.904 128.12 321.904 127.384ZM329.896 128.152C330.088 127.944 330.24 127.736 330.352 127.528C330.464 127.32 330.52 127.136 330.52 126.976V125.536C330.072 125.36 329.6 125.232 329.104 125.152C328.608 125.056 328.12 125.008 327.64 125.008C326.68 125.008 325.896 125.2 325.288 125.584C324.696 125.968 324.4 126.496 324.4 127.168C324.4 127.536 324.496 127.888 324.688 128.224C324.896 128.56 325.184 128.832 325.552 129.04C325.936 129.248 326.408 129.352 326.968 129.352C327.544 129.352 328.096 129.24 328.624 129.016C329.152 128.792 329.576 128.504 329.896 128.152ZM342.435 131.296C340.339 131.296 338.747 130.664 337.659 129.4C336.571 128.136 336.027 126.328 336.027 123.976C336.027 122.44 336.155 121.144 336.411 120.088C336.683 119.016 337.075 118.136 337.587 117.448C338.115 116.76 338.763 116.2 339.531 115.768C340.315 115.32 341.219 114.96 342.243 114.688L347.595 113.2L347.691 115.408L342.435 116.896C341.603 117.152 340.891 117.488 340.299 117.904C339.723 118.32 339.267 118.864 338.931 119.536C338.595 120.192 338.371 121.024 338.259 122.032C338.707 121.216 339.347 120.576 340.179 120.112C341.011 119.648 341.995 119.416 343.131 119.416C344.299 119.416 345.307 119.664 346.155 120.16C347.003 120.64 347.659 121.312 348.123 122.176C348.587 123.04 348.819 124.032 348.819 125.152C348.819 126.368 348.571 127.44 348.075 128.368C347.595 129.28 346.875 130 345.915 130.528C344.971 131.04 343.811 131.296 342.435 131.296ZM342.435 129.04C343.603 129.04 344.507 128.696 345.147 128.008C345.803 127.32 346.131 126.408 346.131 125.272C346.131 124.184 345.803 123.296 345.147 122.608C344.507 121.904 343.603 121.552 342.435 121.552C341.747 121.552 341.123 121.704 340.563 122.008C340.003 122.296 339.563 122.72 339.243 123.28C338.923 123.824 338.763 124.488 338.763 125.272C338.763 126.008 338.907 126.664 339.195 127.24C339.483 127.8 339.899 128.24 340.443 128.56C340.987 128.88 341.651 129.04 342.435 129.04ZM356.839 131.296C355.847 131.296 354.959 131.128 354.175 130.792C353.391 130.44 352.711 129.96 352.135 129.352C351.575 128.744 351.143 128.056 350.839 127.288C350.535 126.504 350.383 125.672 350.383 124.792C350.383 123.912 350.535 123.08 350.839 122.296C351.143 121.512 351.575 120.824 352.135 120.232C352.711 119.624 353.391 119.152 354.175 118.816C354.975 118.464 355.863 118.288 356.839 118.288C357.815 118.288 358.695 118.464 359.479 118.816C360.279 119.152 360.959 119.624 361.519 120.232C362.095 120.824 362.535 121.512 362.839 122.296C363.143 123.08 363.295 123.912 363.295 124.792C363.295 125.672 363.143 126.504 362.839 127.288C362.535 128.056 362.095 128.744 361.519 129.352C360.959 129.96 360.279 130.44 359.479 130.792C358.695 131.128 357.815 131.296 356.839 131.296ZM353.095 124.816C353.095 125.616 353.263 126.336 353.599 126.976C353.935 127.616 354.383 128.12 354.943 128.488C355.503 128.856 356.135 129.04 356.839 129.04C357.527 129.04 358.151 128.856 358.711 128.488C359.287 128.104 359.743 127.592 360.079 126.952C360.415 126.296 360.583 125.576 360.583 124.792C360.583 123.992 360.415 123.272 360.079 122.632C359.743 121.992 359.287 121.488 358.711 121.12C358.151 120.736 357.527 120.544 356.839 120.544C356.135 120.544 355.503 120.736 354.943 121.12C354.383 121.504 353.935 122.016 353.599 122.656C353.263 123.28 353.095 124 353.095 124.816ZM368.613 131.056V120.832H364.461V118.504H375.429V120.832H371.253V131.056H368.613ZM376.467 127.384C376.467 126.584 376.691 125.888 377.139 125.296C377.603 124.688 378.235 124.224 379.035 123.904C379.835 123.568 380.763 123.4 381.819 123.4C382.379 123.4 382.947 123.44 383.523 123.52C384.115 123.6 384.635 123.728 385.083 123.904V123.112C385.083 122.232 384.819 121.544 384.291 121.048C383.763 120.552 383.003 120.304 382.011 120.304C381.307 120.304 380.643 120.432 380.019 120.688C379.395 120.928 378.731 121.272 378.027 121.72L377.139 119.944C377.971 119.384 378.803 118.968 379.635 118.696C380.483 118.424 381.371 118.288 382.299 118.288C383.979 118.288 385.299 118.736 386.259 119.632C387.235 120.512 387.723 121.768 387.723 123.4V128.08C387.723 128.384 387.771 128.6 387.867 128.728C387.979 128.856 388.163 128.928 388.419 128.944V131.056C388.179 131.104 387.963 131.136 387.771 131.152C387.579 131.168 387.419 131.176 387.291 131.176C386.731 131.176 386.307 131.04 386.019 130.768C385.731 130.496 385.563 130.176 385.515 129.808L385.443 129.088C384.899 129.792 384.203 130.336 383.355 130.72C382.507 131.104 381.651 131.296 380.787 131.296C379.955 131.296 379.211 131.128 378.555 130.792C377.899 130.44 377.387 129.968 377.019 129.376C376.651 128.784 376.467 128.12 376.467 127.384ZM384.459 128.152C384.651 127.944 384.803 127.736 384.915 127.528C385.027 127.32 385.083 127.136 385.083 126.976V125.536C384.635 125.36 384.163 125.232 383.667 125.152C383.171 125.056 382.683 125.008 382.203 125.008C381.243 125.008 380.459 125.2 379.851 125.584C379.259 125.968 378.963 126.496 378.963 127.168C378.963 127.536 379.059 127.888 379.251 128.224C379.459 128.56 379.747 128.832 380.115 129.04C380.499 129.248 380.971 129.352 381.531 129.352C382.107 129.352 382.659 129.24 383.187 129.016C383.715 128.792 384.139 128.504 384.459 128.152ZM393.761 131.056V120.832H389.609V118.504H400.577V120.832H396.401V131.056H393.761ZM402.551 131.056V118.504H405.191V122.632H408.191C409.679 122.632 410.807 123.008 411.575 123.76C412.359 124.512 412.751 125.504 412.751 126.736C412.751 127.568 412.583 128.312 412.247 128.968C411.911 129.624 411.415 130.136 410.759 130.504C410.119 130.872 409.319 131.056 408.359 131.056H402.551ZM405.191 129.016H407.951C408.479 129.016 408.903 128.92 409.223 128.728C409.543 128.52 409.783 128.248 409.943 127.912C410.103 127.56 410.183 127.184 410.183 126.784C410.183 126.384 410.111 126.024 409.967 125.704C409.823 125.368 409.583 125.104 409.247 124.912C408.927 124.704 408.487 124.6 407.927 124.6H405.191V129.016Z" fill="white"/>
</svg>
