<svg width="559" height="212" viewBox="0 0 559 212" fill="none" xmlns="http://www.w3.org/2000/svg">
<path fill-rule="evenodd" clip-rule="evenodd" d="M20.9648 0.5625C9.91915 0.5625 0.964844 9.51678 0.964844 20.5625V153.216C0.964844 164.261 9.91914 173.216 20.9648 173.216H398.23L462.515 211.773V173.216H538.465C549.511 173.216 558.465 164.261 558.465 153.216V20.5625C558.465 9.51681 549.511 0.5625 538.465 0.5625H20.9648Z" fill="#7A0923"/>
<path d="M31.9893 62.5277V56.8877H32.8053C33.2533 56.8877 33.6373 56.7117 33.9573 56.3597C34.2933 56.0077 34.5733 55.4477 34.7973 54.6797C35.0373 53.9117 35.2213 52.9037 35.3493 51.6557C35.4933 50.3917 35.5973 48.8477 35.6613 47.0237L35.7813 42.2237H46.7493V56.8877H48.9093V62.5277H46.5333V59.2637H34.3653V62.5277H31.9893ZM36.2133 56.8877H44.0373V44.5997H38.2773L38.2053 47.3837C38.1573 49.2237 38.0613 50.7837 37.9173 52.0637C37.7733 53.3277 37.5653 54.3517 37.2933 55.1357C37.0213 55.9197 36.6613 56.5037 36.2133 56.8877ZM50.4083 55.5917C50.4083 54.7917 50.6323 54.0957 51.0803 53.5037C51.5443 52.8957 52.1763 52.4317 52.9763 52.1117C53.7763 51.7757 54.7043 51.6077 55.7603 51.6077C56.3203 51.6077 56.8883 51.6477 57.4643 51.7277C58.0563 51.8077 58.5763 51.9357 59.0243 52.1117V51.3197C59.0243 50.4397 58.7603 49.7517 58.2323 49.2557C57.7043 48.7597 56.9443 48.5117 55.9523 48.5117C55.2483 48.5117 54.5843 48.6397 53.9603 48.8957C53.3363 49.1357 52.6723 49.4797 51.9683 49.9277L51.0803 48.1517C51.9123 47.5917 52.7443 47.1757 53.5763 46.9037C54.4243 46.6317 55.3123 46.4957 56.2403 46.4957C57.9203 46.4957 59.2403 46.9437 60.2003 47.8397C61.1763 48.7197 61.6643 49.9757 61.6643 51.6077V56.2877C61.6643 56.5917 61.7123 56.8077 61.8083 56.9357C61.9203 57.0637 62.1043 57.1357 62.3603 57.1517V59.2637C62.1203 59.3117 61.9043 59.3437 61.7123 59.3597C61.5203 59.3757 61.3603 59.3837 61.2323 59.3837C60.6723 59.3837 60.2483 59.2477 59.9603 58.9757C59.6723 58.7037 59.5043 58.3837 59.4563 58.0157L59.3843 57.2957C58.8403 57.9997 58.1443 58.5437 57.2963 58.9277C56.4483 59.3117 55.5923 59.5037 54.7283 59.5037C53.8963 59.5037 53.1523 59.3357 52.4963 58.9997C51.8403 58.6477 51.3283 58.1757 50.9603 57.5837C50.5923 56.9917 50.4083 56.3277 50.4083 55.5917ZM58.4003 56.3597C58.5923 56.1517 58.7443 55.9437 58.8563 55.7357C58.9683 55.5277 59.0243 55.3437 59.0243 55.1837V53.7437C58.5763 53.5677 58.1043 53.4397 57.6083 53.3597C57.1123 53.2637 56.6243 53.2157 56.1443 53.2157C55.1843 53.2157 54.4003 53.4077 53.7923 53.7917C53.2003 54.1757 52.9043 54.7037 52.9043 55.3757C52.9043 55.7437 53.0003 56.0957 53.1923 56.4317C53.4003 56.7677 53.6883 57.0397 54.0563 57.2477C54.4403 57.4557 54.9123 57.5597 55.4723 57.5597C56.0483 57.5597 56.6003 57.4477 57.1283 57.2237C57.6563 56.9997 58.0803 56.7117 58.4003 56.3597ZM64.8672 59.2637V46.7117H71.5872C72.3872 46.7117 73.0432 46.8637 73.5552 47.1677C74.0832 47.4557 74.4752 47.8317 74.7312 48.2957C74.9872 48.7437 75.1152 49.2397 75.1152 49.7837C75.1152 50.4717 74.9552 51.0797 74.6352 51.6077C74.3152 52.1357 73.8432 52.5357 73.2192 52.8077C73.9392 53.0157 74.5232 53.3837 74.9712 53.9117C75.4352 54.4237 75.6672 55.0877 75.6672 55.9037C75.6672 56.6397 75.4912 57.2637 75.1392 57.7757C74.7872 58.2717 74.2832 58.6477 73.6272 58.9037C72.9872 59.1437 72.2352 59.2637 71.3712 59.2637H64.8672ZM67.3632 57.4397H71.2992C71.6352 57.4397 71.9392 57.3597 72.2112 57.1997C72.4992 57.0237 72.7232 56.7997 72.8832 56.5277C73.0432 56.2397 73.1232 55.9357 73.1232 55.6157C73.1232 55.2637 73.0432 54.9517 72.8832 54.6797C72.7392 54.4077 72.5312 54.1917 72.2592 54.0317C72.0032 53.8717 71.6992 53.7917 71.3472 53.7917H67.3632V57.4397ZM67.3632 52.0877H70.9152C71.2512 52.0877 71.5472 52.0077 71.8032 51.8477C72.0592 51.6717 72.2592 51.4397 72.4032 51.1517C72.5472 50.8637 72.6192 50.5597 72.6192 50.2397C72.6192 49.7757 72.4672 49.3757 72.1632 49.0397C71.8592 48.7037 71.4592 48.5357 70.9632 48.5357H67.3632V52.0877ZM77.2677 55.5917C77.2677 54.7917 77.4917 54.0957 77.9397 53.5037C78.4037 52.8957 79.0357 52.4317 79.8357 52.1117C80.6357 51.7757 81.5637 51.6077 82.6197 51.6077C83.1797 51.6077 83.7477 51.6477 84.3237 51.7277C84.9157 51.8077 85.4357 51.9357 85.8837 52.1117V51.3197C85.8837 50.4397 85.6197 49.7517 85.0917 49.2557C84.5637 48.7597 83.8037 48.5117 82.8117 48.5117C82.1077 48.5117 81.4437 48.6397 80.8197 48.8957C80.1957 49.1357 79.5317 49.4797 78.8277 49.9277L77.9397 48.1517C78.7717 47.5917 79.6037 47.1757 80.4357 46.9037C81.2837 46.6317 82.1717 46.4957 83.0997 46.4957C84.7797 46.4957 86.0997 46.9437 87.0597 47.8397C88.0357 48.7197 88.5237 49.9757 88.5237 51.6077V56.2877C88.5237 56.5917 88.5717 56.8077 88.6677 56.9357C88.7797 57.0637 88.9637 57.1357 89.2197 57.1517V59.2637C88.9797 59.3117 88.7637 59.3437 88.5717 59.3597C88.3797 59.3757 88.2197 59.3837 88.0917 59.3837C87.5317 59.3837 87.1077 59.2477 86.8197 58.9757C86.5317 58.7037 86.3637 58.3837 86.3157 58.0157L86.2437 57.2957C85.6997 57.9997 85.0037 58.5437 84.1557 58.9277C83.3077 59.3117 82.4517 59.5037 81.5877 59.5037C80.7557 59.5037 80.0117 59.3357 79.3557 58.9997C78.6997 58.6477 78.1877 58.1757 77.8197 57.5837C77.4517 56.9917 77.2677 56.3277 77.2677 55.5917ZM85.2597 56.3597C85.4517 56.1517 85.6037 55.9437 85.7157 55.7357C85.8277 55.5277 85.8837 55.3437 85.8837 55.1837V53.7437C85.4357 53.5677 84.9637 53.4397 84.4677 53.3597C83.9717 53.2637 83.4837 53.2157 83.0037 53.2157C82.0437 53.2157 81.2597 53.4077 80.6517 53.7917C80.0597 54.1757 79.7637 54.7037 79.7637 55.3757C79.7637 55.7437 79.8597 56.0957 80.0517 56.4317C80.2597 56.7677 80.5477 57.0397 80.9157 57.2477C81.2997 57.4557 81.7717 57.5597 82.3317 57.5597C82.9077 57.5597 83.4597 57.4477 83.9877 57.2237C84.5157 56.9997 84.9397 56.7117 85.2597 56.3597ZM91.7266 59.2637V46.7357H94.3666V55.7357L100.727 46.7117H103.127V59.2637H100.487V50.4557L94.1986 59.2637H91.7266ZM97.4386 45.4157C96.2546 45.4157 95.3346 45.1197 94.6786 44.5277C94.0386 43.9357 93.7186 43.1917 93.7186 42.2957H95.4466C95.4466 42.7597 95.5986 43.1437 95.9026 43.4477C96.2226 43.7517 96.7346 43.9037 97.4386 43.9037C98.1266 43.9037 98.6146 43.7597 98.9026 43.4717C99.2066 43.1837 99.3906 42.7917 99.4546 42.2957H101.183C101.183 43.1917 100.855 43.9357 100.199 44.5277C99.5586 45.1197 98.6386 45.4157 97.4386 45.4157ZM109.257 59.2637V49.0397H105.105V46.7117H116.073V49.0397H111.897V59.2637H109.257ZM123.735 59.5037C122.759 59.5037 121.871 59.3357 121.071 58.9997C120.287 58.6477 119.607 58.1757 119.031 57.5837C118.455 56.9757 118.007 56.2877 117.687 55.5197C117.383 54.7357 117.231 53.9037 117.231 53.0237C117.231 51.8397 117.503 50.7597 118.047 49.7837C118.591 48.7917 119.351 47.9997 120.327 47.4077C121.303 46.7997 122.447 46.4957 123.759 46.4957C125.071 46.4957 126.199 46.7997 127.143 47.4077C128.103 47.9997 128.847 48.7837 129.375 49.7597C129.903 50.7357 130.167 51.7837 130.167 52.9037C130.167 53.0957 130.159 53.2797 130.143 53.4557C130.127 53.6157 130.111 53.7517 130.095 53.8637H120.039C120.087 54.5997 120.287 55.2477 120.639 55.8077C121.007 56.3517 121.471 56.7837 122.031 57.1037C122.591 57.4077 123.191 57.5597 123.831 57.5597C124.535 57.5597 125.199 57.3837 125.823 57.0317C126.463 56.6797 126.895 56.2157 127.119 55.6397L129.375 56.2877C129.103 56.8957 128.687 57.4477 128.127 57.9437C127.583 58.4237 126.935 58.8077 126.183 59.0957C125.431 59.3677 124.615 59.5037 123.735 59.5037ZM119.967 52.1117H127.551C127.503 51.3917 127.295 50.7597 126.927 50.2157C126.575 49.6557 126.119 49.2237 125.559 48.9197C125.015 48.5997 124.407 48.4397 123.735 48.4397C123.079 48.4397 122.471 48.5997 121.911 48.9197C121.367 49.2237 120.919 49.6557 120.567 50.2157C120.215 50.7597 120.015 51.3917 119.967 52.1117ZM138.25 59.2637V46.7117H149.05V59.2637H146.41V49.0397H140.89V59.2637H138.25ZM157.882 59.5037C156.89 59.5037 156.002 59.3357 155.218 58.9997C154.434 58.6477 153.754 58.1677 153.178 57.5597C152.618 56.9517 152.186 56.2637 151.882 55.4957C151.578 54.7117 151.426 53.8797 151.426 52.9997C151.426 52.1197 151.578 51.2877 151.882 50.5037C152.186 49.7197 152.618 49.0317 153.178 48.4397C153.754 47.8317 154.434 47.3597 155.218 47.0237C156.018 46.6717 156.906 46.4957 157.882 46.4957C158.858 46.4957 159.738 46.6717 160.522 47.0237C161.322 47.3597 162.002 47.8317 162.562 48.4397C163.138 49.0317 163.578 49.7197 163.882 50.5037C164.186 51.2877 164.338 52.1197 164.338 52.9997C164.338 53.8797 164.186 54.7117 163.882 55.4957C163.578 56.2637 163.138 56.9517 162.562 57.5597C162.002 58.1677 161.322 58.6477 160.522 58.9997C159.738 59.3357 158.858 59.5037 157.882 59.5037ZM154.138 53.0237C154.138 53.8237 154.306 54.5437 154.642 55.1837C154.978 55.8237 155.426 56.3277 155.986 56.6957C156.546 57.0637 157.178 57.2477 157.882 57.2477C158.57 57.2477 159.194 57.0637 159.754 56.6957C160.33 56.3117 160.786 55.7997 161.122 55.1597C161.458 54.5037 161.626 53.7837 161.626 52.9997C161.626 52.1997 161.458 51.4797 161.122 50.8397C160.786 50.1997 160.33 49.6957 159.754 49.3277C159.194 48.9437 158.57 48.7517 157.882 48.7517C157.178 48.7517 156.546 48.9437 155.986 49.3277C155.426 49.7117 154.978 50.2237 154.642 50.8637C154.306 51.4877 154.138 52.2077 154.138 53.0237ZM165.48 62.2637V56.9357H165.768C166.104 56.9357 166.416 56.8397 166.704 56.6477C166.992 56.4557 167.248 56.1277 167.472 55.6637C167.696 55.1837 167.88 54.5277 168.024 53.6957C168.168 52.8477 168.256 51.7837 168.288 50.5037L168.432 46.7117H177.384V56.9357H179.112V62.2637H176.784V59.2637H167.784V62.2637H165.48ZM169.248 56.9357H174.744V48.9917H170.76L170.688 50.7437C170.64 51.9597 170.552 52.9837 170.424 53.8157C170.312 54.6477 170.152 55.3117 169.944 55.8077C169.752 56.3037 169.52 56.6797 169.248 56.9357ZM187.424 59.5037C185.328 59.5037 183.736 58.8717 182.648 57.6077C181.56 56.3437 181.016 54.5357 181.016 52.1837C181.016 50.6477 181.144 49.3517 181.4 48.2957C181.672 47.2237 182.064 46.3437 182.576 45.6557C183.104 44.9677 183.752 44.4077 184.52 43.9757C185.304 43.5277 186.208 43.1677 187.232 42.8957L192.584 41.4077L192.68 43.6157L187.424 45.1037C186.592 45.3597 185.88 45.6957 185.288 46.1117C184.712 46.5277 184.256 47.0717 183.92 47.7437C183.584 48.3997 183.36 49.2317 183.248 50.2397C183.696 49.4237 184.336 48.7837 185.168 48.3197C186 47.8557 186.984 47.6237 188.12 47.6237C189.288 47.6237 190.296 47.8717 191.144 48.3677C191.992 48.8477 192.648 49.5197 193.112 50.3837C193.576 51.2477 193.808 52.2397 193.808 53.3597C193.808 54.5757 193.56 55.6477 193.064 56.5757C192.584 57.4877 191.864 58.2077 190.904 58.7357C189.96 59.2477 188.8 59.5037 187.424 59.5037ZM187.424 57.2477C188.592 57.2477 189.496 56.9037 190.136 56.2157C190.792 55.5277 191.12 54.6157 191.12 53.4797C191.12 52.3917 190.792 51.5037 190.136 50.8157C189.496 50.1117 188.592 49.7597 187.424 49.7597C186.736 49.7597 186.112 49.9117 185.552 50.2157C184.992 50.5037 184.552 50.9277 184.232 51.4877C183.912 52.0317 183.752 52.6957 183.752 53.4797C183.752 54.2157 183.896 54.8717 184.184 55.4477C184.472 56.0077 184.888 56.4477 185.432 56.7677C185.976 57.0877 186.64 57.2477 187.424 57.2477ZM201.876 59.5037C200.9 59.5037 200.012 59.3357 199.212 58.9997C198.428 58.6477 197.748 58.1757 197.172 57.5837C196.596 56.9757 196.148 56.2877 195.828 55.5197C195.524 54.7357 195.372 53.9037 195.372 53.0237C195.372 51.8397 195.644 50.7597 196.188 49.7837C196.732 48.7917 197.492 47.9997 198.468 47.4077C199.444 46.7997 200.588 46.4957 201.9 46.4957C203.212 46.4957 204.34 46.7997 205.284 47.4077C206.244 47.9997 206.988 48.7837 207.516 49.7597C208.044 50.7357 208.308 51.7837 208.308 52.9037C208.308 53.0957 208.3 53.2797 208.284 53.4557C208.268 53.6157 208.252 53.7517 208.236 53.8637H198.18C198.228 54.5997 198.428 55.2477 198.78 55.8077C199.148 56.3517 199.612 56.7837 200.172 57.1037C200.732 57.4077 201.332 57.5597 201.972 57.5597C202.676 57.5597 203.34 57.3837 203.964 57.0317C204.604 56.6797 205.036 56.2157 205.26 55.6397L207.516 56.2877C207.244 56.8957 206.828 57.4477 206.268 57.9437C205.724 58.4237 205.076 58.8077 204.324 59.0957C203.572 59.3677 202.756 59.5037 201.876 59.5037ZM198.108 52.1117H205.692C205.644 51.3917 205.436 50.7597 205.068 50.2157C204.716 49.6557 204.26 49.2237 203.7 48.9197C203.156 48.5997 202.548 48.4397 201.876 48.4397C201.22 48.4397 200.612 48.5997 200.052 48.9197C199.508 49.2237 199.06 49.6557 198.708 50.2157C198.356 50.7597 198.156 51.3917 198.108 52.1117ZM217.589 59.5037C216.581 59.5037 215.693 59.2637 214.925 58.7837C214.157 58.3037 213.549 57.6797 213.101 56.9117V64.3757H210.461V46.7117H212.789V48.9677C213.269 48.2157 213.893 47.6157 214.661 47.1677C215.429 46.7197 216.285 46.4957 217.229 46.4957C218.093 46.4957 218.885 46.6717 219.605 47.0237C220.325 47.3597 220.949 47.8317 221.477 48.4397C222.005 49.0477 222.413 49.7437 222.701 50.5277C223.005 51.2957 223.157 52.1117 223.157 52.9757C223.157 54.1757 222.917 55.2717 222.437 56.2637C221.973 57.2557 221.317 58.0477 220.469 58.6397C219.637 59.2157 218.677 59.5037 217.589 59.5037ZM216.725 57.2477C217.285 57.2477 217.789 57.1277 218.237 56.8877C218.701 56.6477 219.093 56.3277 219.413 55.9277C219.749 55.5277 220.005 55.0717 220.181 54.5597C220.357 54.0477 220.445 53.5197 220.445 52.9757C220.445 52.3997 220.349 51.8557 220.157 51.3437C219.965 50.8317 219.685 50.3837 219.317 49.9997C218.965 49.6157 218.549 49.3117 218.069 49.0877C217.605 48.8637 217.093 48.7517 216.533 48.7517C216.197 48.7517 215.845 48.8157 215.477 48.9437C215.109 49.0717 214.765 49.2477 214.445 49.4717C214.125 49.6957 213.845 49.9597 213.605 50.2637C213.365 50.5677 213.197 50.8877 213.101 51.2237V54.5117C213.325 55.0237 213.621 55.4877 213.989 55.9037C214.357 56.3037 214.781 56.6317 215.261 56.8877C215.741 57.1277 216.229 57.2477 216.725 57.2477ZM231.219 59.5037C230.243 59.5037 229.355 59.3357 228.555 58.9997C227.771 58.6477 227.091 58.1757 226.515 57.5837C225.939 56.9757 225.491 56.2877 225.171 55.5197C224.867 54.7357 224.715 53.9037 224.715 53.0237C224.715 51.8397 224.987 50.7597 225.531 49.7837C226.075 48.7917 226.835 47.9997 227.811 47.4077C228.787 46.7997 229.931 46.4957 231.243 46.4957C232.555 46.4957 233.683 46.7997 234.627 47.4077C235.587 47.9997 236.331 48.7837 236.859 49.7597C237.387 50.7357 237.651 51.7837 237.651 52.9037C237.651 53.0957 237.643 53.2797 237.627 53.4557C237.611 53.6157 237.595 53.7517 237.579 53.8637H227.523C227.571 54.5997 227.771 55.2477 228.123 55.8077C228.491 56.3517 228.955 56.7837 229.515 57.1037C230.075 57.4077 230.675 57.5597 231.315 57.5597C232.019 57.5597 232.683 57.3837 233.307 57.0317C233.947 56.6797 234.379 56.2157 234.603 55.6397L236.859 56.2877C236.587 56.8957 236.171 57.4477 235.611 57.9437C235.067 58.4237 234.419 58.8077 233.667 59.0957C232.915 59.3677 232.099 59.5037 231.219 59.5037ZM227.451 52.1117H235.035C234.987 51.3917 234.779 50.7597 234.411 50.2157C234.059 49.6557 233.603 49.2237 233.043 48.9197C232.499 48.5997 231.891 48.4397 231.219 48.4397C230.563 48.4397 229.955 48.5997 229.395 48.9197C228.851 49.2237 228.403 49.6557 228.051 50.2157C227.699 50.7597 227.499 51.3917 227.451 52.1117ZM239.805 59.2637V46.7117H242.541L246.861 54.4637L251.205 46.7117H253.893V59.2637H251.373V50.4317L247.677 57.0317H246.021L242.301 50.4317V59.2637H239.805ZM264.032 64.5917C263.744 64.5917 263.44 64.5517 263.12 64.4717C262.8 64.3917 262.464 64.2717 262.112 64.1117L262.784 62.1437C262.976 62.2397 263.16 62.3117 263.336 62.3597C263.512 62.4077 263.672 62.4317 263.816 62.4317C264.216 62.4317 264.576 62.2637 264.896 61.9277C265.232 61.6077 265.528 61.1197 265.784 60.4637L266.264 59.1677L260.96 46.7117H263.72L267.56 56.5757L270.968 46.7117H273.512L267.992 61.1837C267.72 61.9357 267.376 62.5597 266.96 63.0557C266.56 63.5517 266.112 63.9277 265.616 64.1837C265.12 64.4557 264.592 64.5917 264.032 64.5917ZM274.253 62.2637V56.9357H274.541C274.877 56.9357 275.189 56.8397 275.477 56.6477C275.765 56.4557 276.021 56.1277 276.245 55.6637C276.469 55.1837 276.653 54.5277 276.797 53.6957C276.941 52.8477 277.029 51.7837 277.061 50.5037L277.205 46.7117H286.157V56.9357H287.885V62.2637H285.557V59.2637H276.557V62.2637H274.253ZM278.021 56.9357H283.517V48.9917H279.533L279.461 50.7437C279.413 51.9597 279.325 52.9837 279.197 53.8157C279.085 54.6477 278.925 55.3117 278.717 55.8077C278.525 56.3037 278.293 56.6797 278.021 56.9357ZM295.765 59.5037C294.773 59.5037 293.885 59.3357 293.101 58.9997C292.317 58.6477 291.637 58.1677 291.061 57.5597C290.501 56.9517 290.069 56.2637 289.765 55.4957C289.461 54.7117 289.309 53.8797 289.309 52.9997C289.309 52.1197 289.461 51.2877 289.765 50.5037C290.069 49.7197 290.501 49.0317 291.061 48.4397C291.637 47.8317 292.317 47.3597 293.101 47.0237C293.901 46.6717 294.789 46.4957 295.765 46.4957C296.741 46.4957 297.621 46.6717 298.405 47.0237C299.205 47.3597 299.885 47.8317 300.445 48.4397C301.021 49.0317 301.461 49.7197 301.765 50.5037C302.069 51.2877 302.221 52.1197 302.221 52.9997C302.221 53.8797 302.069 54.7117 301.765 55.4957C301.461 56.2637 301.021 56.9517 300.445 57.5597C299.885 58.1677 299.205 58.6477 298.405 58.9997C297.621 59.3357 296.741 59.5037 295.765 59.5037ZM292.021 53.0237C292.021 53.8237 292.189 54.5437 292.525 55.1837C292.861 55.8237 293.309 56.3277 293.869 56.6957C294.429 57.0637 295.061 57.2477 295.765 57.2477C296.453 57.2477 297.077 57.0637 297.637 56.6957C298.213 56.3117 298.669 55.7997 299.005 55.1597C299.341 54.5037 299.509 53.7837 299.509 52.9997C299.509 52.1997 299.341 51.4797 299.005 50.8397C298.669 50.1997 298.213 49.6957 297.637 49.3277C297.077 48.9437 296.453 48.7517 295.765 48.7517C295.061 48.7517 294.429 48.9437 293.869 49.3277C293.309 49.7117 292.861 50.2237 292.525 50.8637C292.189 51.4877 292.021 52.2077 292.021 53.0237ZM310.635 59.5037C308.539 59.5037 306.947 58.8717 305.859 57.6077C304.771 56.3437 304.227 54.5357 304.227 52.1837C304.227 50.6477 304.355 49.3517 304.611 48.2957C304.883 47.2237 305.275 46.3437 305.787 45.6557C306.315 44.9677 306.963 44.4077 307.731 43.9757C308.515 43.5277 309.419 43.1677 310.443 42.8957L315.795 41.4077L315.891 43.6157L310.635 45.1037C309.803 45.3597 309.091 45.6957 308.499 46.1117C307.923 46.5277 307.467 47.0717 307.131 47.7437C306.795 48.3997 306.571 49.2317 306.459 50.2397C306.907 49.4237 307.547 48.7837 308.379 48.3197C309.211 47.8557 310.195 47.6237 311.331 47.6237C312.499 47.6237 313.507 47.8717 314.355 48.3677C315.203 48.8477 315.859 49.5197 316.323 50.3837C316.787 51.2477 317.019 52.2397 317.019 53.3597C317.019 54.5757 316.771 55.6477 316.275 56.5757C315.795 57.4877 315.075 58.2077 314.115 58.7357C313.171 59.2477 312.011 59.5037 310.635 59.5037ZM310.635 57.2477C311.803 57.2477 312.707 56.9037 313.347 56.2157C314.003 55.5277 314.331 54.6157 314.331 53.4797C314.331 52.3917 314.003 51.5037 313.347 50.8157C312.707 50.1117 311.803 49.7597 310.635 49.7597C309.947 49.7597 309.323 49.9117 308.763 50.2157C308.203 50.5037 307.763 50.9277 307.443 51.4877C307.123 52.0317 306.963 52.6957 306.963 53.4797C306.963 54.2157 307.107 54.8717 307.395 55.4477C307.683 56.0077 308.099 56.4477 308.643 56.7677C309.187 57.0877 309.851 57.2477 310.635 57.2477ZM319.398 59.2637V46.7117H322.038V51.7037H327.87V46.7117H330.51V59.2637H327.87V53.9837H322.038V59.2637H319.398ZM333.695 59.2637V46.7117H336.335V50.8397H338.711C340.199 50.8397 341.335 51.2157 342.119 51.9677C342.903 52.7197 343.295 53.7117 343.295 54.9437C343.295 55.7757 343.127 56.5197 342.791 57.1757C342.455 57.8317 341.959 58.3437 341.303 58.7117C340.663 59.0797 339.863 59.2637 338.903 59.2637H333.695ZM336.335 57.2237H338.495C339.023 57.2237 339.447 57.1277 339.767 56.9357C340.087 56.7277 340.319 56.4557 340.463 56.1197C340.623 55.7677 340.703 55.3917 340.703 54.9917C340.703 54.5917 340.631 54.2317 340.487 53.9117C340.343 53.5757 340.103 53.3117 339.767 53.1197C339.447 52.9117 339.015 52.8077 338.471 52.8077H336.335V57.2237ZM345.359 59.2637V46.7357H347.999V59.2637H345.359ZM351.18 59.2637V46.7357H353.82V55.7357L360.18 46.7117H362.58V59.2637H359.94V50.4557L353.652 59.2637H351.18ZM356.892 45.4157C355.708 45.4157 354.788 45.1197 354.132 44.5277C353.492 43.9357 353.172 43.1917 353.172 42.2957H354.9C354.9 42.7597 355.052 43.1437 355.356 43.4477C355.676 43.7517 356.188 43.9037 356.892 43.9037C357.58 43.9037 358.068 43.7597 358.356 43.4717C358.66 43.1837 358.844 42.7917 358.908 42.2957H360.636C360.636 43.1917 360.308 43.9357 359.652 44.5277C359.012 45.1197 358.092 45.4157 356.892 45.4157ZM370.464 62.2637V56.9357H370.752C371.088 56.9357 371.4 56.8397 371.688 56.6477C371.976 56.4557 372.232 56.1277 372.456 55.6637C372.68 55.1837 372.864 54.5277 373.008 53.6957C373.152 52.8477 373.24 51.7837 373.272 50.5037L373.416 46.7117H382.368V56.9357H384.096V62.2637H381.768V59.2637H372.768V62.2637H370.464ZM374.232 56.9357H379.728V48.9917H375.744L375.672 50.7437C375.624 51.9597 375.536 52.9837 375.408 53.8157C375.296 54.6477 375.136 55.3117 374.928 55.8077C374.736 56.3037 374.504 56.6797 374.232 56.9357ZM392.024 59.5037C391.048 59.5037 390.16 59.3357 389.36 58.9997C388.576 58.6477 387.896 58.1757 387.32 57.5837C386.744 56.9757 386.296 56.2877 385.976 55.5197C385.672 54.7357 385.52 53.9037 385.52 53.0237C385.52 51.8397 385.792 50.7597 386.336 49.7837C386.88 48.7917 387.64 47.9997 388.616 47.4077C389.592 46.7997 390.736 46.4957 392.048 46.4957C393.36 46.4957 394.488 46.7997 395.432 47.4077C396.392 47.9997 397.136 48.7837 397.664 49.7597C398.192 50.7357 398.456 51.7837 398.456 52.9037C398.456 53.0957 398.448 53.2797 398.432 53.4557C398.416 53.6157 398.4 53.7517 398.384 53.8637H388.328C388.376 54.5997 388.576 55.2477 388.928 55.8077C389.296 56.3517 389.76 56.7837 390.32 57.1037C390.88 57.4077 391.48 57.5597 392.12 57.5597C392.824 57.5597 393.488 57.3837 394.112 57.0317C394.752 56.6797 395.184 56.2157 395.408 55.6397L397.664 56.2877C397.392 56.8957 396.976 57.4477 396.416 57.9437C395.872 58.4237 395.224 58.8077 394.472 59.0957C393.72 59.3677 392.904 59.5037 392.024 59.5037ZM388.256 52.1117H395.84C395.792 51.3917 395.584 50.7597 395.216 50.2157C394.864 49.6557 394.408 49.2237 393.848 48.9197C393.304 48.5997 392.696 48.4397 392.024 48.4397C391.368 48.4397 390.76 48.5997 390.2 48.9197C389.656 49.2237 389.208 49.6557 388.856 50.2157C388.504 50.7597 388.304 51.3917 388.256 52.1117ZM400.609 59.2637V46.7117H403.249V51.7037H409.081V46.7117H411.721V59.2637H409.081V53.9837H403.249V59.2637H400.609ZM414.906 59.2637V46.7117H417.546V50.8397H420.546C422.034 50.8397 423.162 51.2157 423.93 51.9677C424.714 52.7197 425.106 53.7117 425.106 54.9437C425.106 55.7757 424.938 56.5197 424.602 57.1757C424.266 57.8317 423.77 58.3437 423.114 58.7117C422.474 59.0797 421.674 59.2637 420.714 59.2637H414.906ZM417.546 57.2237H420.306C420.834 57.2237 421.258 57.1277 421.578 56.9357C421.898 56.7277 422.138 56.4557 422.298 56.1197C422.458 55.7677 422.538 55.3917 422.538 54.9917C422.538 54.5917 422.466 54.2317 422.322 53.9117C422.178 53.5757 421.938 53.3117 421.602 53.1197C421.282 52.9117 420.842 52.8077 420.282 52.8077H417.546V57.2237ZM433.188 59.2637V46.7357H435.828V55.7357L442.188 46.7117H444.588V59.2637H441.948V50.4557L435.66 59.2637H433.188ZM453.672 59.2637V46.7117H460.392C461.192 46.7117 461.848 46.8637 462.36 47.1677C462.888 47.4557 463.28 47.8317 463.536 48.2957C463.792 48.7437 463.92 49.2397 463.92 49.7837C463.92 50.4717 463.76 51.0797 463.44 51.6077C463.12 52.1357 462.648 52.5357 462.024 52.8077C462.744 53.0157 463.328 53.3837 463.776 53.9117C464.24 54.4237 464.472 55.0877 464.472 55.9037C464.472 56.6397 464.296 57.2637 463.944 57.7757C463.592 58.2717 463.088 58.6477 462.432 58.9037C461.792 59.1437 461.04 59.2637 460.176 59.2637H453.672ZM456.168 57.4397H460.104C460.44 57.4397 460.744 57.3597 461.016 57.1997C461.304 57.0237 461.528 56.7997 461.688 56.5277C461.848 56.2397 461.928 55.9357 461.928 55.6157C461.928 55.2637 461.848 54.9517 461.688 54.6797C461.544 54.4077 461.336 54.1917 461.064 54.0317C460.808 53.8717 460.504 53.7917 460.152 53.7917H456.168V57.4397ZM456.168 52.0877H459.72C460.056 52.0877 460.352 52.0077 460.608 51.8477C460.864 51.6717 461.064 51.4397 461.208 51.1517C461.352 50.8637 461.424 50.5597 461.424 50.2397C461.424 49.7757 461.272 49.3757 460.968 49.0397C460.664 48.7037 460.264 48.5357 459.768 48.5357H456.168V52.0877ZM474.112 59.5037C473.104 59.5037 472.216 59.2637 471.448 58.7837C470.68 58.3037 470.072 57.6797 469.624 56.9117V64.3757H466.984V46.7117H469.312V48.9677C469.792 48.2157 470.416 47.6157 471.184 47.1677C471.952 46.7197 472.808 46.4957 473.752 46.4957C474.616 46.4957 475.408 46.6717 476.128 47.0237C476.848 47.3597 477.472 47.8317 478 48.4397C478.528 49.0477 478.936 49.7437 479.224 50.5277C479.528 51.2957 479.68 52.1117 479.68 52.9757C479.68 54.1757 479.44 55.2717 478.96 56.2637C478.496 57.2557 477.84 58.0477 476.992 58.6397C476.16 59.2157 475.2 59.5037 474.112 59.5037ZM473.248 57.2477C473.808 57.2477 474.312 57.1277 474.76 56.8877C475.224 56.6477 475.616 56.3277 475.936 55.9277C476.272 55.5277 476.528 55.0717 476.704 54.5597C476.88 54.0477 476.968 53.5197 476.968 52.9757C476.968 52.3997 476.872 51.8557 476.68 51.3437C476.488 50.8317 476.208 50.3837 475.84 49.9997C475.488 49.6157 475.072 49.3117 474.592 49.0877C474.128 48.8637 473.616 48.7517 473.056 48.7517C472.72 48.7517 472.368 48.8157 472 48.9437C471.632 49.0717 471.288 49.2477 470.968 49.4717C470.648 49.6957 470.368 49.9597 470.128 50.2637C469.888 50.5677 469.72 50.8877 469.624 51.2237V54.5117C469.848 55.0237 470.144 55.4877 470.512 55.9037C470.88 56.3037 471.304 56.6317 471.784 56.8877C472.264 57.1277 472.752 57.2477 473.248 57.2477ZM487.743 59.5037C486.767 59.5037 485.879 59.3357 485.079 58.9997C484.295 58.6477 483.615 58.1757 483.039 57.5837C482.463 56.9757 482.015 56.2877 481.695 55.5197C481.391 54.7357 481.239 53.9037 481.239 53.0237C481.239 51.8397 481.511 50.7597 482.055 49.7837C482.599 48.7917 483.359 47.9997 484.335 47.4077C485.311 46.7997 486.455 46.4957 487.767 46.4957C489.079 46.4957 490.207 46.7997 491.151 47.4077C492.111 47.9997 492.855 48.7837 493.383 49.7597C493.911 50.7357 494.175 51.7837 494.175 52.9037C494.175 53.0957 494.167 53.2797 494.151 53.4557C494.135 53.6157 494.119 53.7517 494.103 53.8637H484.047C484.095 54.5997 484.295 55.2477 484.647 55.8077C485.015 56.3517 485.479 56.7837 486.039 57.1037C486.599 57.4077 487.199 57.5597 487.839 57.5597C488.543 57.5597 489.207 57.3837 489.831 57.0317C490.471 56.6797 490.903 56.2157 491.127 55.6397L493.383 56.2877C493.111 56.8957 492.695 57.4477 492.135 57.9437C491.591 58.4237 490.943 58.8077 490.191 59.0957C489.439 59.3677 488.623 59.5037 487.743 59.5037ZM483.975 52.1117H491.559C491.511 51.3917 491.303 50.7597 490.935 50.2157C490.583 49.6557 490.127 49.2237 489.567 48.9197C489.023 48.5997 488.415 48.4397 487.743 48.4397C487.087 48.4397 486.479 48.5997 485.919 48.9197C485.375 49.2237 484.927 49.6557 484.575 50.2157C484.223 50.7597 484.023 51.3917 483.975 52.1117ZM496.328 59.2637V46.7117H499.064L503.384 54.4637L507.728 46.7117H510.416V59.2637H507.896V50.4317L504.2 57.0317H502.544L498.824 50.4317V59.2637H496.328ZM512.786 59.2637L516.146 54.2957C515.362 54.1037 514.738 53.7037 514.274 53.0957C513.81 52.4877 513.578 51.6717 513.578 50.6477C513.578 49.8637 513.754 49.1757 514.106 48.5837C514.474 47.9917 514.986 47.5277 515.642 47.1917C516.298 46.8557 517.058 46.6877 517.922 46.6877H523.442V59.2637H520.802V54.7277H518.738L515.666 59.2637H512.786ZM518.186 52.8077H520.802V48.7277H518.354C517.682 48.7277 517.146 48.9117 516.746 49.2797C516.362 49.6477 516.17 50.1277 516.17 50.7197C516.17 51.3117 516.338 51.8077 516.674 52.2077C517.026 52.6077 517.53 52.8077 518.186 52.8077ZM31.5813 98.2637V92.9357H31.8693C32.2053 92.9357 32.5173 92.8397 32.8053 92.6477C33.0933 92.4557 33.3493 92.1277 33.5733 91.6637C33.7973 91.1837 33.9813 90.5277 34.1253 89.6957C34.2693 88.8477 34.3573 87.7837 34.3893 86.5037L34.5333 82.7117H43.4853V92.9357H45.2133V98.2637H42.8853V95.2637H33.8853V98.2637H31.5813ZM35.3493 92.9357H40.8453V84.9917H36.8613L36.7893 86.7437C36.7413 87.9597 36.6533 88.9837 36.5253 89.8157C36.4133 90.6477 36.2533 91.3117 36.0453 91.8077C35.8533 92.3037 35.6213 92.6797 35.3493 92.9357ZM46.4451 95.3837V93.0317C46.8451 93.0317 47.2051 92.9357 47.5251 92.7437C47.8451 92.5357 48.1251 92.1997 48.3651 91.7357C48.6051 91.2557 48.7971 90.5917 48.9411 89.7437C49.0851 88.8957 49.1811 87.8157 49.2291 86.5037L49.3971 82.7117H58.3491V95.2637H55.7091V85.0397H51.7251L51.6771 86.7437C51.6131 88.4237 51.4611 89.8237 51.2211 90.9437C50.9811 92.0477 50.6451 92.9277 50.2131 93.5837C49.7971 94.2237 49.2691 94.6877 48.6291 94.9757C48.0051 95.2477 47.2771 95.3837 46.4451 95.3837ZM60.7236 95.2637L64.0836 90.2957C63.2996 90.1037 62.6756 89.7037 62.2116 89.0957C61.7476 88.4877 61.5156 87.6717 61.5156 86.6477C61.5156 85.8637 61.6916 85.1757 62.0436 84.5837C62.4116 83.9917 62.9236 83.5277 63.5796 83.1917C64.2356 82.8557 64.9956 82.6877 65.8596 82.6877H71.3796V95.2637H68.7396V90.7277H66.6756L63.6036 95.2637H60.7236ZM66.1236 88.8077H68.7396V84.7277H66.2916C65.6196 84.7277 65.0836 84.9117 64.6836 85.2797C64.2996 85.6477 64.1076 86.1277 64.1076 86.7197C64.1076 87.3117 64.2756 87.8077 64.6116 88.2077C64.9636 88.6077 65.4676 88.8077 66.1236 88.8077ZM80.5 95.2637V82.7117H83.116V87.6797H84.364L88.06 82.7117H90.988L86.404 88.7837L91.516 95.2637H88.468L84.34 90.0557H83.116V95.2637H80.5ZM98.515 95.5037C97.523 95.5037 96.635 95.3357 95.851 94.9997C95.067 94.6477 94.387 94.1677 93.811 93.5597C93.251 92.9517 92.819 92.2637 92.515 91.4957C92.211 90.7117 92.059 89.8797 92.059 88.9997C92.059 88.1197 92.211 87.2877 92.515 86.5037C92.819 85.7197 93.251 85.0317 93.811 84.4397C94.387 83.8317 95.067 83.3597 95.851 83.0237C96.651 82.6717 97.539 82.4957 98.515 82.4957C99.491 82.4957 100.371 82.6717 101.155 83.0237C101.955 83.3597 102.635 83.8317 103.195 84.4397C103.771 85.0317 104.211 85.7197 104.515 86.5037C104.819 87.2877 104.971 88.1197 104.971 88.9997C104.971 89.8797 104.819 90.7117 104.515 91.4957C104.211 92.2637 103.771 92.9517 103.195 93.5597C102.635 94.1677 101.955 94.6477 101.155 94.9997C100.371 95.3357 99.491 95.5037 98.515 95.5037ZM94.771 89.0237C94.771 89.8237 94.939 90.5437 95.275 91.1837C95.611 91.8237 96.059 92.3277 96.619 92.6957C97.179 93.0637 97.811 93.2477 98.515 93.2477C99.203 93.2477 99.827 93.0637 100.387 92.6957C100.963 92.3117 101.419 91.7997 101.755 91.1597C102.091 90.5037 102.259 89.7837 102.259 88.9997C102.259 88.1997 102.091 87.4797 101.755 86.8397C101.419 86.1997 100.963 85.6957 100.387 85.3277C99.827 84.9437 99.203 84.7517 98.515 84.7517C97.811 84.7517 97.179 84.9437 96.619 85.3277C96.059 85.7117 95.611 86.2237 95.275 86.8637C94.939 87.4877 94.771 88.2077 94.771 89.0237ZM107.313 95.2637V82.7117H109.953V87.7037H115.785V82.7117H118.425V95.2637H115.785V89.9837H109.953V95.2637H107.313ZM127.297 95.5037C126.321 95.5037 125.433 95.3357 124.633 94.9997C123.849 94.6477 123.169 94.1677 122.593 93.5597C122.017 92.9517 121.569 92.2557 121.249 91.4717C120.945 90.6877 120.793 89.8557 120.793 88.9757C120.793 87.7917 121.057 86.7117 121.585 85.7357C122.129 84.7597 122.881 83.9757 123.841 83.3837C124.817 82.7917 125.969 82.4957 127.297 82.4957C128.577 82.4957 129.689 82.7837 130.633 83.3597C131.593 83.9197 132.297 84.6717 132.745 85.6157L130.177 86.4317C129.889 85.9037 129.481 85.4957 128.953 85.2077C128.441 84.9037 127.873 84.7517 127.249 84.7517C126.545 84.7517 125.905 84.9357 125.329 85.3037C124.769 85.6557 124.321 86.1517 123.985 86.7917C123.665 87.4157 123.505 88.1437 123.505 88.9757C123.505 89.7757 123.673 90.5037 124.009 91.1597C124.345 91.7997 124.793 92.3117 125.353 92.6957C125.929 93.0637 126.569 93.2477 127.273 93.2477C127.705 93.2477 128.121 93.1757 128.521 93.0317C128.937 92.8717 129.297 92.6637 129.601 92.4077C129.905 92.1357 130.121 91.8397 130.249 91.5197L132.841 92.2877C132.569 92.9117 132.161 93.4637 131.617 93.9437C131.089 94.4237 130.457 94.8077 129.721 95.0957C129.001 95.3677 128.193 95.5037 127.297 95.5037ZM136.485 100.592C136.197 100.592 135.893 100.552 135.573 100.472C135.253 100.392 134.917 100.272 134.565 100.112L135.237 98.1437C135.429 98.2397 135.613 98.3117 135.789 98.3597C135.965 98.4077 136.125 98.4317 136.269 98.4317C136.669 98.4317 137.029 98.2637 137.349 97.9277C137.685 97.6077 137.981 97.1197 138.237 96.4637L138.717 95.1677L133.413 82.7117H136.173L140.013 92.5757L143.421 82.7117H145.965L140.445 97.1837C140.173 97.9357 139.829 98.5597 139.413 99.0557C139.013 99.5517 138.565 99.9277 138.069 100.184C137.573 100.456 137.045 100.592 136.485 100.592ZM146.898 95.3837V93.0317C147.298 93.0317 147.658 92.9357 147.978 92.7437C148.298 92.5357 148.578 92.1997 148.818 91.7357C149.058 91.2557 149.25 90.5917 149.394 89.7437C149.538 88.8957 149.634 87.8157 149.682 86.5037L149.85 82.7117H158.802V95.2637H156.162V85.0397H152.178L152.13 86.7437C152.066 88.4237 151.914 89.8237 151.674 90.9437C151.434 92.0477 151.098 92.9277 150.666 93.5837C150.25 94.2237 149.722 94.6877 149.082 94.9757C148.458 95.2477 147.73 95.3837 146.898 95.3837ZM161.969 95.2637V82.7117H164.609V86.8397H167.609C169.097 86.8397 170.225 87.2157 170.993 87.9677C171.777 88.7197 172.169 89.7117 172.169 90.9437C172.169 91.7757 172.001 92.5197 171.665 93.1757C171.329 93.8317 170.833 94.3437 170.177 94.7117C169.537 95.0797 168.737 95.2637 167.777 95.2637H161.969ZM164.609 93.2237H167.369C167.897 93.2237 168.321 93.1277 168.641 92.9357C168.961 92.7277 169.201 92.4557 169.361 92.1197C169.521 91.7677 169.601 91.3917 169.601 90.9917C169.601 90.5917 169.529 90.2317 169.385 89.9117C169.241 89.5757 169.001 89.3117 168.665 89.1197C168.345 88.9117 167.905 88.8077 167.345 88.8077H164.609V93.2237ZM177.296 95.2637V85.0397H173.144V82.7117H184.112V85.0397H179.936V95.2637H177.296ZM185.151 91.5917C185.151 90.7917 185.375 90.0957 185.823 89.5037C186.287 88.8957 186.919 88.4317 187.719 88.1117C188.519 87.7757 189.447 87.6077 190.503 87.6077C191.063 87.6077 191.631 87.6477 192.207 87.7277C192.799 87.8077 193.319 87.9357 193.767 88.1117V87.3197C193.767 86.4397 193.503 85.7517 192.975 85.2557C192.447 84.7597 191.687 84.5117 190.695 84.5117C189.991 84.5117 189.327 84.6397 188.703 84.8957C188.079 85.1357 187.415 85.4797 186.711 85.9277L185.823 84.1517C186.655 83.5917 187.487 83.1757 188.319 82.9037C189.167 82.6317 190.055 82.4957 190.983 82.4957C192.663 82.4957 193.983 82.9437 194.943 83.8397C195.919 84.7197 196.407 85.9757 196.407 87.6077V92.2877C196.407 92.5917 196.455 92.8077 196.551 92.9357C196.663 93.0637 196.847 93.1357 197.103 93.1517V95.2637C196.863 95.3117 196.647 95.3437 196.455 95.3597C196.263 95.3757 196.103 95.3837 195.975 95.3837C195.415 95.3837 194.991 95.2477 194.703 94.9757C194.415 94.7037 194.247 94.3837 194.199 94.0157L194.127 93.2957C193.583 93.9997 192.887 94.5437 192.039 94.9277C191.191 95.3117 190.335 95.5037 189.471 95.5037C188.639 95.5037 187.895 95.3357 187.239 94.9997C186.583 94.6477 186.071 94.1757 185.703 93.5837C185.335 92.9917 185.151 92.3277 185.151 91.5917ZM193.143 92.3597C193.335 92.1517 193.487 91.9437 193.599 91.7357C193.711 91.5277 193.767 91.3437 193.767 91.1837V89.7437C193.319 89.5677 192.847 89.4397 192.351 89.3597C191.855 89.2637 191.367 89.2157 190.887 89.2157C189.927 89.2157 189.143 89.4077 188.535 89.7917C187.943 90.1757 187.647 90.7037 187.647 91.3757C187.647 91.7437 187.743 92.0957 187.935 92.4317C188.143 92.7677 188.431 93.0397 188.799 93.2477C189.183 93.4557 189.655 93.5597 190.215 93.5597C190.791 93.5597 191.343 93.4477 191.871 93.2237C192.399 92.9997 192.823 92.7117 193.143 92.3597ZM209.449 98.2637V95.2637H199.609V82.7117H202.249V92.9597H207.385V82.7117H210.025V92.9597H211.777V98.2637H209.449ZM214 95.2637V82.7357H216.64V91.7357L223 82.7117H225.4V95.2637H222.76V86.4557L216.472 95.2637H214ZM228.555 95.2637V82.7357H231.195V91.7357L237.555 82.7117H239.955V95.2637H237.315V86.4557L231.027 95.2637H228.555ZM242.989 89.8877V87.5117H250.165V89.8877H242.989ZM252.299 91.5917C252.299 90.7917 252.523 90.0957 252.971 89.5037C253.435 88.8957 254.067 88.4317 254.867 88.1117C255.667 87.7757 256.595 87.6077 257.651 87.6077C258.211 87.6077 258.779 87.6477 259.355 87.7277C259.947 87.8077 260.467 87.9357 260.915 88.1117V87.3197C260.915 86.4397 260.651 85.7517 260.123 85.2557C259.595 84.7597 258.835 84.5117 257.843 84.5117C257.139 84.5117 256.475 84.6397 255.851 84.8957C255.227 85.1357 254.563 85.4797 253.859 85.9277L252.971 84.1517C253.803 83.5917 254.635 83.1757 255.467 82.9037C256.315 82.6317 257.203 82.4957 258.131 82.4957C259.811 82.4957 261.131 82.9437 262.091 83.8397C263.067 84.7197 263.555 85.9757 263.555 87.6077V92.2877C263.555 92.5917 263.603 92.8077 263.699 92.9357C263.811 93.0637 263.995 93.1357 264.251 93.1517V95.2637C264.011 95.3117 263.795 95.3437 263.603 95.3597C263.411 95.3757 263.251 95.3837 263.123 95.3837C262.563 95.3837 262.139 95.2477 261.851 94.9757C261.563 94.7037 261.395 94.3837 261.347 94.0157L261.275 93.2957C260.731 93.9997 260.035 94.5437 259.187 94.9277C258.339 95.3117 257.483 95.5037 256.619 95.5037C255.787 95.5037 255.043 95.3357 254.387 94.9997C253.731 94.6477 253.219 94.1757 252.851 93.5837C252.483 92.9917 252.299 92.3277 252.299 91.5917ZM260.291 92.3597C260.483 92.1517 260.635 91.9437 260.747 91.7357C260.859 91.5277 260.915 91.3437 260.915 91.1837V89.7437C260.467 89.5677 259.995 89.4397 259.499 89.3597C259.003 89.2637 258.515 89.2157 258.035 89.2157C257.075 89.2157 256.291 89.4077 255.683 89.7917C255.091 90.1757 254.795 90.7037 254.795 91.3757C254.795 91.7437 254.891 92.0957 255.083 92.4317C255.291 92.7677 255.579 93.0397 255.947 93.2477C256.331 93.4557 256.803 93.5597 257.363 93.5597C257.939 93.5597 258.491 93.4477 259.019 93.2237C259.547 92.9997 259.971 92.7117 260.291 92.3597ZM268.017 100.592C267.729 100.592 267.425 100.552 267.105 100.472C266.785 100.392 266.449 100.272 266.097 100.112L266.769 98.1437C266.961 98.2397 267.145 98.3117 267.321 98.3597C267.497 98.4077 267.657 98.4317 267.801 98.4317C268.201 98.4317 268.561 98.2637 268.881 97.9277C269.217 97.6077 269.513 97.1197 269.769 96.4637L270.249 95.1677L264.945 82.7117H267.705L271.545 92.5757L274.953 82.7117H277.497L271.977 97.1837C271.705 97.9357 271.361 98.5597 270.945 99.0557C270.545 99.5517 270.097 99.9277 269.601 100.184C269.105 100.456 268.577 100.592 268.017 100.592ZM278.238 98.2637V92.9357H278.526C278.862 92.9357 279.174 92.8397 279.462 92.6477C279.75 92.4557 280.006 92.1277 280.23 91.6637C280.454 91.1837 280.638 90.5277 280.782 89.6957C280.926 88.8477 281.014 87.7837 281.046 86.5037L281.19 82.7117H290.142V92.9357H291.87V98.2637H289.542V95.2637H280.542V98.2637H278.238ZM282.006 92.9357H287.502V84.9917H283.518L283.446 86.7437C283.398 87.9597 283.31 88.9837 283.182 89.8157C283.07 90.6477 282.91 91.3117 282.702 91.8077C282.51 92.3037 282.278 92.6797 282.006 92.9357ZM294.109 95.2637V82.7357H296.749V91.7357L303.109 82.7117H305.509V95.2637H302.869V86.4557L296.581 95.2637H294.109ZM311.64 95.2637V85.0397H307.488V82.7117H318.456V85.0397H314.28V95.2637H311.64ZM319.494 91.5917C319.494 90.7917 319.718 90.0957 320.166 89.5037C320.63 88.8957 321.262 88.4317 322.062 88.1117C322.862 87.7757 323.79 87.6077 324.846 87.6077C325.406 87.6077 325.974 87.6477 326.55 87.7277C327.142 87.8077 327.662 87.9357 328.11 88.1117V87.3197C328.11 86.4397 327.846 85.7517 327.318 85.2557C326.79 84.7597 326.03 84.5117 325.038 84.5117C324.334 84.5117 323.67 84.6397 323.046 84.8957C322.422 85.1357 321.758 85.4797 321.054 85.9277L320.166 84.1517C320.998 83.5917 321.83 83.1757 322.662 82.9037C323.51 82.6317 324.398 82.4957 325.326 82.4957C327.006 82.4957 328.326 82.9437 329.286 83.8397C330.262 84.7197 330.75 85.9757 330.75 87.6077V92.2877C330.75 92.5917 330.798 92.8077 330.894 92.9357C331.006 93.0637 331.19 93.1357 331.446 93.1517V95.2637C331.206 95.3117 330.99 95.3437 330.798 95.3597C330.606 95.3757 330.446 95.3837 330.318 95.3837C329.758 95.3837 329.334 95.2477 329.046 94.9757C328.758 94.7037 328.59 94.3837 328.542 94.0157L328.47 93.2957C327.926 93.9997 327.23 94.5437 326.382 94.9277C325.534 95.3117 324.678 95.5037 323.814 95.5037C322.982 95.5037 322.238 95.3357 321.582 94.9997C320.926 94.6477 320.414 94.1757 320.046 93.5837C319.678 92.9917 319.494 92.3277 319.494 91.5917ZM327.486 92.3597C327.678 92.1517 327.83 91.9437 327.942 91.7357C328.054 91.5277 328.11 91.3437 328.11 91.1837V89.7437C327.662 89.5677 327.19 89.4397 326.694 89.3597C326.198 89.2637 325.71 89.2157 325.23 89.2157C324.27 89.2157 323.486 89.4077 322.878 89.7917C322.286 90.1757 321.99 90.7037 321.99 91.3757C321.99 91.7437 322.086 92.0957 322.278 92.4317C322.486 92.7677 322.774 93.0397 323.142 93.2477C323.526 93.4557 323.998 93.5597 324.558 93.5597C325.134 93.5597 325.686 93.4477 326.214 93.2237C326.742 92.9997 327.166 92.7117 327.486 92.3597ZM345.523 95.5037C344.531 95.5037 343.643 95.3357 342.859 94.9997C342.075 94.6477 341.395 94.1677 340.819 93.5597C340.259 92.9517 339.827 92.2637 339.523 91.4957C339.219 90.7117 339.067 89.8797 339.067 88.9997C339.067 88.1197 339.219 87.2877 339.523 86.5037C339.827 85.7197 340.259 85.0317 340.819 84.4397C341.395 83.8317 342.075 83.3597 342.859 83.0237C343.659 82.6717 344.547 82.4957 345.523 82.4957C346.499 82.4957 347.379 82.6717 348.163 83.0237C348.963 83.3597 349.643 83.8317 350.203 84.4397C350.779 85.0317 351.219 85.7197 351.523 86.5037C351.827 87.2877 351.979 88.1197 351.979 88.9997C351.979 89.8797 351.827 90.7117 351.523 91.4957C351.219 92.2637 350.779 92.9517 350.203 93.5597C349.643 94.1677 348.963 94.6477 348.163 94.9997C347.379 95.3357 346.499 95.5037 345.523 95.5037ZM341.779 89.0237C341.779 89.8237 341.947 90.5437 342.283 91.1837C342.619 91.8237 343.067 92.3277 343.627 92.6957C344.187 93.0637 344.819 93.2477 345.523 93.2477C346.211 93.2477 346.835 93.0637 347.395 92.6957C347.971 92.3117 348.427 91.7997 348.763 91.1597C349.099 90.5037 349.267 89.7837 349.267 88.9997C349.267 88.1997 349.099 87.4797 348.763 86.8397C348.427 86.1997 347.971 85.6957 347.395 85.3277C346.835 84.9437 346.211 84.7517 345.523 84.7517C344.819 84.7517 344.187 84.9437 343.627 85.3277C343.067 85.7117 342.619 86.2237 342.283 86.8637C341.947 87.4877 341.779 88.2077 341.779 89.0237ZM357.296 95.2637V85.0397H353.144V82.7117H364.112V85.0397H359.936V95.2637H357.296ZM372.016 95.2637V82.7117H374.656V87.7037H380.488V82.7117H383.128V95.2637H380.488V89.9837H374.656V95.2637H372.016ZM385.401 91.5917C385.401 90.7917 385.625 90.0957 386.073 89.5037C386.537 88.8957 387.169 88.4317 387.969 88.1117C388.769 87.7757 389.697 87.6077 390.753 87.6077C391.313 87.6077 391.881 87.6477 392.457 87.7277C393.049 87.8077 393.569 87.9357 394.017 88.1117V87.3197C394.017 86.4397 393.753 85.7517 393.225 85.2557C392.697 84.7597 391.937 84.5117 390.945 84.5117C390.241 84.5117 389.577 84.6397 388.953 84.8957C388.329 85.1357 387.665 85.4797 386.961 85.9277L386.073 84.1517C386.905 83.5917 387.737 83.1757 388.569 82.9037C389.417 82.6317 390.305 82.4957 391.233 82.4957C392.913 82.4957 394.233 82.9437 395.193 83.8397C396.169 84.7197 396.657 85.9757 396.657 87.6077V92.2877C396.657 92.5917 396.705 92.8077 396.801 92.9357C396.913 93.0637 397.097 93.1357 397.353 93.1517V95.2637C397.113 95.3117 396.897 95.3437 396.705 95.3597C396.513 95.3757 396.353 95.3837 396.225 95.3837C395.665 95.3837 395.241 95.2477 394.953 94.9757C394.665 94.7037 394.497 94.3837 394.449 94.0157L394.377 93.2957C393.833 93.9997 393.137 94.5437 392.289 94.9277C391.441 95.3117 390.585 95.5037 389.721 95.5037C388.889 95.5037 388.145 95.3357 387.489 94.9997C386.833 94.6477 386.321 94.1757 385.953 93.5837C385.585 92.9917 385.401 92.3277 385.401 91.5917ZM393.393 92.3597C393.585 92.1517 393.737 91.9437 393.849 91.7357C393.961 91.5277 394.017 91.3437 394.017 91.1837V89.7437C393.569 89.5677 393.097 89.4397 392.601 89.3597C392.105 89.2637 391.617 89.2157 391.137 89.2157C390.177 89.2157 389.393 89.4077 388.785 89.7917C388.193 90.1757 387.897 90.7037 387.897 91.3757C387.897 91.7437 387.993 92.0957 388.185 92.4317C388.393 92.7677 388.681 93.0397 389.049 93.2477C389.433 93.4557 389.905 93.5597 390.465 93.5597C391.041 93.5597 391.593 93.4477 392.121 93.2237C392.649 92.9997 393.073 92.7117 393.393 92.3597ZM399.859 95.2637V82.7117H402.499V92.9597H406.987V82.7117H409.651V92.9597H414.115V82.7117H416.755V95.2637H399.859ZM425.633 95.5037C424.657 95.5037 423.769 95.3357 422.969 94.9997C422.185 94.6477 421.505 94.1757 420.929 93.5837C420.353 92.9757 419.905 92.2877 419.585 91.5197C419.281 90.7357 419.129 89.9037 419.129 89.0237C419.129 87.8397 419.401 86.7597 419.945 85.7837C420.489 84.7917 421.249 83.9997 422.225 83.4077C423.201 82.7997 424.345 82.4957 425.657 82.4957C426.969 82.4957 428.097 82.7997 429.041 83.4077C430.001 83.9997 430.745 84.7837 431.273 85.7597C431.801 86.7357 432.065 87.7837 432.065 88.9037C432.065 89.0957 432.057 89.2797 432.041 89.4557C432.025 89.6157 432.009 89.7517 431.993 89.8637H421.937C421.985 90.5997 422.185 91.2477 422.537 91.8077C422.905 92.3517 423.369 92.7837 423.929 93.1037C424.489 93.4077 425.089 93.5597 425.729 93.5597C426.433 93.5597 427.097 93.3837 427.721 93.0317C428.361 92.6797 428.793 92.2157 429.017 91.6397L431.273 92.2877C431.001 92.8957 430.585 93.4477 430.025 93.9437C429.481 94.4237 428.833 94.8077 428.081 95.0957C427.329 95.3677 426.513 95.5037 425.633 95.5037ZM421.865 88.1117H429.449C429.401 87.3917 429.193 86.7597 428.825 86.2157C428.473 85.6557 428.017 85.2237 427.457 84.9197C426.913 84.5997 426.305 84.4397 425.633 84.4397C424.977 84.4397 424.369 84.5997 423.809 84.9197C423.265 85.2237 422.817 85.6557 422.465 86.2157C422.113 86.7597 421.913 87.3917 421.865 88.1117ZM434.219 95.2637V82.7117H442.235V85.0397H436.859V95.2637H434.219ZM449.867 95.5037C448.875 95.5037 447.987 95.3357 447.203 94.9997C446.419 94.6477 445.739 94.1677 445.163 93.5597C444.603 92.9517 444.171 92.2637 443.867 91.4957C443.563 90.7117 443.411 89.8797 443.411 88.9997C443.411 88.1197 443.563 87.2877 443.867 86.5037C444.171 85.7197 444.603 85.0317 445.163 84.4397C445.739 83.8317 446.419 83.3597 447.203 83.0237C448.003 82.6717 448.891 82.4957 449.867 82.4957C450.843 82.4957 451.723 82.6717 452.507 83.0237C453.307 83.3597 453.987 83.8317 454.547 84.4397C455.123 85.0317 455.563 85.7197 455.867 86.5037C456.171 87.2877 456.323 88.1197 456.323 88.9997C456.323 89.8797 456.171 90.7117 455.867 91.4957C455.563 92.2637 455.123 92.9517 454.547 93.5597C453.987 94.1677 453.307 94.6477 452.507 94.9997C451.723 95.3357 450.843 95.5037 449.867 95.5037ZM446.123 89.0237C446.123 89.8237 446.291 90.5437 446.627 91.1837C446.963 91.8237 447.411 92.3277 447.971 92.6957C448.531 93.0637 449.163 93.2477 449.867 93.2477C450.555 93.2477 451.179 93.0637 451.739 92.6957C452.315 92.3117 452.771 91.7997 453.107 91.1597C453.443 90.5037 453.611 89.7837 453.611 88.9997C453.611 88.1997 453.443 87.4797 453.107 86.8397C452.771 86.1997 452.315 85.6957 451.739 85.3277C451.179 84.9437 450.555 84.7517 449.867 84.7517C449.163 84.7517 448.531 84.9437 447.971 85.3277C447.411 85.7117 446.963 86.2237 446.627 86.8637C446.291 87.4877 446.123 88.2077 446.123 89.0237ZM32.7813 131.264V118.712H35.5173L39.8373 126.464L44.1813 118.712H46.8693V131.264H44.3493V122.432L40.6533 129.032H38.9973L35.2773 122.432V131.264H32.7813ZM49.1193 127.592C49.1193 126.792 49.3433 126.096 49.7913 125.504C50.2553 124.896 50.8873 124.432 51.6873 124.112C52.4873 123.776 53.4153 123.608 54.4713 123.608C55.0313 123.608 55.5993 123.648 56.1753 123.728C56.7673 123.808 57.2873 123.936 57.7353 124.112V123.32C57.7353 122.44 57.4713 121.752 56.9433 121.256C56.4153 120.76 55.6553 120.512 54.6633 120.512C53.9593 120.512 53.2953 120.64 52.6713 120.896C52.0473 121.136 51.3833 121.48 50.6793 121.928L49.7913 120.152C50.6233 119.592 51.4553 119.176 52.2873 118.904C53.1353 118.632 54.0233 118.496 54.9513 118.496C56.6313 118.496 57.9513 118.944 58.9113 119.84C59.8873 120.72 60.3753 121.976 60.3753 123.608V128.288C60.3753 128.592 60.4233 128.808 60.5193 128.936C60.6313 129.064 60.8153 129.136 61.0713 129.152V131.264C60.8313 131.312 60.6153 131.344 60.4233 131.36C60.2313 131.376 60.0713 131.384 59.9433 131.384C59.3833 131.384 58.9593 131.248 58.6713 130.976C58.3833 130.704 58.2153 130.384 58.1673 130.016L58.0953 129.296C57.5513 130 56.8553 130.544 56.0073 130.928C55.1593 131.312 54.3033 131.504 53.4393 131.504C52.6073 131.504 51.8633 131.336 51.2073 131C50.5513 130.648 50.0393 130.176 49.6713 129.584C49.3033 128.992 49.1193 128.328 49.1193 127.592ZM57.1113 128.36C57.3033 128.152 57.4553 127.944 57.5673 127.736C57.6793 127.528 57.7353 127.344 57.7353 127.184V125.744C57.2873 125.568 56.8153 125.44 56.3193 125.36C55.8233 125.264 55.3353 125.216 54.8553 125.216C53.8953 125.216 53.1113 125.408 52.5033 125.792C51.9113 126.176 51.6153 126.704 51.6153 127.376C51.6153 127.744 51.7113 128.096 51.9033 128.432C52.1113 128.768 52.3993 129.04 52.7673 129.248C53.1513 129.456 53.6233 129.56 54.1833 129.56C54.7593 129.56 55.3113 129.448 55.8393 129.224C56.3673 129 56.7913 128.712 57.1113 128.36ZM70.7061 131.504C69.6981 131.504 68.8101 131.264 68.0421 130.784C67.2741 130.304 66.6661 129.68 66.2181 128.912V136.376H63.5781V118.712H65.9061V120.968C66.3861 120.216 67.0101 119.616 67.7781 119.168C68.5461 118.72 69.4021 118.496 70.3461 118.496C71.2101 118.496 72.0021 118.672 72.7221 119.024C73.4421 119.36 74.0661 119.832 74.5941 120.44C75.1221 121.048 75.5301 121.744 75.8181 122.528C76.1221 123.296 76.2741 124.112 76.2741 124.976C76.2741 126.176 76.0341 127.272 75.5541 128.264C75.0901 129.256 74.4341 130.048 73.5861 130.64C72.7541 131.216 71.7941 131.504 70.7061 131.504ZM69.8421 129.248C70.4021 129.248 70.9061 129.128 71.3541 128.888C71.8181 128.648 72.2101 128.328 72.5301 127.928C72.8661 127.528 73.1221 127.072 73.2981 126.56C73.4741 126.048 73.5621 125.52 73.5621 124.976C73.5621 124.4 73.4661 123.856 73.2741 123.344C73.0821 122.832 72.8021 122.384 72.4341 122C72.0821 121.616 71.6661 121.312 71.1861 121.088C70.7221 120.864 70.2101 120.752 69.6501 120.752C69.3141 120.752 68.9621 120.816 68.5941 120.944C68.2261 121.072 67.8821 121.248 67.5621 121.472C67.2421 121.696 66.9621 121.96 66.7221 122.264C66.4821 122.568 66.3141 122.888 66.2181 123.224V126.512C66.4421 127.024 66.7381 127.488 67.1061 127.904C67.4741 128.304 67.8981 128.632 68.3781 128.888C68.8581 129.128 69.3461 129.248 69.8421 129.248ZM78.6485 131.264V118.712H81.2645V123.68H82.5125L86.2085 118.712H89.1365L84.5525 124.784L89.6645 131.264H86.6165L82.4885 126.056H81.2645V131.264H78.6485ZM96.7115 131.504C95.7355 131.504 94.8475 131.336 94.0475 131C93.2635 130.648 92.5835 130.176 92.0075 129.584C91.4315 128.976 90.9835 128.288 90.6635 127.52C90.3595 126.736 90.2075 125.904 90.2075 125.024C90.2075 123.84 90.4795 122.76 91.0235 121.784C91.5675 120.792 92.3275 120 93.3035 119.408C94.2795 118.8 95.4235 118.496 96.7355 118.496C98.0475 118.496 99.1755 118.8 100.119 119.408C101.079 120 101.823 120.784 102.351 121.76C102.879 122.736 103.143 123.784 103.143 124.904C103.143 125.096 103.135 125.28 103.119 125.456C103.103 125.616 103.087 125.752 103.071 125.864H93.0155C93.0635 126.6 93.2635 127.248 93.6155 127.808C93.9835 128.352 94.4475 128.784 95.0075 129.104C95.5675 129.408 96.1675 129.56 96.8075 129.56C97.5115 129.56 98.1755 129.384 98.7995 129.032C99.4395 128.68 99.8715 128.216 100.095 127.64L102.351 128.288C102.079 128.896 101.663 129.448 101.103 129.944C100.559 130.424 99.9115 130.808 99.1595 131.096C98.4075 131.368 97.5915 131.504 96.7115 131.504ZM92.9435 124.112H100.527C100.479 123.392 100.271 122.76 99.9035 122.216C99.5515 121.656 99.0955 121.224 98.5355 120.92C97.9915 120.6 97.3835 120.44 96.7115 120.44C96.0555 120.44 95.4475 120.6 94.8875 120.92C94.3435 121.224 93.8955 121.656 93.5435 122.216C93.1915 122.76 92.9915 123.392 92.9435 124.112ZM108.273 131.264V121.04H104.121V118.712H115.089V121.04H110.913V131.264H108.273ZM122.703 131.504C121.711 131.504 120.823 131.336 120.039 131C119.255 130.648 118.575 130.168 117.999 129.56C117.439 128.952 117.007 128.264 116.703 127.496C116.399 126.712 116.247 125.88 116.247 125C116.247 124.12 116.399 123.288 116.703 122.504C117.007 121.72 117.439 121.032 117.999 120.44C118.575 119.832 119.255 119.36 120.039 119.024C120.839 118.672 121.727 118.496 122.703 118.496C123.679 118.496 124.559 118.672 125.343 119.024C126.143 119.36 126.823 119.832 127.383 120.44C127.959 121.032 128.399 121.72 128.703 122.504C129.007 123.288 129.159 124.12 129.159 125C129.159 125.88 129.007 126.712 128.703 127.496C128.399 128.264 127.959 128.952 127.383 129.56C126.823 130.168 126.143 130.648 125.343 131C124.559 131.336 123.679 131.504 122.703 131.504ZM118.959 125.024C118.959 125.824 119.127 126.544 119.463 127.184C119.799 127.824 120.247 128.328 120.807 128.696C121.367 129.064 121.999 129.248 122.703 129.248C123.391 129.248 124.015 129.064 124.575 128.696C125.151 128.312 125.607 127.8 125.943 127.16C126.279 126.504 126.447 125.784 126.447 125C126.447 124.2 126.279 123.48 125.943 122.84C125.607 122.2 125.151 121.696 124.575 121.328C124.015 120.944 123.391 120.752 122.703 120.752C121.999 120.752 121.367 120.944 120.807 121.328C120.247 121.712 119.799 122.224 119.463 122.864C119.127 123.488 118.959 124.208 118.959 125.024ZM130.492 131.384V129.032C130.892 129.032 131.252 128.936 131.572 128.744C131.892 128.536 132.172 128.2 132.412 127.736C132.652 127.256 132.844 126.592 132.988 125.744C133.132 124.896 133.228 123.816 133.276 122.504L133.444 118.712H142.396V131.264H139.756V121.04H135.772L135.724 122.744C135.66 124.424 135.508 125.824 135.268 126.944C135.028 128.048 134.692 128.928 134.26 129.584C133.844 130.224 133.316 130.688 132.676 130.976C132.052 131.248 131.324 131.384 130.492 131.384ZM151.203 131.504C150.211 131.504 149.323 131.336 148.539 131C147.755 130.648 147.075 130.168 146.499 129.56C145.939 128.952 145.507 128.264 145.203 127.496C144.899 126.712 144.747 125.88 144.747 125C144.747 124.12 144.899 123.288 145.203 122.504C145.507 121.72 145.939 121.032 146.499 120.44C147.075 119.832 147.755 119.36 148.539 119.024C149.339 118.672 150.227 118.496 151.203 118.496C152.179 118.496 153.059 118.672 153.843 119.024C154.643 119.36 155.323 119.832 155.883 120.44C156.459 121.032 156.899 121.72 157.203 122.504C157.507 123.288 157.659 124.12 157.659 125C157.659 125.88 157.507 126.712 157.203 127.496C156.899 128.264 156.459 128.952 155.883 129.56C155.323 130.168 154.643 130.648 153.843 131C153.059 131.336 152.179 131.504 151.203 131.504ZM147.459 125.024C147.459 125.824 147.627 126.544 147.963 127.184C148.299 127.824 148.747 128.328 149.307 128.696C149.867 129.064 150.499 129.248 151.203 129.248C151.891 129.248 152.515 129.064 153.075 128.696C153.651 128.312 154.107 127.8 154.443 127.16C154.779 126.504 154.947 125.784 154.947 125C154.947 124.2 154.779 123.48 154.443 122.84C154.107 122.2 153.651 121.696 153.075 121.328C152.515 120.944 151.891 120.752 151.203 120.752C150.499 120.752 149.867 120.944 149.307 121.328C148.747 121.712 148.299 122.224 147.963 122.864C147.627 123.488 147.459 124.208 147.459 125.024ZM160 131.264V118.712H168.016V121.04H162.64V131.264H160ZM169.096 127.592C169.096 126.792 169.32 126.096 169.768 125.504C170.232 124.896 170.864 124.432 171.664 124.112C172.464 123.776 173.392 123.608 174.448 123.608C175.008 123.608 175.576 123.648 176.152 123.728C176.744 123.808 177.264 123.936 177.712 124.112V123.32C177.712 122.44 177.448 121.752 176.92 121.256C176.392 120.76 175.632 120.512 174.64 120.512C173.936 120.512 173.272 120.64 172.648 120.896C172.024 121.136 171.36 121.48 170.656 121.928L169.768 120.152C170.6 119.592 171.432 119.176 172.264 118.904C173.112 118.632 174 118.496 174.928 118.496C176.608 118.496 177.928 118.944 178.888 119.84C179.864 120.72 180.352 121.976 180.352 123.608V128.288C180.352 128.592 180.4 128.808 180.496 128.936C180.608 129.064 180.792 129.136 181.048 129.152V131.264C180.808 131.312 180.592 131.344 180.4 131.36C180.208 131.376 180.048 131.384 179.92 131.384C179.36 131.384 178.936 131.248 178.648 130.976C178.36 130.704 178.192 130.384 178.144 130.016L178.072 129.296C177.528 130 176.832 130.544 175.984 130.928C175.136 131.312 174.28 131.504 173.416 131.504C172.584 131.504 171.84 131.336 171.184 131C170.528 130.648 170.016 130.176 169.648 129.584C169.28 128.992 169.096 128.328 169.096 127.592ZM177.088 128.36C177.28 128.152 177.432 127.944 177.544 127.736C177.656 127.528 177.712 127.344 177.712 127.184V125.744C177.264 125.568 176.792 125.44 176.296 125.36C175.8 125.264 175.312 125.216 174.832 125.216C173.872 125.216 173.088 125.408 172.48 125.792C171.888 126.176 171.592 126.704 171.592 127.376C171.592 127.744 171.688 128.096 171.88 128.432C172.088 128.768 172.376 129.04 172.744 129.248C173.128 129.456 173.6 129.56 174.16 129.56C174.736 129.56 175.288 129.448 175.816 129.224C176.344 129 176.768 128.712 177.088 128.36ZM183.723 133.592L184.299 131.12H183.435V128.192H185.811V131.12L184.971 133.592H183.723ZM194.781 131.264V118.712H197.397V123.68H198.645L202.341 118.712H205.269L200.685 124.784L205.797 131.264H202.749L198.621 126.056H197.397V131.264H194.781ZM212.796 131.504C211.804 131.504 210.916 131.336 210.132 131C209.348 130.648 208.668 130.168 208.092 129.56C207.532 128.952 207.1 128.264 206.796 127.496C206.492 126.712 206.34 125.88 206.34 125C206.34 124.12 206.492 123.288 206.796 122.504C207.1 121.72 207.532 121.032 208.092 120.44C208.668 119.832 209.348 119.36 210.132 119.024C210.932 118.672 211.82 118.496 212.796 118.496C213.772 118.496 214.652 118.672 215.436 119.024C216.236 119.36 216.916 119.832 217.476 120.44C218.052 121.032 218.492 121.72 218.796 122.504C219.1 123.288 219.252 124.12 219.252 125C219.252 125.88 219.1 126.712 218.796 127.496C218.492 128.264 218.052 128.952 217.476 129.56C216.916 130.168 216.236 130.648 215.436 131C214.652 131.336 213.772 131.504 212.796 131.504ZM209.052 125.024C209.052 125.824 209.22 126.544 209.556 127.184C209.892 127.824 210.34 128.328 210.9 128.696C211.46 129.064 212.092 129.248 212.796 129.248C213.484 129.248 214.108 129.064 214.668 128.696C215.244 128.312 215.7 127.8 216.036 127.16C216.372 126.504 216.54 125.784 216.54 125C216.54 124.2 216.372 123.48 216.036 122.84C215.7 122.2 215.244 121.696 214.668 121.328C214.108 120.944 213.484 120.752 212.796 120.752C212.092 120.752 211.46 120.944 210.9 121.328C210.34 121.712 209.892 122.224 209.556 122.864C209.22 123.488 209.052 124.208 209.052 125.024ZM221.594 131.264V118.712H229.61V121.04H224.234V131.264H221.594ZM230.402 134.264V128.936H230.69C231.026 128.936 231.338 128.84 231.626 128.648C231.914 128.456 232.17 128.128 232.394 127.664C232.618 127.184 232.802 126.528 232.946 125.696C233.09 124.848 233.178 123.784 233.21 122.504L233.354 118.712H242.306V128.936H244.034V134.264H241.706V131.264H232.706V134.264H230.402ZM234.17 128.936H239.666V120.992H235.682L235.61 122.744C235.562 123.96 235.474 124.984 235.346 125.816C235.234 126.648 235.074 127.312 234.866 127.808C234.674 128.304 234.442 128.68 234.17 128.936ZM245.361 127.592C245.361 126.792 245.585 126.096 246.033 125.504C246.497 124.896 247.129 124.432 247.929 124.112C248.729 123.776 249.657 123.608 250.713 123.608C251.273 123.608 251.841 123.648 252.417 123.728C253.009 123.808 253.529 123.936 253.977 124.112V123.32C253.977 122.44 253.713 121.752 253.185 121.256C252.657 120.76 251.897 120.512 250.905 120.512C250.201 120.512 249.537 120.64 248.913 120.896C248.289 121.136 247.625 121.48 246.921 121.928L246.033 120.152C246.865 119.592 247.697 119.176 248.529 118.904C249.377 118.632 250.265 118.496 251.193 118.496C252.873 118.496 254.193 118.944 255.153 119.84C256.129 120.72 256.617 121.976 256.617 123.608V128.288C256.617 128.592 256.665 128.808 256.761 128.936C256.873 129.064 257.057 129.136 257.313 129.152V131.264C257.073 131.312 256.857 131.344 256.665 131.36C256.473 131.376 256.313 131.384 256.185 131.384C255.625 131.384 255.201 131.248 254.913 130.976C254.625 130.704 254.457 130.384 254.409 130.016L254.337 129.296C253.793 130 253.097 130.544 252.249 130.928C251.401 131.312 250.545 131.504 249.681 131.504C248.849 131.504 248.105 131.336 247.449 131C246.793 130.648 246.281 130.176 245.913 129.584C245.545 128.992 245.361 128.328 245.361 127.592ZM253.353 128.36C253.545 128.152 253.697 127.944 253.809 127.736C253.921 127.528 253.977 127.344 253.977 127.184V125.744C253.529 125.568 253.057 125.44 252.561 125.36C252.065 125.264 251.577 125.216 251.097 125.216C250.137 125.216 249.353 125.408 248.745 125.792C248.153 126.176 247.857 126.704 247.857 127.376C247.857 127.744 247.953 128.096 248.145 128.432C248.353 128.768 248.641 129.04 249.009 129.248C249.393 129.456 249.865 129.56 250.425 129.56C251.001 129.56 251.553 129.448 252.081 129.224C252.609 129 253.033 128.712 253.353 128.36ZM265.75 131.264V118.712H272.47C273.27 118.712 273.926 118.864 274.438 119.168C274.966 119.456 275.358 119.832 275.614 120.296C275.87 120.744 275.998 121.24 275.998 121.784C275.998 122.472 275.838 123.08 275.518 123.608C275.198 124.136 274.726 124.536 274.102 124.808C274.822 125.016 275.406 125.384 275.854 125.912C276.318 126.424 276.55 127.088 276.55 127.904C276.55 128.64 276.374 129.264 276.022 129.776C275.67 130.272 275.166 130.648 274.51 130.904C273.87 131.144 273.118 131.264 272.254 131.264H265.75ZM268.246 129.44H272.182C272.518 129.44 272.822 129.36 273.094 129.2C273.382 129.024 273.606 128.8 273.766 128.528C273.926 128.24 274.006 127.936 274.006 127.616C274.006 127.264 273.926 126.952 273.766 126.68C273.622 126.408 273.414 126.192 273.142 126.032C272.886 125.872 272.582 125.792 272.23 125.792H268.246V129.44ZM268.246 124.088H271.798C272.134 124.088 272.43 124.008 272.686 123.848C272.942 123.672 273.142 123.44 273.286 123.152C273.43 122.864 273.502 122.56 273.502 122.24C273.502 121.776 273.35 121.376 273.046 121.04C272.742 120.704 272.342 120.536 271.846 120.536H268.246V124.088ZM278.151 127.592C278.151 126.792 278.375 126.096 278.823 125.504C279.287 124.896 279.919 124.432 280.719 124.112C281.519 123.776 282.447 123.608 283.503 123.608C284.063 123.608 284.631 123.648 285.207 123.728C285.799 123.808 286.319 123.936 286.767 124.112V123.32C286.767 122.44 286.503 121.752 285.975 121.256C285.447 120.76 284.687 120.512 283.695 120.512C282.991 120.512 282.327 120.64 281.703 120.896C281.079 121.136 280.415 121.48 279.711 121.928L278.823 120.152C279.655 119.592 280.487 119.176 281.319 118.904C282.167 118.632 283.055 118.496 283.983 118.496C285.663 118.496 286.983 118.944 287.943 119.84C288.919 120.72 289.407 121.976 289.407 123.608V128.288C289.407 128.592 289.455 128.808 289.551 128.936C289.663 129.064 289.847 129.136 290.103 129.152V131.264C289.863 131.312 289.647 131.344 289.455 131.36C289.263 131.376 289.103 131.384 288.975 131.384C288.415 131.384 287.991 131.248 287.703 130.976C287.415 130.704 287.247 130.384 287.199 130.016L287.127 129.296C286.583 130 285.887 130.544 285.039 130.928C284.191 131.312 283.335 131.504 282.471 131.504C281.639 131.504 280.895 131.336 280.239 131C279.583 130.648 279.071 130.176 278.703 129.584C278.335 128.992 278.151 128.328 278.151 127.592ZM286.143 128.36C286.335 128.152 286.487 127.944 286.599 127.736C286.711 127.528 286.767 127.344 286.767 127.184V125.744C286.319 125.568 285.847 125.44 285.351 125.36C284.855 125.264 284.367 125.216 283.887 125.216C282.927 125.216 282.143 125.408 281.535 125.792C280.943 126.176 280.647 126.704 280.647 127.376C280.647 127.744 280.743 128.096 280.935 128.432C281.143 128.768 281.431 129.04 281.799 129.248C282.183 129.456 282.655 129.56 283.215 129.56C283.791 129.56 284.343 129.448 284.871 129.224C285.399 129 285.823 128.712 286.143 128.36ZM292.609 131.264V118.712H295.345L299.665 126.464L304.009 118.712H306.697V131.264H304.177V122.432L300.481 129.032H298.825L295.105 122.432V131.264H292.609ZM316.837 136.592C316.549 136.592 316.245 136.552 315.925 136.472C315.605 136.392 315.269 136.272 314.917 136.112L315.589 134.144C315.781 134.24 315.965 134.312 316.141 134.36C316.317 134.408 316.477 134.432 316.621 134.432C317.021 134.432 317.381 134.264 317.701 133.928C318.037 133.608 318.333 133.12 318.589 132.464L319.069 131.168L313.765 118.712H316.525L320.365 128.576L323.773 118.712H326.317L320.797 133.184C320.525 133.936 320.181 134.56 319.765 135.056C319.365 135.552 318.917 135.928 318.421 136.184C317.925 136.456 317.397 136.592 316.837 136.592ZM327.058 134.264V128.936H327.346C327.682 128.936 327.994 128.84 328.282 128.648C328.57 128.456 328.826 128.128 329.05 127.664C329.274 127.184 329.458 126.528 329.602 125.696C329.746 124.848 329.834 123.784 329.866 122.504L330.01 118.712H338.962V128.936H340.69V134.264H338.362V131.264H329.362V134.264H327.058ZM330.826 128.936H336.322V120.992H332.338L332.266 122.744C332.218 123.96 332.13 124.984 332.002 125.816C331.89 126.648 331.73 127.312 331.522 127.808C331.33 128.304 331.098 128.68 330.826 128.936ZM348.57 131.504C347.578 131.504 346.69 131.336 345.906 131C345.122 130.648 344.442 130.168 343.866 129.56C343.306 128.952 342.874 128.264 342.57 127.496C342.266 126.712 342.114 125.88 342.114 125C342.114 124.12 342.266 123.288 342.57 122.504C342.874 121.72 343.306 121.032 343.866 120.44C344.442 119.832 345.122 119.36 345.906 119.024C346.706 118.672 347.594 118.496 348.57 118.496C349.546 118.496 350.426 118.672 351.21 119.024C352.01 119.36 352.69 119.832 353.25 120.44C353.826 121.032 354.266 121.72 354.57 122.504C354.874 123.288 355.026 124.12 355.026 125C355.026 125.88 354.874 126.712 354.57 127.496C354.266 128.264 353.826 128.952 353.25 129.56C352.69 130.168 352.01 130.648 351.21 131C350.426 131.336 349.546 131.504 348.57 131.504ZM344.826 125.024C344.826 125.824 344.994 126.544 345.33 127.184C345.666 127.824 346.114 128.328 346.674 128.696C347.234 129.064 347.866 129.248 348.57 129.248C349.258 129.248 349.882 129.064 350.442 128.696C351.018 128.312 351.474 127.8 351.81 127.16C352.146 126.504 352.314 125.784 352.314 125C352.314 124.2 352.146 123.48 351.81 122.84C351.474 122.2 351.018 121.696 350.442 121.328C349.882 120.944 349.258 120.752 348.57 120.752C347.866 120.752 347.234 120.944 346.674 121.328C346.114 121.712 345.666 122.224 345.33 122.864C344.994 123.488 344.826 124.208 344.826 125.024ZM363.439 131.504C361.343 131.504 359.751 130.872 358.663 129.608C357.575 128.344 357.031 126.536 357.031 124.184C357.031 122.648 357.159 121.352 357.415 120.296C357.687 119.224 358.079 118.344 358.591 117.656C359.119 116.968 359.767 116.408 360.535 115.976C361.319 115.528 362.223 115.168 363.247 114.896L368.599 113.408L368.695 115.616L363.439 117.104C362.607 117.36 361.895 117.696 361.303 118.112C360.727 118.528 360.271 119.072 359.935 119.744C359.599 120.4 359.375 121.232 359.263 122.24C359.711 121.424 360.351 120.784 361.183 120.32C362.015 119.856 362.999 119.624 364.135 119.624C365.303 119.624 366.311 119.872 367.159 120.368C368.007 120.848 368.663 121.52 369.127 122.384C369.591 123.248 369.823 124.24 369.823 125.36C369.823 126.576 369.575 127.648 369.079 128.576C368.599 129.488 367.879 130.208 366.919 130.736C365.975 131.248 364.815 131.504 363.439 131.504ZM363.439 129.248C364.607 129.248 365.511 128.904 366.151 128.216C366.807 127.528 367.135 126.616 367.135 125.48C367.135 124.392 366.807 123.504 366.151 122.816C365.511 122.112 364.607 121.76 363.439 121.76C362.751 121.76 362.127 121.912 361.567 122.216C361.007 122.504 360.567 122.928 360.247 123.488C359.927 124.032 359.767 124.696 359.767 125.48C359.767 126.216 359.911 126.872 360.199 127.448C360.487 128.008 360.903 128.448 361.447 128.768C361.991 129.088 362.655 129.248 363.439 129.248ZM372.203 131.264V118.712H374.843V123.704H380.675V118.712H383.315V131.264H380.675V125.984H374.843V131.264H372.203ZM392.14 131.504C391.148 131.504 390.26 131.336 389.476 131C388.692 130.648 388.012 130.168 387.436 129.56C386.876 128.952 386.444 128.264 386.14 127.496C385.836 126.712 385.684 125.88 385.684 125C385.684 124.12 385.836 123.288 386.14 122.504C386.444 121.72 386.876 121.032 387.436 120.44C388.012 119.832 388.692 119.36 389.476 119.024C390.276 118.672 391.164 118.496 392.14 118.496C393.116 118.496 393.996 118.672 394.78 119.024C395.58 119.36 396.26 119.832 396.82 120.44C397.396 121.032 397.836 121.72 398.14 122.504C398.444 123.288 398.596 124.12 398.596 125C398.596 125.88 398.444 126.712 398.14 127.496C397.836 128.264 397.396 128.952 396.82 129.56C396.26 130.168 395.58 130.648 394.78 131C393.996 131.336 393.116 131.504 392.14 131.504ZM388.396 125.024C388.396 125.824 388.564 126.544 388.9 127.184C389.236 127.824 389.684 128.328 390.244 128.696C390.804 129.064 391.436 129.248 392.14 129.248C392.828 129.248 393.452 129.064 394.012 128.696C394.588 128.312 395.044 127.8 395.38 127.16C395.716 126.504 395.884 125.784 395.884 125C395.884 124.2 395.716 123.48 395.38 122.84C395.044 122.2 394.588 121.696 394.012 121.328C393.452 120.944 392.828 120.752 392.14 120.752C391.436 120.752 390.804 120.944 390.244 121.328C389.684 121.712 389.236 122.224 388.9 122.864C388.564 123.488 388.396 124.208 388.396 125.024ZM402.171 125.96C402.171 125.4 402.235 124.888 402.363 124.424C402.491 123.96 402.699 123.536 402.987 123.152C403.275 122.752 403.667 122.4 404.163 122.096C404.435 121.936 404.755 121.76 405.123 121.568C405.491 121.36 405.843 121.12 406.179 120.848C406.515 120.576 406.795 120.256 407.019 119.888C407.259 119.52 407.379 119.088 407.379 118.592C407.379 118.064 407.251 117.624 406.995 117.272C406.739 116.904 406.411 116.632 406.011 116.456C405.627 116.264 405.203 116.168 404.739 116.168C404.243 116.168 403.787 116.272 403.371 116.48C402.955 116.688 402.595 116.952 402.291 117.272C401.987 117.592 401.731 117.928 401.523 118.28L399.795 117.104C400.083 116.448 400.483 115.888 400.995 115.424C401.507 114.96 402.091 114.608 402.747 114.368C403.403 114.128 404.091 114.008 404.811 114.008C405.403 114.008 405.987 114.104 406.563 114.296C407.155 114.472 407.683 114.752 408.147 115.136C408.611 115.52 408.979 116.008 409.251 116.6C409.539 117.176 409.683 117.872 409.683 118.688C409.683 119.248 409.611 119.736 409.467 120.152C409.339 120.552 409.147 120.912 408.891 121.232C408.635 121.552 408.339 121.84 408.003 122.096C407.667 122.336 407.299 122.568 406.899 122.792C406.499 123.032 406.107 123.28 405.723 123.536C405.339 123.776 405.019 124.08 404.763 124.448C404.507 124.816 404.379 125.32 404.379 125.96H402.171ZM402.243 131.264V128.24H404.427V131.264H402.243ZM416.725 122.96C416.725 124 416.573 125.064 416.269 126.152C415.965 127.224 415.549 128.28 415.021 129.32C414.493 130.36 413.893 131.384 413.221 132.392L411.277 131.408C412.173 129.936 412.893 128.488 413.437 127.064C413.997 125.64 414.277 124.296 414.277 123.032C414.277 122.216 414.173 121.384 413.965 120.536C413.757 119.672 413.485 118.832 413.149 118.016C412.829 117.184 412.493 116.432 412.141 115.76C411.805 115.088 411.501 114.544 411.229 114.128L413.245 113.264C414.221 114.912 415.045 116.536 415.717 118.136C416.389 119.72 416.725 121.328 416.725 122.96Z" fill="white"/>
</svg>
