<svg width="580" height="213" viewBox="0 0 580 213" fill="none" xmlns="http://www.w3.org/2000/svg">
<path fill-rule="evenodd" clip-rule="evenodd" d="M20.9648 0.917969C9.91915 0.917969 0.964844 9.87225 0.964844 20.9179V153.567C0.964844 164.613 9.91916 173.567 20.9649 173.567H413.194L479.9 212.124V173.567H559.465C570.511 173.567 579.465 164.613 579.465 153.567V20.918C579.465 9.87227 570.511 0.917969 559.465 0.917969H20.9648Z" fill="#7A0923"/>
<path d="M31.9053 63.0238V57.3838H32.7213C33.1693 57.3838 33.5533 57.2078 33.8733 56.8558C34.2093 56.5038 34.4893 55.9438 34.7133 55.1758C34.9533 54.4078 35.1373 53.3998 35.2653 52.1518C35.4093 50.8878 35.5133 49.3438 35.5773 47.5198L35.6973 42.7198H46.6653V57.3838H48.8253V63.0238H46.4493V59.7598H34.2813V63.0238H31.9053ZM36.1293 57.3838H43.9533V45.0958H38.1933L38.1213 47.8798C38.0733 49.7198 37.9773 51.2798 37.8333 52.5598C37.6893 53.8238 37.4813 54.8478 37.2093 55.6318C36.9373 56.4158 36.5773 56.9998 36.1293 57.3838ZM56.8763 59.9998C55.8843 59.9998 54.9963 59.8318 54.2123 59.4958C53.4283 59.1438 52.7483 58.6638 52.1723 58.0558C51.6123 57.4478 51.1803 56.7598 50.8763 55.9918C50.5723 55.2078 50.4203 54.3758 50.4203 53.4958C50.4203 52.6158 50.5723 51.7838 50.8763 50.9998C51.1803 50.2158 51.6123 49.5278 52.1723 48.9358C52.7483 48.3278 53.4283 47.8558 54.2123 47.5198C55.0123 47.1678 55.9003 46.9918 56.8763 46.9918C57.8523 46.9918 58.7323 47.1678 59.5163 47.5198C60.3163 47.8558 60.9963 48.3278 61.5563 48.9358C62.1323 49.5278 62.5723 50.2158 62.8763 50.9998C63.1803 51.7838 63.3323 52.6158 63.3323 53.4958C63.3323 54.3758 63.1803 55.2078 62.8763 55.9918C62.5723 56.7598 62.1323 57.4478 61.5563 58.0558C60.9963 58.6638 60.3163 59.1438 59.5163 59.4958C58.7323 59.8318 57.8523 59.9998 56.8763 59.9998ZM53.1323 53.5198C53.1323 54.3198 53.3003 55.0398 53.6363 55.6798C53.9723 56.3198 54.4203 56.8238 54.9803 57.1918C55.5403 57.5598 56.1723 57.7438 56.8763 57.7438C57.5643 57.7438 58.1883 57.5598 58.7483 57.1918C59.3243 56.8078 59.7803 56.2958 60.1163 55.6558C60.4523 54.9998 60.6203 54.2798 60.6203 53.4958C60.6203 52.6958 60.4523 51.9758 60.1163 51.3358C59.7803 50.6958 59.3243 50.1918 58.7483 49.8238C58.1883 49.4398 57.5643 49.2478 56.8763 49.2478C56.1723 49.2478 55.5403 49.4398 54.9803 49.8238C54.4203 50.2078 53.9723 50.7198 53.6363 51.3598C53.3003 51.9838 53.1323 52.7038 53.1323 53.5198ZM71.7458 59.9998C69.6498 59.9998 68.0578 59.3678 66.9698 58.1038C65.8818 56.8398 65.3378 55.0318 65.3378 52.6798C65.3378 51.1438 65.4658 49.8478 65.7218 48.7918C65.9938 47.7198 66.3858 46.8398 66.8978 46.1518C67.4258 45.4638 68.0738 44.9038 68.8418 44.4718C69.6258 44.0238 70.5298 43.6638 71.5538 43.3918L76.9058 41.9038L77.0018 44.1118L71.7458 45.5998C70.9138 45.8558 70.2018 46.1918 69.6098 46.6078C69.0338 47.0238 68.5778 47.5678 68.2418 48.2398C67.9058 48.8958 67.6818 49.7278 67.5698 50.7358C68.0178 49.9198 68.6578 49.2798 69.4898 48.8158C70.3218 48.3518 71.3058 48.1198 72.4418 48.1198C73.6098 48.1198 74.6178 48.3678 75.4658 48.8638C76.3138 49.3438 76.9698 50.0158 77.4338 50.8798C77.8978 51.7438 78.1298 52.7358 78.1298 53.8558C78.1298 55.0718 77.8818 56.1438 77.3858 57.0718C76.9058 57.9838 76.1858 58.7038 75.2258 59.2318C74.2818 59.7438 73.1218 59.9998 71.7458 59.9998ZM71.7458 57.7438C72.9138 57.7438 73.8178 57.3998 74.4578 56.7118C75.1138 56.0238 75.4418 55.1118 75.4418 53.9758C75.4418 52.8878 75.1138 51.9998 74.4578 51.3118C73.8178 50.6078 72.9138 50.2558 71.7458 50.2558C71.0578 50.2558 70.4338 50.4078 69.8738 50.7118C69.3138 50.9998 68.8738 51.4238 68.5538 51.9838C68.2338 52.5278 68.0738 53.1918 68.0738 53.9758C68.0738 54.7118 68.2178 55.3678 68.5058 55.9438C68.7938 56.5038 69.2098 56.9438 69.7538 57.2638C70.2978 57.5838 70.9618 57.7438 71.7458 57.7438ZM87.6378 59.9998C86.6298 59.9998 85.7418 59.7598 84.9738 59.2798C84.2058 58.7998 83.5978 58.1758 83.1498 57.4078V64.8718H80.5098V47.2078H82.8378V49.4638C83.3178 48.7118 83.9418 48.1118 84.7098 47.6638C85.4778 47.2158 86.3338 46.9918 87.2778 46.9918C88.1418 46.9918 88.9338 47.1678 89.6538 47.5198C90.3738 47.8558 90.9978 48.3278 91.5258 48.9358C92.0538 49.5438 92.4618 50.2398 92.7498 51.0238C93.0538 51.7918 93.2058 52.6078 93.2058 53.4718C93.2058 54.6718 92.9658 55.7678 92.4858 56.7598C92.0218 57.7518 91.3658 58.5438 90.5178 59.1358C89.6858 59.7118 88.7258 59.9998 87.6378 59.9998ZM86.7738 57.7438C87.3338 57.7438 87.8378 57.6238 88.2858 57.3838C88.7498 57.1438 89.1418 56.8238 89.4618 56.4238C89.7978 56.0238 90.0538 55.5678 90.2298 55.0558C90.4058 54.5438 90.4938 54.0158 90.4938 53.4718C90.4938 52.8958 90.3978 52.3518 90.2058 51.8398C90.0138 51.3278 89.7338 50.8798 89.3658 50.4958C89.0138 50.1118 88.5978 49.8078 88.1178 49.5838C87.6538 49.3598 87.1418 49.2478 86.5818 49.2478C86.2458 49.2478 85.8938 49.3118 85.5258 49.4398C85.1578 49.5678 84.8138 49.7438 84.4938 49.9678C84.1738 50.1918 83.8938 50.4558 83.6538 50.7598C83.4138 51.0638 83.2458 51.3838 83.1498 51.7198V55.0078C83.3738 55.5198 83.6698 55.9838 84.0378 56.3998C84.4058 56.7998 84.8298 57.1278 85.3098 57.3838C85.7898 57.6238 86.2778 57.7438 86.7738 57.7438ZM95.5801 59.7598V47.2078H98.2201V51.3358H100.596C102.084 51.3358 103.22 51.7118 104.004 52.4638C104.788 53.2158 105.18 54.2078 105.18 55.4398C105.18 56.2718 105.012 57.0158 104.676 57.6718C104.34 58.3278 103.844 58.8398 103.188 59.2078C102.548 59.5758 101.748 59.7598 100.788 59.7598H95.5801ZM98.2201 57.7198H100.38C100.908 57.7198 101.332 57.6238 101.652 57.4318C101.972 57.2238 102.204 56.9518 102.348 56.6158C102.508 56.2638 102.588 55.8878 102.588 55.4878C102.588 55.0878 102.516 54.7278 102.372 54.4078C102.228 54.0718 101.988 53.8078 101.652 53.6158C101.332 53.4078 100.9 53.3038 100.356 53.3038H98.2201V57.7198ZM107.244 59.7598V47.2318H109.884V59.7598H107.244ZM113.064 59.7598V47.2318H115.704V56.2318L122.064 47.2078H124.464V59.7598H121.824V50.9518L115.536 59.7598H113.064ZM118.776 45.9118C117.592 45.9118 116.672 45.6158 116.016 45.0238C115.376 44.4318 115.056 43.6878 115.056 42.7918H116.784C116.784 43.2558 116.936 43.6398 117.24 43.9438C117.56 44.2478 118.072 44.3998 118.776 44.3998C119.464 44.3998 119.952 44.2558 120.24 43.9678C120.544 43.6798 120.728 43.2878 120.792 42.7918H122.52C122.52 43.6878 122.192 44.4318 121.536 45.0238C120.896 45.6158 119.976 45.9118 118.776 45.9118ZM132.349 62.7598V57.4318H132.637C132.973 57.4318 133.285 57.3358 133.573 57.1438C133.861 56.9518 134.117 56.6238 134.341 56.1598C134.565 55.6798 134.749 55.0238 134.893 54.1918C135.037 53.3438 135.125 52.2798 135.157 50.9998L135.301 47.2078H144.253V57.4318H145.981V62.7598H143.653V59.7598H134.653V62.7598H132.349ZM136.117 57.4318H141.613V49.4878H137.629L137.557 51.2398C137.509 52.4558 137.421 53.4798 137.293 54.3118C137.181 55.1438 137.021 55.8078 136.813 56.3038C136.621 56.7998 136.389 57.1758 136.117 57.4318ZM153.909 59.9998C152.933 59.9998 152.045 59.8318 151.245 59.4958C150.461 59.1438 149.781 58.6718 149.205 58.0798C148.629 57.4718 148.181 56.7838 147.861 56.0158C147.557 55.2318 147.405 54.3998 147.405 53.5198C147.405 52.3358 147.677 51.2558 148.221 50.2798C148.765 49.2878 149.525 48.4958 150.501 47.9038C151.477 47.2958 152.621 46.9918 153.933 46.9918C155.245 46.9918 156.373 47.2958 157.317 47.9038C158.277 48.4958 159.021 49.2798 159.549 50.2558C160.077 51.2318 160.341 52.2798 160.341 53.3998C160.341 53.5918 160.333 53.7758 160.317 53.9518C160.301 54.1118 160.285 54.2478 160.269 54.3598H150.213C150.261 55.0958 150.461 55.7438 150.813 56.3038C151.181 56.8478 151.645 57.2798 152.205 57.5998C152.765 57.9038 153.365 58.0558 154.005 58.0558C154.709 58.0558 155.373 57.8798 155.997 57.5278C156.637 57.1758 157.069 56.7118 157.293 56.1358L159.549 56.7838C159.277 57.3918 158.861 57.9438 158.301 58.4398C157.757 58.9198 157.109 59.3038 156.357 59.5918C155.605 59.8638 154.789 59.9998 153.909 59.9998ZM150.141 52.6078H157.725C157.677 51.8878 157.469 51.2558 157.101 50.7118C156.749 50.1518 156.293 49.7198 155.733 49.4158C155.189 49.0958 154.581 48.9358 153.909 48.9358C153.253 48.9358 152.645 49.0958 152.085 49.4158C151.541 49.7198 151.093 50.1518 150.741 50.7118C150.389 51.2558 150.189 51.8878 150.141 52.6078ZM162.494 59.7598V47.2078H165.134V52.1998H170.966V47.2078H173.606V59.7598H170.966V54.4798H165.134V59.7598H162.494ZM176.791 59.7598V47.2078H179.431V51.3358H182.431C183.919 51.3358 185.047 51.7118 185.815 52.4638C186.599 53.2158 186.991 54.2078 186.991 55.4398C186.991 56.2718 186.823 57.0158 186.487 57.6718C186.151 58.3278 185.655 58.8398 184.999 59.2078C184.359 59.5758 183.559 59.7598 182.599 59.7598H176.791ZM179.431 57.7198H182.191C182.719 57.7198 183.143 57.6238 183.463 57.4318C183.783 57.2238 184.023 56.9518 184.183 56.6158C184.343 56.2638 184.423 55.8878 184.423 55.4878C184.423 55.0878 184.351 54.7278 184.207 54.4078C184.063 54.0718 183.823 53.8078 183.487 53.6158C183.167 53.4078 182.727 53.3038 182.167 53.3038H179.431V57.7198ZM189.647 53.6878V42.5518H192.287V53.6878H189.647ZM189.647 59.7598V56.4718H192.287V59.7598H189.647ZM207.293 59.9518C205.997 59.9518 204.821 59.6798 203.765 59.1358C202.725 58.5918 201.909 57.8398 201.317 56.8798L203.381 55.6078C203.765 56.2638 204.285 56.7758 204.941 57.1438C205.613 57.4958 206.381 57.6718 207.245 57.6718C208.333 57.6718 209.165 57.4158 209.741 56.9038C210.333 56.3918 210.629 55.7118 210.629 54.8638C210.629 54.3198 210.509 53.8398 210.269 53.4238C210.029 52.9918 209.669 52.6638 209.189 52.4398C208.709 52.1998 208.125 52.0798 207.437 52.0798H205.541V49.9918H207.437C207.997 49.9918 208.469 49.8878 208.853 49.6798C209.253 49.4558 209.557 49.1598 209.765 48.7918C209.973 48.4078 210.077 47.9758 210.077 47.4958C210.077 46.9998 209.957 46.5678 209.717 46.1998C209.493 45.8158 209.165 45.5198 208.733 45.3118C208.301 45.0878 207.773 44.9758 207.149 44.9758C206.285 44.9758 205.541 45.1518 204.917 45.5038C204.309 45.8558 203.829 46.3358 203.477 46.9438L201.509 45.5758C202.101 44.6478 202.861 43.9118 203.789 43.3678C204.733 42.8238 205.893 42.5518 207.269 42.5518C208.373 42.5518 209.325 42.7358 210.125 43.1038C210.941 43.4558 211.573 43.9758 212.021 44.6638C212.469 45.3358 212.693 46.1518 212.693 47.1118C212.693 47.9118 212.493 48.6638 212.093 49.3678C211.709 50.0558 211.109 50.5758 210.293 50.9278C211.269 51.1998 212.021 51.7118 212.549 52.4638C213.093 53.2158 213.365 54.0958 213.365 55.1038C213.365 56.1278 213.101 57.0078 212.573 57.7438C212.045 58.4638 211.325 59.0158 210.413 59.3998C209.517 59.7678 208.477 59.9518 207.293 59.9518ZM214.996 56.0878C214.996 55.2878 215.22 54.5918 215.668 53.9998C216.132 53.3918 216.764 52.9278 217.564 52.6078C218.364 52.2718 219.292 52.1038 220.348 52.1038C220.908 52.1038 221.476 52.1438 222.052 52.2238C222.644 52.3038 223.164 52.4318 223.612 52.6078V51.8158C223.612 50.9358 223.348 50.2478 222.82 49.7518C222.292 49.2558 221.532 49.0078 220.54 49.0078C219.836 49.0078 219.172 49.1358 218.548 49.3918C217.924 49.6318 217.26 49.9758 216.556 50.4238L215.668 48.6478C216.5 48.0878 217.332 47.6718 218.164 47.3998C219.012 47.1278 219.9 46.9918 220.828 46.9918C222.508 46.9918 223.828 47.4398 224.788 48.3358C225.764 49.2158 226.252 50.4718 226.252 52.1038V56.7838C226.252 57.0878 226.3 57.3038 226.396 57.4318C226.508 57.5598 226.692 57.6318 226.948 57.6478V59.7598C226.708 59.8078 226.492 59.8398 226.3 59.8558C226.108 59.8718 225.948 59.8798 225.82 59.8798C225.26 59.8798 224.836 59.7438 224.548 59.4718C224.26 59.1998 224.092 58.8798 224.044 58.5118L223.972 57.7918C223.428 58.4958 222.732 59.0398 221.884 59.4238C221.036 59.8078 220.18 59.9998 219.316 59.9998C218.484 59.9998 217.74 59.8318 217.084 59.4958C216.428 59.1438 215.916 58.6718 215.548 58.0798C215.18 57.4878 214.996 56.8238 214.996 56.0878ZM222.988 56.8558C223.18 56.6478 223.332 56.4398 223.444 56.2318C223.556 56.0238 223.612 55.8398 223.612 55.6798V54.2398C223.164 54.0638 222.692 53.9358 222.196 53.8558C221.7 53.7598 221.212 53.7118 220.732 53.7118C219.772 53.7118 218.988 53.9038 218.38 54.2878C217.788 54.6718 217.492 55.1998 217.492 55.8718C217.492 56.2398 217.588 56.5918 217.78 56.9278C217.988 57.2638 218.276 57.5358 218.644 57.7438C219.028 57.9518 219.5 58.0558 220.06 58.0558C220.636 58.0558 221.188 57.9438 221.716 57.7198C222.244 57.4958 222.668 57.2078 222.988 56.8558ZM229.455 59.7598V47.2078H240.255V59.7598H237.615V49.5358H232.095V59.7598H229.455ZM249.087 59.9998C248.095 59.9998 247.207 59.8318 246.423 59.4958C245.639 59.1438 244.959 58.6638 244.383 58.0558C243.823 57.4478 243.391 56.7598 243.087 55.9918C242.783 55.2078 242.631 54.3758 242.631 53.4958C242.631 52.6158 242.783 51.7838 243.087 50.9998C243.391 50.2158 243.823 49.5278 244.383 48.9358C244.959 48.3278 245.639 47.8558 246.423 47.5198C247.223 47.1678 248.111 46.9918 249.087 46.9918C250.063 46.9918 250.943 47.1678 251.727 47.5198C252.527 47.8558 253.207 48.3278 253.767 48.9358C254.343 49.5278 254.783 50.2158 255.087 50.9998C255.391 51.7838 255.543 52.6158 255.543 53.4958C255.543 54.3758 255.391 55.2078 255.087 55.9918C254.783 56.7598 254.343 57.4478 253.767 58.0558C253.207 58.6638 252.527 59.1438 251.727 59.4958C250.943 59.8318 250.063 59.9998 249.087 59.9998ZM245.343 53.5198C245.343 54.3198 245.511 55.0398 245.847 55.6798C246.183 56.3198 246.631 56.8238 247.191 57.1918C247.751 57.5598 248.383 57.7438 249.087 57.7438C249.775 57.7438 250.399 57.5598 250.959 57.1918C251.535 56.8078 251.991 56.2958 252.327 55.6558C252.663 54.9998 252.831 54.2798 252.831 53.4958C252.831 52.6958 252.663 51.9758 252.327 51.3358C251.991 50.6958 251.535 50.1918 250.959 49.8238C250.399 49.4398 249.775 49.2478 249.087 49.2478C248.383 49.2478 247.751 49.4398 247.191 49.8238C246.631 50.2078 246.183 50.7198 245.847 51.3598C245.511 51.9838 245.343 52.7038 245.343 53.5198ZM256.877 59.8798V57.5278C257.277 57.5278 257.637 57.4318 257.957 57.2398C258.277 57.0318 258.557 56.6958 258.797 56.2318C259.037 55.7518 259.229 55.0878 259.373 54.2398C259.517 53.3918 259.613 52.3118 259.661 50.9998L259.829 47.2078H268.781V59.7598H266.141V49.5358H262.157L262.109 51.2398C262.045 52.9198 261.893 54.3198 261.653 55.4398C261.413 56.5438 261.077 57.4238 260.645 58.0798C260.229 58.7198 259.701 59.1838 259.061 59.4718C258.437 59.7438 257.709 59.8798 256.877 59.8798ZM271.947 59.7598V47.2078H274.587V52.1998H280.419V47.2078H283.059V59.7598H280.419V54.4798H274.587V59.7598H271.947ZM286.244 59.7598V47.2318H288.884V56.2318L295.244 47.2078H297.644V59.7598H295.004V50.9518L288.716 59.7598H286.244ZM303.775 59.7598V49.5358H299.623V47.2078H310.591V49.5358H306.415V59.7598H303.775ZM318.252 59.9998C317.276 59.9998 316.388 59.8318 315.588 59.4958C314.804 59.1438 314.124 58.6718 313.548 58.0798C312.972 57.4718 312.524 56.7838 312.204 56.0158C311.9 55.2318 311.748 54.3998 311.748 53.5198C311.748 52.3358 312.02 51.2558 312.564 50.2798C313.108 49.2878 313.868 48.4958 314.844 47.9038C315.82 47.2958 316.964 46.9918 318.276 46.9918C319.588 46.9918 320.716 47.2958 321.66 47.9038C322.62 48.4958 323.364 49.2798 323.892 50.2558C324.42 51.2318 324.684 52.2798 324.684 53.3998C324.684 53.5918 324.676 53.7758 324.66 53.9518C324.644 54.1118 324.628 54.2478 324.612 54.3598H314.556C314.604 55.0958 314.804 55.7438 315.156 56.3038C315.524 56.8478 315.988 57.2798 316.548 57.5998C317.108 57.9038 317.708 58.0558 318.348 58.0558C319.052 58.0558 319.716 57.8798 320.34 57.5278C320.98 57.1758 321.412 56.7118 321.636 56.1358L323.892 56.7838C323.62 57.3918 323.204 57.9438 322.644 58.4398C322.1 58.9198 321.452 59.3038 320.7 59.5918C319.948 59.8638 319.132 59.9998 318.252 59.9998ZM314.484 52.6078H322.068C322.02 51.8878 321.812 51.2558 321.444 50.7118C321.092 50.1518 320.636 49.7198 320.076 49.4158C319.532 49.0958 318.924 48.9358 318.252 48.9358C317.596 48.9358 316.988 49.0958 316.428 49.4158C315.884 49.7198 315.436 50.1518 315.084 50.7118C314.732 51.2558 314.532 51.8878 314.484 52.6078ZM332.768 59.7598V47.2078H343.568V59.7598H340.928V49.5358H335.408V59.7598H332.768ZM353.888 59.9998C352.88 59.9998 351.992 59.7598 351.224 59.2798C350.456 58.7998 349.848 58.1758 349.4 57.4078V64.8718H346.76V47.2078H349.088V49.4638C349.568 48.7118 350.192 48.1118 350.96 47.6638C351.728 47.2158 352.584 46.9918 353.528 46.9918C354.392 46.9918 355.184 47.1678 355.904 47.5198C356.624 47.8558 357.248 48.3278 357.776 48.9358C358.304 49.5438 358.712 50.2398 359 51.0238C359.304 51.7918 359.456 52.6078 359.456 53.4718C359.456 54.6718 359.216 55.7678 358.736 56.7598C358.272 57.7518 357.616 58.5438 356.768 59.1358C355.936 59.7118 354.976 59.9998 353.888 59.9998ZM353.024 57.7438C353.584 57.7438 354.088 57.6238 354.536 57.3838C355 57.1438 355.392 56.8238 355.712 56.4238C356.048 56.0238 356.304 55.5678 356.48 55.0558C356.656 54.5438 356.744 54.0158 356.744 53.4718C356.744 52.8958 356.648 52.3518 356.456 51.8398C356.264 51.3278 355.984 50.8798 355.616 50.4958C355.264 50.1118 354.848 49.8078 354.368 49.5838C353.904 49.3598 353.392 49.2478 352.832 49.2478C352.496 49.2478 352.144 49.3118 351.776 49.4398C351.408 49.5678 351.064 49.7438 350.744 49.9678C350.424 50.1918 350.144 50.4558 349.904 50.7598C349.664 51.0638 349.496 51.3838 349.4 51.7198V55.0078C349.624 55.5198 349.92 55.9838 350.288 56.3998C350.656 56.7998 351.08 57.1278 351.56 57.3838C352.04 57.6238 352.528 57.7438 353.024 57.7438ZM367.518 59.9998C366.542 59.9998 365.654 59.8318 364.854 59.4958C364.07 59.1438 363.39 58.6718 362.814 58.0798C362.238 57.4718 361.79 56.7838 361.47 56.0158C361.166 55.2318 361.014 54.3998 361.014 53.5198C361.014 52.3358 361.286 51.2558 361.83 50.2798C362.374 49.2878 363.134 48.4958 364.11 47.9038C365.086 47.2958 366.23 46.9918 367.542 46.9918C368.854 46.9918 369.982 47.2958 370.926 47.9038C371.886 48.4958 372.63 49.2798 373.158 50.2558C373.686 51.2318 373.95 52.2798 373.95 53.3998C373.95 53.5918 373.942 53.7758 373.926 53.9518C373.91 54.1118 373.894 54.2478 373.878 54.3598H363.822C363.87 55.0958 364.07 55.7438 364.422 56.3038C364.79 56.8478 365.254 57.2798 365.814 57.5998C366.374 57.9038 366.974 58.0558 367.614 58.0558C368.318 58.0558 368.982 57.8798 369.606 57.5278C370.246 57.1758 370.678 56.7118 370.902 56.1358L373.158 56.7838C372.886 57.3918 372.47 57.9438 371.91 58.4398C371.366 58.9198 370.718 59.3038 369.966 59.5918C369.214 59.8638 368.398 59.9998 367.518 59.9998ZM363.75 52.6078H371.334C371.286 51.8878 371.078 51.2558 370.71 50.7118C370.358 50.1518 369.902 49.7198 369.342 49.4158C368.798 49.0958 368.19 48.9358 367.518 48.9358C366.862 48.9358 366.254 49.0958 365.694 49.4158C365.15 49.7198 364.702 50.1518 364.35 50.7118C363.998 51.2558 363.798 51.8878 363.75 52.6078ZM374.904 62.7598V57.4318H375.192C375.528 57.4318 375.84 57.3358 376.128 57.1438C376.416 56.9518 376.672 56.6238 376.896 56.1598C377.12 55.6798 377.304 55.0238 377.448 54.1918C377.592 53.3438 377.68 52.2798 377.712 50.9998L377.856 47.2078H386.808V57.4318H388.536V62.7598H386.208V59.7598H377.208V62.7598H374.904ZM378.672 57.4318H384.168V49.4878H380.184L380.112 51.2398C380.064 52.4558 379.976 53.4798 379.848 54.3118C379.736 55.1438 379.576 55.8078 379.368 56.3038C379.176 56.7998 378.944 57.1758 378.672 57.4318ZM390.775 59.7598V47.2078H397.495C398.295 47.2078 398.951 47.3598 399.463 47.6638C399.991 47.9518 400.383 48.3278 400.639 48.7918C400.895 49.2398 401.023 49.7358 401.023 50.2798C401.023 50.9678 400.863 51.5758 400.543 52.1038C400.223 52.6318 399.751 53.0318 399.127 53.3038C399.847 53.5118 400.431 53.8798 400.879 54.4078C401.343 54.9198 401.575 55.5838 401.575 56.3998C401.575 57.1358 401.399 57.7598 401.047 58.2718C400.695 58.7678 400.191 59.1438 399.535 59.3998C398.895 59.6398 398.143 59.7598 397.279 59.7598H390.775ZM393.271 57.9358H397.207C397.543 57.9358 397.847 57.8558 398.119 57.6958C398.407 57.5198 398.631 57.2958 398.791 57.0238C398.951 56.7358 399.031 56.4318 399.031 56.1118C399.031 55.7598 398.951 55.4478 398.791 55.1758C398.647 54.9038 398.439 54.6878 398.167 54.5278C397.911 54.3678 397.607 54.2878 397.255 54.2878H393.271V57.9358ZM393.271 52.5838H396.823C397.159 52.5838 397.455 52.5038 397.711 52.3438C397.967 52.1678 398.167 51.9358 398.311 51.6478C398.455 51.3598 398.527 51.0558 398.527 50.7358C398.527 50.2718 398.375 49.8718 398.071 49.5358C397.767 49.1998 397.367 49.0318 396.871 49.0318H393.271V52.5838ZM403.176 56.0878C403.176 55.2878 403.4 54.5918 403.848 53.9998C404.312 53.3918 404.944 52.9278 405.744 52.6078C406.544 52.2718 407.472 52.1038 408.528 52.1038C409.088 52.1038 409.656 52.1438 410.232 52.2238C410.824 52.3038 411.344 52.4318 411.792 52.6078V51.8158C411.792 50.9358 411.528 50.2478 411 49.7518C410.472 49.2558 409.712 49.0078 408.72 49.0078C408.016 49.0078 407.352 49.1358 406.728 49.3918C406.104 49.6318 405.44 49.9758 404.736 50.4238L403.848 48.6478C404.68 48.0878 405.512 47.6718 406.344 47.3998C407.192 47.1278 408.08 46.9918 409.008 46.9918C410.688 46.9918 412.008 47.4398 412.968 48.3358C413.944 49.2158 414.432 50.4718 414.432 52.1038V56.7838C414.432 57.0878 414.48 57.3038 414.576 57.4318C414.688 57.5598 414.872 57.6318 415.128 57.6478V59.7598C414.888 59.8078 414.672 59.8398 414.48 59.8558C414.288 59.8718 414.128 59.8798 414 59.8798C413.44 59.8798 413.016 59.7438 412.728 59.4718C412.44 59.1998 412.272 58.8798 412.224 58.5118L412.152 57.7918C411.608 58.4958 410.912 59.0398 410.064 59.4238C409.216 59.8078 408.36 59.9998 407.496 59.9998C406.664 59.9998 405.92 59.8318 405.264 59.4958C404.608 59.1438 404.096 58.6718 403.728 58.0798C403.36 57.4878 403.176 56.8238 403.176 56.0878ZM411.168 56.8558C411.36 56.6478 411.512 56.4398 411.624 56.2318C411.736 56.0238 411.792 55.8398 411.792 55.6798V54.2398C411.344 54.0638 410.872 53.9358 410.376 53.8558C409.88 53.7598 409.392 53.7118 408.912 53.7118C407.952 53.7118 407.168 53.9038 406.56 54.2878C405.968 54.6718 405.672 55.1998 405.672 55.8718C405.672 56.2398 405.768 56.5918 405.96 56.9278C406.168 57.2638 406.456 57.5358 406.824 57.7438C407.208 57.9518 407.68 58.0558 408.24 58.0558C408.816 58.0558 409.368 57.9438 409.896 57.7198C410.424 57.4958 410.848 57.2078 411.168 56.8558ZM424.763 59.9998C423.755 59.9998 422.867 59.7598 422.099 59.2798C421.331 58.7998 420.723 58.1758 420.275 57.4078V64.8718H417.635V47.2078H419.963V49.4638C420.443 48.7118 421.067 48.1118 421.835 47.6638C422.603 47.2158 423.459 46.9918 424.403 46.9918C425.267 46.9918 426.059 47.1678 426.779 47.5198C427.499 47.8558 428.123 48.3278 428.651 48.9358C429.179 49.5438 429.587 50.2398 429.875 51.0238C430.179 51.7918 430.331 52.6078 430.331 53.4718C430.331 54.6718 430.091 55.7678 429.611 56.7598C429.147 57.7518 428.491 58.5438 427.643 59.1358C426.811 59.7118 425.851 59.9998 424.763 59.9998ZM423.899 57.7438C424.459 57.7438 424.963 57.6238 425.411 57.3838C425.875 57.1438 426.267 56.8238 426.587 56.4238C426.923 56.0238 427.179 55.5678 427.355 55.0558C427.531 54.5438 427.619 54.0158 427.619 53.4718C427.619 52.8958 427.523 52.3518 427.331 51.8398C427.139 51.3278 426.859 50.8798 426.491 50.4958C426.139 50.1118 425.723 49.8078 425.243 49.5838C424.779 49.3598 424.267 49.2478 423.707 49.2478C423.371 49.2478 423.019 49.3118 422.651 49.4398C422.283 49.5678 421.939 49.7438 421.619 49.9678C421.299 50.1918 421.019 50.4558 420.779 50.7598C420.539 51.0638 420.371 51.3838 420.275 51.7198V55.0078C420.499 55.5198 420.795 55.9838 421.163 56.3998C421.531 56.7998 421.955 57.1278 422.435 57.3838C422.915 57.6238 423.403 57.7438 423.899 57.7438ZM432.705 59.7598V47.2318H435.345V56.2318L441.705 47.2078H444.105V59.7598H441.465V50.9518L435.177 59.7598H432.705ZM450.236 59.7598V49.5358H446.084V47.2078H457.052V49.5358H452.876V59.7598H450.236ZM464.713 59.9998C463.737 59.9998 462.849 59.8318 462.049 59.4958C461.265 59.1438 460.585 58.6718 460.009 58.0798C459.433 57.4718 458.985 56.7838 458.665 56.0158C458.361 55.2318 458.209 54.3998 458.209 53.5198C458.209 52.3358 458.481 51.2558 459.025 50.2798C459.569 49.2878 460.329 48.4958 461.305 47.9038C462.281 47.2958 463.425 46.9918 464.737 46.9918C466.049 46.9918 467.177 47.2958 468.121 47.9038C469.081 48.4958 469.825 49.2798 470.353 50.2558C470.881 51.2318 471.145 52.2798 471.145 53.3998C471.145 53.5918 471.137 53.7758 471.121 53.9518C471.105 54.1118 471.089 54.2478 471.073 54.3598H461.017C461.065 55.0958 461.265 55.7438 461.617 56.3038C461.985 56.8478 462.449 57.2798 463.009 57.5998C463.569 57.9038 464.169 58.0558 464.809 58.0558C465.513 58.0558 466.177 57.8798 466.801 57.5278C467.441 57.1758 467.873 56.7118 468.097 56.1358L470.353 56.7838C470.081 57.3918 469.665 57.9438 469.105 58.4398C468.561 58.9198 467.913 59.3038 467.161 59.5918C466.409 59.8638 465.593 59.9998 464.713 59.9998ZM460.945 52.6078H468.529C468.481 51.8878 468.273 51.2558 467.905 50.7118C467.553 50.1518 467.097 49.7198 466.537 49.4158C465.993 49.0958 465.385 48.9358 464.713 48.9358C464.057 48.9358 463.449 49.0958 462.889 49.4158C462.345 49.7198 461.897 50.1518 461.545 50.7118C461.193 51.2558 460.993 51.8878 460.945 52.6078ZM472.291 59.8798V57.5278C472.691 57.5278 473.051 57.4318 473.371 57.2398C473.691 57.0318 473.971 56.6958 474.211 56.2318C474.451 55.7518 474.643 55.0878 474.787 54.2398C474.931 53.3918 475.027 52.3118 475.075 50.9998L475.243 47.2078H484.195V59.7598H481.555V49.5358H477.571L477.523 51.2398C477.459 52.9198 477.307 54.3198 477.067 55.4398C476.827 56.5438 476.491 57.4238 476.059 58.0798C475.643 58.7198 475.115 59.1838 474.475 59.4718C473.851 59.7438 473.123 59.8798 472.291 59.8798ZM487.361 59.7598V47.2078H490.001V51.3358H493.001C494.489 51.3358 495.617 51.7118 496.385 52.4638C497.169 53.2158 497.561 54.2078 497.561 55.4398C497.561 56.2718 497.393 57.0158 497.057 57.6718C496.721 58.3278 496.225 58.8398 495.569 59.2078C494.929 59.5758 494.129 59.7598 493.169 59.7598H487.361ZM490.001 57.7198H492.761C493.289 57.7198 493.713 57.6238 494.033 57.4318C494.353 57.2238 494.593 56.9518 494.753 56.6158C494.913 56.2638 494.993 55.8878 494.993 55.4878C494.993 55.0878 494.921 54.7278 494.777 54.4078C494.633 54.0718 494.393 53.8078 494.057 53.6158C493.737 53.4078 493.297 53.3038 492.737 53.3038H490.001V57.7198ZM499.713 59.7598V47.2078H502.353V52.1998H508.185V47.2078H510.825V59.7598H508.185V54.4798H502.353V59.7598H499.713ZM514.01 59.7598V47.2078H516.65V51.3358H519.026C520.514 51.3358 521.65 51.7118 522.434 52.4638C523.218 53.2158 523.61 54.2078 523.61 55.4398C523.61 56.2718 523.442 57.0158 523.106 57.6718C522.77 58.3278 522.274 58.8398 521.618 59.2078C520.978 59.5758 520.178 59.7598 519.218 59.7598H514.01ZM516.65 57.7198H518.81C519.338 57.7198 519.762 57.6238 520.082 57.4318C520.402 57.2238 520.634 56.9518 520.778 56.6158C520.938 56.2638 521.018 55.8878 521.018 55.4878C521.018 55.0878 520.946 54.7278 520.802 54.4078C520.658 54.0718 520.418 53.8078 520.082 53.6158C519.762 53.4078 519.33 53.3038 518.786 53.3038H516.65V57.7198ZM525.674 59.7598V47.2318H528.314V59.7598H525.674ZM531.494 59.7598V47.2318H534.134V56.2318L540.494 47.2078H542.894V59.7598H540.254V50.9518L533.966 59.7598H531.494ZM537.206 45.9118C536.022 45.9118 535.102 45.6158 534.446 45.0238C533.806 44.4318 533.486 43.6878 533.486 42.7918H535.214C535.214 43.2558 535.366 43.6398 535.67 43.9438C535.99 44.2478 536.502 44.3998 537.206 44.3998C537.894 44.3998 538.382 44.2558 538.67 43.9678C538.974 43.6798 539.158 43.2878 539.222 42.7918H540.95C540.95 43.6878 540.622 44.4318 539.966 45.0238C539.326 45.6158 538.406 45.9118 537.206 45.9118ZM33.0573 95.7598V78.7198H45.0333V81.0718H35.7453V85.8478H40.7373C42.6253 85.8478 44.0413 86.2958 44.9853 87.1918C45.9293 88.0718 46.4013 89.2398 46.4013 90.6958C46.4013 91.6718 46.1933 92.5438 45.7773 93.3118C45.3773 94.0638 44.7693 94.6638 43.9533 95.1118C43.1533 95.5438 42.1373 95.7598 40.9053 95.7598H33.0573ZM35.7453 93.4078H40.5453C41.2813 93.4078 41.8733 93.2718 42.3213 92.9998C42.7853 92.7278 43.1133 92.3838 43.3053 91.9678C43.5133 91.5358 43.6173 91.0878 43.6173 90.6238C43.6173 90.1598 43.5293 89.7278 43.3533 89.3278C43.1773 88.9278 42.8573 88.6078 42.3933 88.3678C41.9453 88.1118 41.3133 87.9838 40.4973 87.9838H35.7453V93.4078ZM55.7159 95.9998C54.7079 95.9998 53.8199 95.7598 53.0519 95.2798C52.2839 94.7998 51.6759 94.1758 51.2279 93.4078V100.872H48.5879V83.2078H50.9159V85.4638C51.3959 84.7118 52.0199 84.1118 52.7879 83.6638C53.5559 83.2158 54.4119 82.9918 55.3559 82.9918C56.2199 82.9918 57.0119 83.1678 57.7319 83.5198C58.4519 83.8558 59.0759 84.3278 59.6039 84.9358C60.1319 85.5438 60.5399 86.2398 60.8279 87.0238C61.1319 87.7918 61.2839 88.6078 61.2839 89.4718C61.2839 90.6718 61.0439 91.7678 60.5639 92.7598C60.0999 93.7518 59.4439 94.5438 58.5959 95.1358C57.7639 95.7118 56.8039 95.9998 55.7159 95.9998ZM54.8519 93.7438C55.4119 93.7438 55.9159 93.6238 56.3639 93.3838C56.8279 93.1438 57.2199 92.8238 57.5399 92.4238C57.8759 92.0238 58.1319 91.5678 58.3079 91.0558C58.4839 90.5438 58.5719 90.0158 58.5719 89.4718C58.5719 88.8958 58.4759 88.3518 58.2839 87.8398C58.0919 87.3278 57.8119 86.8798 57.4439 86.4958C57.0919 86.1118 56.6759 85.8078 56.1959 85.5838C55.7319 85.3598 55.2199 85.2478 54.6599 85.2478C54.3239 85.2478 53.9719 85.3118 53.6039 85.4398C53.2359 85.5678 52.8919 85.7438 52.5719 85.9678C52.2519 86.1918 51.9719 86.4558 51.7319 86.7598C51.4919 87.0638 51.3239 87.3838 51.2279 87.7198V91.0078C51.4519 91.5198 51.7479 91.9838 52.1159 92.3998C52.4839 92.7998 52.9079 93.1278 53.3879 93.3838C53.8679 93.6238 54.3559 93.7438 54.8519 93.7438ZM63.6582 95.7598V83.2318H66.2982V92.2318L72.6582 83.2078H75.0582V95.7598H72.4182V86.9518L66.1302 95.7598H63.6582ZM84.0449 100.872V95.7598H83.6129C82.3169 95.7598 81.2049 95.4718 80.2769 94.8958C79.3489 94.3198 78.6369 93.5598 78.1409 92.6158C77.6449 91.6558 77.3969 90.6158 77.3969 89.4958C77.3969 88.3758 77.6449 87.3438 78.1409 86.3998C78.6529 85.4398 79.3729 84.6718 80.3009 84.0958C81.2289 83.5198 82.3329 83.2318 83.6129 83.2318H84.0449V78.2398H86.6849V83.2318H87.1169C88.3969 83.2318 89.5009 83.5198 90.4289 84.0958C91.3569 84.6718 92.0689 85.4398 92.5649 86.3998C93.0769 87.3438 93.3329 88.3758 93.3329 89.4958C93.3329 90.6158 93.0849 91.6558 92.5889 92.6158C92.0929 93.5598 91.3809 94.3198 90.4529 94.8958C89.5249 95.4718 88.4129 95.7598 87.1169 95.7598H86.6849V100.872H84.0449ZM83.6129 93.6238H84.1649V85.3678H83.6129C82.9089 85.3678 82.2849 85.5518 81.7409 85.9198C81.1969 86.2878 80.7649 86.7838 80.4449 87.4078C80.1409 88.0318 79.9889 88.7358 79.9889 89.5198C79.9889 90.3038 80.1409 91.0078 80.4449 91.6318C80.7489 92.2558 81.1729 92.7438 81.7169 93.0958C82.2609 93.4478 82.8929 93.6238 83.6129 93.6238ZM86.5409 93.6238H87.1169C87.8369 93.6238 88.4689 93.4478 89.0129 93.0958C89.5569 92.7438 89.9809 92.2558 90.2849 91.6318C90.6049 91.0078 90.7649 90.3038 90.7649 89.5198C90.7649 88.7358 90.6049 88.0318 90.2849 87.4078C89.9809 86.7838 89.5569 86.2878 89.0129 85.9198C88.4689 85.5518 87.8369 85.3678 87.1169 85.3678H86.5409V93.6238ZM101.604 95.7598V83.2078H104.244V88.1998H110.076V83.2078H112.716V95.7598H110.076V90.4798H104.244V95.7598H101.604ZM114.988 92.0878C114.988 91.2878 115.212 90.5918 115.66 89.9998C116.124 89.3918 116.756 88.9278 117.556 88.6078C118.356 88.2718 119.284 88.1038 120.34 88.1038C120.9 88.1038 121.468 88.1438 122.044 88.2238C122.636 88.3038 123.156 88.4318 123.604 88.6078V87.8158C123.604 86.9358 123.34 86.2478 122.812 85.7518C122.284 85.2558 121.524 85.0078 120.532 85.0078C119.828 85.0078 119.164 85.1358 118.54 85.3918C117.916 85.6318 117.252 85.9758 116.548 86.4238L115.66 84.6478C116.492 84.0878 117.324 83.6718 118.156 83.3998C119.004 83.1278 119.892 82.9918 120.82 82.9918C122.5 82.9918 123.82 83.4398 124.78 84.3358C125.756 85.2158 126.244 86.4718 126.244 88.1038V92.7838C126.244 93.0878 126.292 93.3038 126.388 93.4318C126.5 93.5598 126.684 93.6318 126.94 93.6478V95.7598C126.7 95.8078 126.484 95.8398 126.292 95.8558C126.1 95.8718 125.94 95.8798 125.812 95.8798C125.252 95.8798 124.828 95.7438 124.54 95.4718C124.252 95.1998 124.084 94.8798 124.036 94.5118L123.964 93.7918C123.42 94.4958 122.724 95.0398 121.876 95.4238C121.028 95.8078 120.172 95.9998 119.308 95.9998C118.476 95.9998 117.732 95.8318 117.076 95.4958C116.42 95.1438 115.908 94.6718 115.54 94.0798C115.172 93.4878 114.988 92.8238 114.988 92.0878ZM122.98 92.8558C123.172 92.6478 123.324 92.4398 123.436 92.2318C123.548 92.0238 123.604 91.8398 123.604 91.6798V90.2398C123.156 90.0638 122.684 89.9358 122.188 89.8558C121.692 89.7598 121.204 89.7118 120.724 89.7118C119.764 89.7118 118.98 89.9038 118.372 90.2878C117.78 90.6718 117.484 91.1998 117.484 91.8718C117.484 92.2398 117.58 92.5918 117.772 92.9278C117.98 93.2638 118.268 93.5358 118.636 93.7438C119.02 93.9518 119.492 94.0558 120.052 94.0558C120.628 94.0558 121.18 93.9438 121.708 93.7198C122.236 93.4958 122.66 93.2078 122.98 92.8558ZM141.449 95.9998C139.353 95.9998 137.761 95.3678 136.673 94.1038C135.585 92.8398 135.041 91.0318 135.041 88.6798C135.041 87.1438 135.169 85.8478 135.425 84.7918C135.697 83.7198 136.089 82.8398 136.601 82.1518C137.129 81.4638 137.777 80.9038 138.545 80.4718C139.329 80.0238 140.233 79.6638 141.257 79.3918L146.609 77.9038L146.705 80.1118L141.449 81.5998C140.617 81.8558 139.905 82.1918 139.313 82.6078C138.737 83.0238 138.281 83.5678 137.945 84.2398C137.609 84.8958 137.385 85.7278 137.273 86.7358C137.721 85.9198 138.361 85.2798 139.193 84.8158C140.025 84.3518 141.009 84.1198 142.145 84.1198C143.313 84.1198 144.321 84.3678 145.169 84.8638C146.017 85.3438 146.673 86.0158 147.137 86.8798C147.601 87.7438 147.833 88.7358 147.833 89.8558C147.833 91.0718 147.585 92.1438 147.089 93.0718C146.609 93.9838 145.889 94.7038 144.929 95.2318C143.985 95.7438 142.825 95.9998 141.449 95.9998ZM141.449 93.7438C142.617 93.7438 143.521 93.3998 144.161 92.7118C144.817 92.0238 145.145 91.1118 145.145 89.9758C145.145 88.8878 144.817 87.9998 144.161 87.3118C143.521 86.6078 142.617 86.2558 141.449 86.2558C140.761 86.2558 140.137 86.4078 139.577 86.7118C139.017 86.9998 138.577 87.4238 138.257 87.9838C137.937 88.5278 137.777 89.1918 137.777 89.9758C137.777 90.7118 137.921 91.3678 138.209 91.9438C138.497 92.5038 138.913 92.9438 139.457 93.2638C140.001 93.5838 140.665 93.7438 141.449 93.7438ZM155.901 95.9998C154.925 95.9998 154.037 95.8318 153.237 95.4958C152.453 95.1438 151.773 94.6718 151.197 94.0798C150.621 93.4718 150.173 92.7838 149.853 92.0158C149.549 91.2318 149.397 90.3998 149.397 89.5198C149.397 88.3358 149.669 87.2558 150.213 86.2798C150.757 85.2878 151.517 84.4958 152.493 83.9038C153.469 83.2958 154.613 82.9918 155.925 82.9918C157.237 82.9918 158.365 83.2958 159.309 83.9038C160.269 84.4958 161.013 85.2798 161.541 86.2558C162.069 87.2318 162.333 88.2798 162.333 89.3998C162.333 89.5918 162.325 89.7758 162.309 89.9518C162.293 90.1118 162.277 90.2478 162.261 90.3598H152.205C152.253 91.0958 152.453 91.7438 152.805 92.3038C153.173 92.8478 153.637 93.2798 154.197 93.5998C154.757 93.9038 155.357 94.0558 155.997 94.0558C156.701 94.0558 157.365 93.8798 157.989 93.5278C158.629 93.1758 159.061 92.7118 159.285 92.1358L161.541 92.7838C161.269 93.3918 160.853 93.9438 160.293 94.4398C159.749 94.9198 159.101 95.3038 158.349 95.5918C157.597 95.8638 156.781 95.9998 155.901 95.9998ZM152.133 88.6078H159.717C159.669 87.8878 159.461 87.2558 159.093 86.7118C158.741 86.1518 158.285 85.7198 157.725 85.4158C157.181 85.0958 156.573 84.9358 155.901 84.9358C155.245 84.9358 154.637 85.0958 154.077 85.4158C153.533 85.7198 153.085 86.1518 152.733 86.7118C152.381 87.2558 152.181 87.8878 152.133 88.6078ZM170.174 95.9998C169.198 95.9998 168.31 95.8318 167.51 95.4958C166.726 95.1438 166.046 94.6638 165.47 94.0558C164.894 93.4478 164.446 92.7518 164.126 91.9678C163.822 91.1838 163.67 90.3518 163.67 89.4718C163.67 88.2878 163.934 87.2078 164.462 86.2318C165.006 85.2558 165.758 84.4718 166.718 83.8798C167.694 83.2878 168.846 82.9918 170.174 82.9918C171.454 82.9918 172.566 83.2798 173.51 83.8558C174.47 84.4158 175.174 85.1678 175.622 86.1118L173.054 86.9278C172.766 86.3998 172.358 85.9918 171.83 85.7038C171.318 85.3998 170.75 85.2478 170.126 85.2478C169.422 85.2478 168.782 85.4318 168.206 85.7998C167.646 86.1518 167.198 86.6478 166.862 87.2878C166.542 87.9118 166.382 88.6398 166.382 89.4718C166.382 90.2718 166.55 90.9998 166.886 91.6558C167.222 92.2958 167.67 92.8078 168.23 93.1918C168.806 93.5598 169.446 93.7438 170.15 93.7438C170.582 93.7438 170.998 93.6718 171.398 93.5278C171.814 93.3678 172.174 93.1598 172.478 92.9038C172.782 92.6318 172.998 92.3358 173.126 92.0158L175.718 92.7838C175.446 93.4078 175.038 93.9598 174.494 94.4398C173.966 94.9198 173.334 95.3038 172.598 95.5918C171.878 95.8638 171.07 95.9998 170.174 95.9998ZM177.893 95.7598V83.2078H188.693V95.7598H186.053V85.5358H180.533V95.7598H177.893ZM190.877 95.8798V93.5278C191.277 93.5278 191.637 93.4318 191.957 93.2398C192.277 93.0318 192.557 92.6958 192.797 92.2318C193.037 91.7518 193.229 91.0878 193.373 90.2398C193.517 89.3918 193.613 88.3118 193.661 86.9998L193.829 83.2078H202.781V95.7598H200.141V85.5358H196.157L196.109 87.2398C196.045 88.9198 195.893 90.3198 195.653 91.4398C195.413 92.5438 195.077 93.4238 194.645 94.0798C194.229 94.7198 193.701 95.1838 193.061 95.4718C192.437 95.7438 191.709 95.8798 190.877 95.8798ZM205.035 92.0878C205.035 91.2878 205.259 90.5918 205.707 89.9998C206.171 89.3918 206.803 88.9278 207.603 88.6078C208.403 88.2718 209.331 88.1038 210.387 88.1038C210.947 88.1038 211.515 88.1438 212.091 88.2238C212.683 88.3038 213.203 88.4318 213.651 88.6078V87.8158C213.651 86.9358 213.387 86.2478 212.859 85.7518C212.331 85.2558 211.571 85.0078 210.579 85.0078C209.875 85.0078 209.211 85.1358 208.587 85.3918C207.963 85.6318 207.299 85.9758 206.595 86.4238L205.707 84.6478C206.539 84.0878 207.371 83.6718 208.203 83.3998C209.051 83.1278 209.939 82.9918 210.867 82.9918C212.547 82.9918 213.867 83.4398 214.827 84.3358C215.803 85.2158 216.291 86.4718 216.291 88.1038V92.7838C216.291 93.0878 216.339 93.3038 216.435 93.4318C216.547 93.5598 216.731 93.6318 216.987 93.6478V95.7598C216.747 95.8078 216.531 95.8398 216.339 95.8558C216.147 95.8718 215.987 95.8798 215.859 95.8798C215.299 95.8798 214.875 95.7438 214.587 95.4718C214.299 95.1998 214.131 94.8798 214.083 94.5118L214.011 93.7918C213.467 94.4958 212.771 95.0398 211.923 95.4238C211.075 95.8078 210.219 95.9998 209.355 95.9998C208.523 95.9998 207.779 95.8318 207.123 95.4958C206.467 95.1438 205.955 94.6718 205.587 94.0798C205.219 93.4878 205.035 92.8238 205.035 92.0878ZM213.027 92.8558C213.219 92.6478 213.371 92.4398 213.483 92.2318C213.595 92.0238 213.651 91.8398 213.651 91.6798V90.2398C213.203 90.0638 212.731 89.9358 212.235 89.8558C211.739 89.7598 211.251 89.7118 210.771 89.7118C209.811 89.7118 209.027 89.9038 208.419 90.2878C207.827 90.6718 207.531 91.1998 207.531 91.8718C207.531 92.2398 207.627 92.5918 207.819 92.9278C208.027 93.2638 208.315 93.5358 208.683 93.7438C209.067 93.9518 209.539 94.0558 210.099 94.0558C210.675 94.0558 211.227 93.9438 211.755 93.7198C212.283 93.4958 212.707 93.2078 213.027 92.8558ZM222.33 95.7598V85.5358H218.178V83.2078H229.146V85.5358H224.97V95.7598H222.33ZM231.119 95.7598V83.2078H233.759V88.1998H239.591V83.2078H242.231V95.7598H239.591V90.4798H233.759V95.7598H231.119ZM246.886 101.088C246.598 101.088 246.294 101.048 245.974 100.968C245.654 100.888 245.318 100.768 244.966 100.608L245.638 98.6398C245.83 98.7358 246.014 98.8078 246.19 98.8558C246.366 98.9038 246.526 98.9278 246.67 98.9278C247.07 98.9278 247.43 98.7598 247.75 98.4238C248.086 98.1038 248.382 97.6158 248.638 96.9598L249.118 95.6638L243.814 83.2078H246.574L250.414 93.0718L253.822 83.2078H256.366L250.846 97.6798C250.574 98.4318 250.23 99.0558 249.814 99.5518C249.414 100.048 248.966 100.424 248.47 100.68C247.974 100.952 247.446 101.088 246.886 101.088ZM269.107 95.9998C268.003 95.9998 267.019 95.7678 266.155 95.3038C265.307 94.8398 264.619 94.2078 264.091 93.4078C263.579 92.5918 263.251 91.6718 263.107 90.6478H260.947V95.7598H258.307V83.2078H260.947V88.3438H263.107C263.251 87.2878 263.587 86.3598 264.115 85.5598C264.659 84.7438 265.355 84.1118 266.203 83.6638C267.051 83.2158 268.019 82.9918 269.107 82.9918C270.419 82.9918 271.539 83.2878 272.467 83.8798C273.395 84.4718 274.107 85.2558 274.603 86.2318C275.099 87.2078 275.347 88.2958 275.347 89.4958C275.347 90.7278 275.091 91.8318 274.579 92.8078C274.083 93.7838 273.363 94.5598 272.419 95.1358C271.491 95.7118 270.387 95.9998 269.107 95.9998ZM269.107 93.7438C269.811 93.7438 270.427 93.5678 270.955 93.2158C271.483 92.8478 271.899 92.3518 272.203 91.7278C272.507 91.0878 272.659 90.3438 272.659 89.4958C272.659 88.6318 272.507 87.8878 272.203 87.2638C271.899 86.6238 271.475 86.1278 270.931 85.7758C270.387 85.4238 269.779 85.2478 269.107 85.2478C268.435 85.2478 267.835 85.4238 267.307 85.7758C266.795 86.1278 266.395 86.6238 266.107 87.2638C265.819 87.9038 265.675 88.6478 265.675 89.4958C265.675 90.3598 265.819 91.1118 266.107 91.7518C266.411 92.3918 266.819 92.8878 267.331 93.2398C267.859 93.5758 268.451 93.7438 269.107 93.7438ZM283.643 95.7598V83.2078H286.259V88.1758H287.507L291.203 83.2078H294.131L289.547 89.2798L294.659 95.7598H291.611L287.483 90.5518H286.259V95.7598H283.643ZM301.658 95.9998C300.666 95.9998 299.778 95.8318 298.994 95.4958C298.21 95.1438 297.53 94.6638 296.954 94.0558C296.394 93.4478 295.962 92.7598 295.658 91.9918C295.354 91.2078 295.202 90.3758 295.202 89.4958C295.202 88.6158 295.354 87.7838 295.658 86.9998C295.962 86.2158 296.394 85.5278 296.954 84.9358C297.53 84.3278 298.21 83.8558 298.994 83.5198C299.794 83.1678 300.682 82.9918 301.658 82.9918C302.634 82.9918 303.514 83.1678 304.298 83.5198C305.098 83.8558 305.778 84.3278 306.338 84.9358C306.914 85.5278 307.354 86.2158 307.658 86.9998C307.962 87.7838 308.114 88.6158 308.114 89.4958C308.114 90.3758 307.962 91.2078 307.658 91.9918C307.354 92.7598 306.914 93.4478 306.338 94.0558C305.778 94.6638 305.098 95.1438 304.298 95.4958C303.514 95.8318 302.634 95.9998 301.658 95.9998ZM297.914 89.5198C297.914 90.3198 298.082 91.0398 298.418 91.6798C298.754 92.3198 299.202 92.8238 299.762 93.1918C300.322 93.5598 300.954 93.7438 301.658 93.7438C302.346 93.7438 302.97 93.5598 303.53 93.1918C304.106 92.8078 304.562 92.2958 304.898 91.6558C305.234 90.9998 305.402 90.2798 305.402 89.4958C305.402 88.6958 305.234 87.9758 304.898 87.3358C304.562 86.6958 304.106 86.1918 303.53 85.8238C302.97 85.4398 302.346 85.2478 301.658 85.2478C300.954 85.2478 300.322 85.4398 299.762 85.8238C299.202 86.2078 298.754 86.7198 298.418 87.3598C298.082 87.9838 297.914 88.7038 297.914 89.5198ZM310.455 95.7598V83.2078H313.095V88.1998H318.927V83.2078H321.567V95.7598H318.927V90.4798H313.095V95.7598H310.455ZM330.44 95.9998C329.464 95.9998 328.576 95.8318 327.776 95.4958C326.992 95.1438 326.312 94.6638 325.736 94.0558C325.16 93.4478 324.712 92.7518 324.392 91.9678C324.088 91.1838 323.936 90.3518 323.936 89.4718C323.936 88.2878 324.2 87.2078 324.728 86.2318C325.272 85.2558 326.024 84.4718 326.984 83.8798C327.96 83.2878 329.112 82.9918 330.44 82.9918C331.72 82.9918 332.832 83.2798 333.776 83.8558C334.736 84.4158 335.44 85.1678 335.888 86.1118L333.32 86.9278C333.032 86.3998 332.624 85.9918 332.096 85.7038C331.584 85.3998 331.016 85.2478 330.392 85.2478C329.688 85.2478 329.048 85.4318 328.472 85.7998C327.912 86.1518 327.464 86.6478 327.128 87.2878C326.808 87.9118 326.648 88.6398 326.648 89.4718C326.648 90.2718 326.816 90.9998 327.152 91.6558C327.488 92.2958 327.936 92.8078 328.496 93.1918C329.072 93.5598 329.712 93.7438 330.416 93.7438C330.848 93.7438 331.264 93.6718 331.664 93.5278C332.08 93.3678 332.44 93.1598 332.744 92.9038C333.048 92.6318 333.264 92.3358 333.392 92.0158L335.984 92.7838C335.712 93.4078 335.304 93.9598 334.76 94.4398C334.232 94.9198 333.6 95.3038 332.864 95.5918C332.144 95.8638 331.336 95.9998 330.44 95.9998ZM339.628 101.088C339.34 101.088 339.036 101.048 338.716 100.968C338.396 100.888 338.06 100.768 337.708 100.608L338.38 98.6398C338.572 98.7358 338.756 98.8078 338.932 98.8558C339.108 98.9038 339.268 98.9278 339.412 98.9278C339.812 98.9278 340.172 98.7598 340.492 98.4238C340.828 98.1038 341.124 97.6158 341.38 96.9598L341.86 95.6638L336.556 83.2078H339.316L343.156 93.0718L346.564 83.2078H349.108L343.588 97.6798C343.316 98.4318 342.972 99.0558 342.556 99.5518C342.156 100.048 341.708 100.424 341.212 100.68C340.716 100.952 340.188 101.088 339.628 101.088ZM350.041 95.8798V93.5278C350.441 93.5278 350.801 93.4318 351.121 93.2398C351.441 93.0318 351.721 92.6958 351.961 92.2318C352.201 91.7518 352.393 91.0878 352.537 90.2398C352.681 89.3918 352.777 88.3118 352.825 86.9998L352.993 83.2078H361.945V95.7598H359.305V85.5358H355.321L355.273 87.2398C355.209 88.9198 355.057 90.3198 354.817 91.4398C354.577 92.5438 354.241 93.4238 353.809 94.0798C353.393 94.7198 352.865 95.1838 352.225 95.4718C351.601 95.7438 350.873 95.8798 350.041 95.8798ZM365.111 95.7598V83.2078H367.751V87.3358H370.751C372.239 87.3358 373.367 87.7118 374.135 88.4638C374.919 89.2158 375.311 90.2078 375.311 91.4398C375.311 92.2718 375.143 93.0158 374.807 93.6718C374.471 94.3278 373.975 94.8398 373.319 95.2078C372.679 95.5758 371.879 95.7598 370.919 95.7598H365.111ZM367.751 93.7198H370.511C371.039 93.7198 371.463 93.6238 371.783 93.4318C372.103 93.2238 372.343 92.9518 372.503 92.6158C372.663 92.2638 372.743 91.8878 372.743 91.4878C372.743 91.0878 372.671 90.7278 372.527 90.4078C372.383 90.0718 372.143 89.8078 371.807 89.6158C371.487 89.4078 371.047 89.3038 370.487 89.3038H367.751V93.7198ZM380.439 95.7598V85.5358H376.287V83.2078H387.255V85.5358H383.079V95.7598H380.439ZM388.293 92.0878C388.293 91.2878 388.517 90.5918 388.965 89.9998C389.429 89.3918 390.061 88.9278 390.861 88.6078C391.661 88.2718 392.589 88.1038 393.645 88.1038C394.205 88.1038 394.773 88.1438 395.349 88.2238C395.941 88.3038 396.461 88.4318 396.909 88.6078V87.8158C396.909 86.9358 396.645 86.2478 396.117 85.7518C395.589 85.2558 394.829 85.0078 393.837 85.0078C393.133 85.0078 392.469 85.1358 391.845 85.3918C391.221 85.6318 390.557 85.9758 389.853 86.4238L388.965 84.6478C389.797 84.0878 390.629 83.6718 391.461 83.3998C392.309 83.1278 393.197 82.9918 394.125 82.9918C395.805 82.9918 397.125 83.4398 398.085 84.3358C399.061 85.2158 399.549 86.4718 399.549 88.1038V92.7838C399.549 93.0878 399.597 93.3038 399.693 93.4318C399.805 93.5598 399.989 93.6318 400.245 93.6478V95.7598C400.005 95.8078 399.789 95.8398 399.597 95.8558C399.405 95.8718 399.245 95.8798 399.117 95.8798C398.557 95.8798 398.133 95.7438 397.845 95.4718C397.557 95.1998 397.389 94.8798 397.341 94.5118L397.269 93.7918C396.725 94.4958 396.029 95.0398 395.181 95.4238C394.333 95.8078 393.477 95.9998 392.613 95.9998C391.781 95.9998 391.037 95.8318 390.381 95.4958C389.725 95.1438 389.213 94.6718 388.845 94.0798C388.477 93.4878 388.293 92.8238 388.293 92.0878ZM396.285 92.8558C396.477 92.6478 396.629 92.4398 396.741 92.2318C396.853 92.0238 396.909 91.8398 396.909 91.6798V90.2398C396.461 90.0638 395.989 89.9358 395.493 89.8558C394.997 89.7598 394.509 89.7118 394.029 89.7118C393.069 89.7118 392.285 89.9038 391.677 90.2878C391.085 90.6718 390.789 91.1998 390.789 91.8718C390.789 92.2398 390.885 92.5918 391.077 92.9278C391.285 93.2638 391.573 93.5358 391.941 93.7438C392.325 93.9518 392.797 94.0558 393.357 94.0558C393.933 94.0558 394.485 93.9438 395.013 93.7198C395.541 93.4958 395.965 93.2078 396.285 92.8558ZM412.592 98.7598V95.7598H402.752V83.2078H405.392V93.4558H410.528V83.2078H413.168V93.4558H414.92V98.7598H412.592ZM417.143 95.7598V83.2318H419.783V92.2318L426.143 83.2078H428.543V95.7598H425.903V86.9518L419.615 95.7598H417.143ZM442.497 95.9998C441.393 95.9998 440.409 95.7678 439.545 95.3038C438.697 94.8398 438.009 94.2078 437.481 93.4078C436.969 92.5918 436.641 91.6718 436.497 90.6478H434.337V95.7598H431.697V83.2078H434.337V88.3438H436.497C436.641 87.2878 436.977 86.3598 437.505 85.5598C438.049 84.7438 438.745 84.1118 439.593 83.6638C440.441 83.2158 441.409 82.9918 442.497 82.9918C443.809 82.9918 444.929 83.2878 445.857 83.8798C446.785 84.4718 447.497 85.2558 447.993 86.2318C448.489 87.2078 448.737 88.2958 448.737 89.4958C448.737 90.7278 448.481 91.8318 447.969 92.8078C447.473 93.7838 446.753 94.5598 445.809 95.1358C444.881 95.7118 443.777 95.9998 442.497 95.9998ZM442.497 93.7438C443.201 93.7438 443.817 93.5678 444.345 93.2158C444.873 92.8478 445.289 92.3518 445.593 91.7278C445.897 91.0878 446.049 90.3438 446.049 89.4958C446.049 88.6318 445.897 87.8878 445.593 87.2638C445.289 86.6238 444.865 86.1278 444.321 85.7758C443.777 85.4238 443.169 85.2478 442.497 85.2478C441.825 85.2478 441.225 85.4238 440.697 85.7758C440.185 86.1278 439.785 86.6238 439.497 87.2638C439.209 87.9038 439.065 88.6478 439.065 89.4958C439.065 90.3598 439.209 91.1118 439.497 91.7518C439.801 92.3918 440.209 92.8878 440.721 93.2398C441.249 93.5758 441.841 93.7438 442.497 93.7438ZM457.369 83.0398L458.449 81.4318L456.769 80.9038L457.153 79.7038L458.857 80.3998L458.761 78.5758H460.225L460.129 80.3998L461.833 79.7038L462.193 80.9038L460.537 81.4318L461.617 83.0398L460.561 83.7598L459.505 82.0558L458.425 83.7598L457.369 83.0398ZM471.051 95.9998C468.955 95.9998 467.363 95.3678 466.275 94.1038C465.187 92.8398 464.643 91.0318 464.643 88.6798C464.643 87.1438 464.771 85.8478 465.027 84.7918C465.299 83.7198 465.691 82.8398 466.203 82.1518C466.731 81.4638 467.379 80.9038 468.147 80.4718C468.931 80.0238 469.835 79.6638 470.859 79.3918L476.211 77.9038L476.307 80.1118L471.051 81.5998C470.219 81.8558 469.507 82.1918 468.915 82.6078C468.339 83.0238 467.883 83.5678 467.547 84.2398C467.211 84.8958 466.987 85.7278 466.875 86.7358C467.323 85.9198 467.963 85.2798 468.795 84.8158C469.627 84.3518 470.611 84.1198 471.747 84.1198C472.915 84.1198 473.923 84.3678 474.771 84.8638C475.619 85.3438 476.275 86.0158 476.739 86.8798C477.203 87.7438 477.435 88.7358 477.435 89.8558C477.435 91.0718 477.187 92.1438 476.691 93.0718C476.211 93.9838 475.491 94.7038 474.531 95.2318C473.587 95.7438 472.427 95.9998 471.051 95.9998ZM471.051 93.7438C472.219 93.7438 473.123 93.3998 473.763 92.7118C474.419 92.0238 474.747 91.1118 474.747 89.9758C474.747 88.8878 474.419 87.9998 473.763 87.3118C473.123 86.6078 472.219 86.2558 471.051 86.2558C470.363 86.2558 469.739 86.4078 469.179 86.7118C468.619 86.9998 468.179 87.4238 467.859 87.9838C467.539 88.5278 467.379 89.1918 467.379 89.9758C467.379 90.7118 467.523 91.3678 467.811 91.9438C468.099 92.5038 468.515 92.9438 469.059 93.2638C469.603 93.5838 470.267 93.7438 471.051 93.7438ZM486.942 95.9998C485.934 95.9998 485.046 95.7598 484.278 95.2798C483.51 94.7998 482.902 94.1758 482.454 93.4078V100.872H479.814V83.2078H482.142V85.4638C482.622 84.7118 483.246 84.1118 484.014 83.6638C484.782 83.2158 485.638 82.9918 486.582 82.9918C487.446 82.9918 488.238 83.1678 488.958 83.5198C489.678 83.8558 490.302 84.3278 490.83 84.9358C491.358 85.5438 491.766 86.2398 492.054 87.0238C492.358 87.7918 492.51 88.6078 492.51 89.4718C492.51 90.6718 492.27 91.7678 491.79 92.7598C491.326 93.7518 490.67 94.5438 489.822 95.1358C488.99 95.7118 488.03 95.9998 486.942 95.9998ZM486.078 93.7438C486.638 93.7438 487.142 93.6238 487.59 93.3838C488.054 93.1438 488.446 92.8238 488.766 92.4238C489.102 92.0238 489.358 91.5678 489.534 91.0558C489.71 90.5438 489.798 90.0158 489.798 89.4718C489.798 88.8958 489.702 88.3518 489.51 87.8398C489.318 87.3278 489.038 86.8798 488.67 86.4958C488.318 86.1118 487.902 85.8078 487.422 85.5838C486.958 85.3598 486.446 85.2478 485.886 85.2478C485.55 85.2478 485.198 85.3118 484.83 85.4398C484.462 85.5678 484.118 85.7438 483.798 85.9678C483.478 86.1918 483.198 86.4558 482.958 86.7598C482.718 87.0638 482.55 87.3838 482.454 87.7198V91.0078C482.678 91.5198 482.974 91.9838 483.342 92.3998C483.71 92.7998 484.134 93.1278 484.614 93.3838C485.094 93.6238 485.582 93.7438 486.078 93.7438ZM494.885 95.7598V83.2318H497.525V92.2318L503.885 83.2078H506.285V95.7598H503.645V86.9518L497.357 95.7598H494.885ZM515.271 100.872V95.7598H514.839C513.543 95.7598 512.431 95.4718 511.503 94.8958C510.575 94.3198 509.863 93.5598 509.367 92.6158C508.871 91.6558 508.623 90.6158 508.623 89.4958C508.623 88.3758 508.871 87.3438 509.367 86.3998C509.879 85.4398 510.599 84.6718 511.527 84.0958C512.455 83.5198 513.559 83.2318 514.839 83.2318H515.271V78.2398H517.911V83.2318H518.343C519.623 83.2318 520.727 83.5198 521.655 84.0958C522.583 84.6718 523.295 85.4398 523.791 86.3998C524.303 87.3438 524.559 88.3758 524.559 89.4958C524.559 90.6158 524.311 91.6558 523.815 92.6158C523.319 93.5598 522.607 94.3198 521.679 94.8958C520.751 95.4718 519.639 95.7598 518.343 95.7598H517.911V100.872H515.271ZM514.839 93.6238H515.391V85.3678H514.839C514.135 85.3678 513.511 85.5518 512.967 85.9198C512.423 86.2878 511.991 86.7838 511.671 87.4078C511.367 88.0318 511.215 88.7358 511.215 89.5198C511.215 90.3038 511.367 91.0078 511.671 91.6318C511.975 92.2558 512.399 92.7438 512.943 93.0958C513.487 93.4478 514.119 93.6238 514.839 93.6238ZM517.767 93.6238H518.343C519.063 93.6238 519.695 93.4478 520.239 93.0958C520.783 92.7438 521.207 92.2558 521.511 91.6318C521.831 91.0078 521.991 90.3038 521.991 89.5198C521.991 88.7358 521.831 88.0318 521.511 87.4078C521.207 86.7838 520.783 86.2878 520.239 85.9198C519.695 85.5518 519.063 85.3678 518.343 85.3678H517.767V93.6238ZM38.3853 132C37.4093 132 36.5213 131.832 35.7213 131.496C34.9373 131.144 34.2573 130.664 33.6813 130.056C33.1053 129.448 32.6573 128.752 32.3373 127.968C32.0333 127.184 31.8813 126.352 31.8813 125.472C31.8813 124.288 32.1453 123.208 32.6733 122.232C33.2173 121.256 33.9693 120.472 34.9293 119.88C35.9053 119.288 37.0573 118.992 38.3853 118.992C39.6653 118.992 40.7773 119.28 41.7213 119.856C42.6813 120.416 43.3853 121.168 43.8333 122.112L41.2653 122.928C40.9773 122.4 40.5693 121.992 40.0413 121.704C39.5293 121.4 38.9613 121.248 38.3373 121.248C37.6333 121.248 36.9933 121.432 36.4173 121.8C35.8573 122.152 35.4093 122.648 35.0733 123.288C34.7533 123.912 34.5933 124.64 34.5933 125.472C34.5933 126.272 34.7613 127 35.0973 127.656C35.4333 128.296 35.8813 128.808 36.4413 129.192C37.0173 129.56 37.6573 129.744 38.3613 129.744C38.7933 129.744 39.2093 129.672 39.6093 129.528C40.0253 129.368 40.3853 129.16 40.6893 128.904C40.9933 128.632 41.2093 128.336 41.3373 128.016L43.9293 128.784C43.6573 129.408 43.2493 129.96 42.7053 130.44C42.1773 130.92 41.5453 131.304 40.8093 131.592C40.0893 131.864 39.2813 132 38.3853 132ZM52.0332 131.76V119.208H62.8332V131.76H60.1932V121.536H54.6732V131.76H52.0332ZM71.7134 132C70.7374 132 69.8494 131.832 69.0494 131.496C68.2654 131.144 67.5854 130.672 67.0094 130.08C66.4334 129.472 65.9854 128.784 65.6654 128.016C65.3614 127.232 65.2094 126.4 65.2094 125.52C65.2094 124.336 65.4814 123.256 66.0254 122.28C66.5694 121.288 67.3294 120.496 68.3054 119.904C69.2814 119.296 70.4254 118.992 71.7374 118.992C73.0494 118.992 74.1774 119.296 75.1214 119.904C76.0814 120.496 76.8254 121.28 77.3534 122.256C77.8814 123.232 78.1454 124.28 78.1454 125.4C78.1454 125.592 78.1374 125.776 78.1214 125.952C78.1054 126.112 78.0894 126.248 78.0734 126.36H68.0174C68.0654 127.096 68.2654 127.744 68.6174 128.304C68.9854 128.848 69.4494 129.28 70.0094 129.6C70.5694 129.904 71.1694 130.056 71.8094 130.056C72.5134 130.056 73.1774 129.88 73.8014 129.528C74.4414 129.176 74.8734 128.712 75.0974 128.136L77.3534 128.784C77.0814 129.392 76.6654 129.944 76.1054 130.44C75.5614 130.92 74.9134 131.304 74.1614 131.592C73.4094 131.864 72.5934 132 71.7134 132ZM67.9454 124.608H75.5294C75.4814 123.888 75.2734 123.256 74.9054 122.712C74.5534 122.152 74.0974 121.72 73.5374 121.416C72.9934 121.096 72.3854 120.936 71.7134 120.936C71.0574 120.936 70.4494 121.096 69.8894 121.416C69.3454 121.72 68.8974 122.152 68.5454 122.712C68.1934 123.256 67.9934 123.888 67.9454 124.608ZM87.4268 132C86.4188 132 85.5308 131.76 84.7628 131.28C83.9948 130.8 83.3868 130.176 82.9388 129.408V136.872H80.2988V119.208H82.6268V121.464C83.1068 120.712 83.7308 120.112 84.4988 119.664C85.2668 119.216 86.1228 118.992 87.0668 118.992C87.9308 118.992 88.7228 119.168 89.4428 119.52C90.1628 119.856 90.7868 120.328 91.3148 120.936C91.8428 121.544 92.2508 122.24 92.5388 123.024C92.8428 123.792 92.9948 124.608 92.9948 125.472C92.9948 126.672 92.7548 127.768 92.2748 128.76C91.8108 129.752 91.1548 130.544 90.3068 131.136C89.4748 131.712 88.5148 132 87.4268 132ZM86.5628 129.744C87.1228 129.744 87.6268 129.624 88.0748 129.384C88.5388 129.144 88.9308 128.824 89.2508 128.424C89.5868 128.024 89.8428 127.568 90.0188 127.056C90.1948 126.544 90.2828 126.016 90.2828 125.472C90.2828 124.896 90.1868 124.352 89.9948 123.84C89.8028 123.328 89.5228 122.88 89.1548 122.496C88.8028 122.112 88.3868 121.808 87.9068 121.584C87.4428 121.36 86.9308 121.248 86.3708 121.248C86.0348 121.248 85.6828 121.312 85.3148 121.44C84.9468 121.568 84.6028 121.744 84.2828 121.968C83.9628 122.192 83.6828 122.456 83.4428 122.76C83.2028 123.064 83.0348 123.384 82.9388 123.72V127.008C83.1628 127.52 83.4588 127.984 83.8268 128.4C84.1948 128.8 84.6188 129.128 85.0988 129.384C85.5788 129.624 86.0668 129.744 86.5628 129.744ZM95.3692 131.76V119.208H102.089C102.889 119.208 103.545 119.36 104.057 119.664C104.585 119.952 104.977 120.328 105.233 120.792C105.489 121.24 105.617 121.736 105.617 122.28C105.617 122.968 105.457 123.576 105.137 124.104C104.817 124.632 104.345 125.032 103.721 125.304C104.441 125.512 105.025 125.88 105.473 126.408C105.937 126.92 106.169 127.584 106.169 128.4C106.169 129.136 105.993 129.76 105.641 130.272C105.289 130.768 104.785 131.144 104.129 131.4C103.489 131.64 102.737 131.76 101.873 131.76H95.3692ZM97.8652 129.936H101.801C102.137 129.936 102.441 129.856 102.713 129.696C103.001 129.52 103.225 129.296 103.385 129.024C103.545 128.736 103.625 128.432 103.625 128.112C103.625 127.76 103.545 127.448 103.385 127.176C103.241 126.904 103.033 126.688 102.761 126.528C102.505 126.368 102.201 126.288 101.849 126.288H97.8652V129.936ZM97.8652 124.584H101.417C101.753 124.584 102.049 124.504 102.305 124.344C102.561 124.168 102.761 123.936 102.905 123.648C103.049 123.36 103.121 123.056 103.121 122.736C103.121 122.272 102.969 121.872 102.665 121.536C102.361 121.2 101.961 121.032 101.465 121.032H97.8652V124.584ZM108.682 131.76V119.232H111.322V128.232L117.682 119.208H120.082V131.76H117.442V122.952L111.154 131.76H108.682ZM130.292 131.76V126.984C129.812 127.208 129.316 127.376 128.804 127.488C128.292 127.584 127.716 127.632 127.076 127.632C125.732 127.632 124.692 127.28 123.956 126.576C123.236 125.856 122.876 124.792 122.876 123.384V119.208H125.516V123.048C125.516 123.928 125.7 124.576 126.068 124.992C126.436 125.392 127.028 125.592 127.844 125.592C128.292 125.592 128.74 125.544 129.188 125.448C129.636 125.352 130.004 125.224 130.292 125.064V119.208H132.956V131.76H130.292ZM136.15 131.76V119.208H138.79V124.2H144.622V119.208H147.262V131.76H144.622V126.48H138.79V131.76H136.15ZM150.447 131.76V119.208H153.087V123.336H155.463C156.951 123.336 158.087 123.712 158.871 124.464C159.655 125.216 160.047 126.208 160.047 127.44C160.047 128.272 159.879 129.016 159.543 129.672C159.207 130.328 158.711 130.84 158.055 131.208C157.415 131.576 156.615 131.76 155.655 131.76H150.447ZM153.087 129.72H155.247C155.775 129.72 156.199 129.624 156.519 129.432C156.839 129.224 157.071 128.952 157.215 128.616C157.375 128.264 157.455 127.888 157.455 127.488C157.455 127.088 157.383 126.728 157.239 126.408C157.095 126.072 156.855 125.808 156.519 125.616C156.199 125.408 155.767 125.304 155.223 125.304H153.087V129.72ZM162.111 131.76V119.232H164.751V131.76H162.111ZM167.932 131.76V119.208H170.668L174.988 126.96L179.332 119.208H182.02V131.76H179.5V122.928L175.804 129.528H174.148L170.428 122.928V131.76H167.932ZM185.182 131.76V119.232H187.822V128.232L194.182 119.208H196.582V131.76H193.942V122.952L187.654 131.76H185.182ZM205.666 131.76V119.208H212.386C213.186 119.208 213.842 119.36 214.354 119.664C214.882 119.952 215.274 120.328 215.53 120.792C215.786 121.24 215.914 121.736 215.914 122.28C215.914 122.968 215.754 123.576 215.434 124.104C215.114 124.632 214.642 125.032 214.018 125.304C214.738 125.512 215.322 125.88 215.77 126.408C216.234 126.92 216.466 127.584 216.466 128.4C216.466 129.136 216.29 129.76 215.938 130.272C215.586 130.768 215.082 131.144 214.426 131.4C213.786 131.64 213.034 131.76 212.17 131.76H205.666ZM208.162 129.936H212.098C212.434 129.936 212.738 129.856 213.01 129.696C213.298 129.52 213.522 129.296 213.682 129.024C213.842 128.736 213.922 128.432 213.922 128.112C213.922 127.76 213.842 127.448 213.682 127.176C213.538 126.904 213.33 126.688 213.058 126.528C212.802 126.368 212.498 126.288 212.146 126.288H208.162V129.936ZM208.162 124.584H211.714C212.05 124.584 212.346 124.504 212.602 124.344C212.858 124.168 213.058 123.936 213.202 123.648C213.346 123.36 213.418 123.056 213.418 122.736C213.418 122.272 213.266 121.872 212.962 121.536C212.658 121.2 212.258 121.032 211.762 121.032H208.162V124.584ZM224.619 132C223.627 132 222.739 131.832 221.955 131.496C221.171 131.144 220.491 130.664 219.915 130.056C219.355 129.448 218.923 128.76 218.619 127.992C218.315 127.208 218.163 126.376 218.163 125.496C218.163 124.616 218.315 123.784 218.619 123C218.923 122.216 219.355 121.528 219.915 120.936C220.491 120.328 221.171 119.856 221.955 119.52C222.755 119.168 223.643 118.992 224.619 118.992C225.595 118.992 226.475 119.168 227.259 119.52C228.059 119.856 228.739 120.328 229.299 120.936C229.875 121.528 230.315 122.216 230.619 123C230.923 123.784 231.075 124.616 231.075 125.496C231.075 126.376 230.923 127.208 230.619 127.992C230.315 128.76 229.875 129.448 229.299 130.056C228.739 130.664 228.059 131.144 227.259 131.496C226.475 131.832 225.595 132 224.619 132ZM220.875 125.52C220.875 126.32 221.043 127.04 221.379 127.68C221.715 128.32 222.163 128.824 222.723 129.192C223.283 129.56 223.915 129.744 224.619 129.744C225.307 129.744 225.931 129.56 226.491 129.192C227.067 128.808 227.523 128.296 227.859 127.656C228.195 127 228.363 126.28 228.363 125.496C228.363 124.696 228.195 123.976 227.859 123.336C227.523 122.696 227.067 122.192 226.491 121.824C225.931 121.44 225.307 121.248 224.619 121.248C223.915 121.248 223.283 121.44 222.723 121.824C222.163 122.208 221.715 122.72 221.379 123.36C221.043 123.984 220.875 124.704 220.875 125.52ZM233.416 131.76V119.208H244.216V131.76H241.576V121.536H236.056V131.76H233.416ZM254.536 132C253.528 132 252.64 131.76 251.872 131.28C251.104 130.8 250.496 130.176 250.048 129.408V136.872H247.408V119.208H249.736V121.464C250.216 120.712 250.84 120.112 251.608 119.664C252.376 119.216 253.232 118.992 254.176 118.992C255.04 118.992 255.832 119.168 256.552 119.52C257.272 119.856 257.896 120.328 258.424 120.936C258.952 121.544 259.36 122.24 259.648 123.024C259.952 123.792 260.104 124.608 260.104 125.472C260.104 126.672 259.864 127.768 259.384 128.76C258.92 129.752 258.264 130.544 257.416 131.136C256.584 131.712 255.624 132 254.536 132ZM253.672 129.744C254.232 129.744 254.736 129.624 255.184 129.384C255.648 129.144 256.04 128.824 256.36 128.424C256.696 128.024 256.952 127.568 257.128 127.056C257.304 126.544 257.392 126.016 257.392 125.472C257.392 124.896 257.296 124.352 257.104 123.84C256.912 123.328 256.632 122.88 256.264 122.496C255.912 122.112 255.496 121.808 255.016 121.584C254.552 121.36 254.04 121.248 253.48 121.248C253.144 121.248 252.792 121.312 252.424 121.44C252.056 121.568 251.712 121.744 251.392 121.968C251.072 122.192 250.792 122.456 250.552 122.76C250.312 123.064 250.144 123.384 250.048 123.72V127.008C250.272 127.52 250.568 127.984 250.936 128.4C251.304 128.8 251.728 129.128 252.208 129.384C252.688 129.624 253.176 129.744 253.672 129.744ZM268.119 132C267.127 132 266.239 131.832 265.455 131.496C264.671 131.144 263.991 130.664 263.415 130.056C262.855 129.448 262.423 128.76 262.119 127.992C261.815 127.208 261.663 126.376 261.663 125.496C261.663 124.616 261.815 123.784 262.119 123C262.423 122.216 262.855 121.528 263.415 120.936C263.991 120.328 264.671 119.856 265.455 119.52C266.255 119.168 267.143 118.992 268.119 118.992C269.095 118.992 269.975 119.168 270.759 119.52C271.559 119.856 272.239 120.328 272.799 120.936C273.375 121.528 273.815 122.216 274.119 123C274.423 123.784 274.575 124.616 274.575 125.496C274.575 126.376 274.423 127.208 274.119 127.992C273.815 128.76 273.375 129.448 272.799 130.056C272.239 130.664 271.559 131.144 270.759 131.496C269.975 131.832 269.095 132 268.119 132ZM264.375 125.52C264.375 126.32 264.543 127.04 264.879 127.68C265.215 128.32 265.663 128.824 266.223 129.192C266.783 129.56 267.415 129.744 268.119 129.744C268.807 129.744 269.431 129.56 269.991 129.192C270.567 128.808 271.023 128.296 271.359 127.656C271.695 127 271.863 126.28 271.863 125.496C271.863 124.696 271.695 123.976 271.359 123.336C271.023 122.696 270.567 122.192 269.991 121.824C269.431 121.44 268.807 121.248 268.119 121.248C267.415 121.248 266.783 121.44 266.223 121.824C265.663 122.208 265.215 122.72 264.879 123.36C264.543 123.984 264.375 124.704 264.375 125.52ZM282.604 132C281.628 132 280.74 131.832 279.94 131.496C279.156 131.144 278.476 130.664 277.9 130.056C277.324 129.448 276.876 128.752 276.556 127.968C276.252 127.184 276.1 126.352 276.1 125.472C276.1 124.288 276.364 123.208 276.892 122.232C277.436 121.256 278.188 120.472 279.148 119.88C280.124 119.288 281.276 118.992 282.604 118.992C283.884 118.992 284.996 119.28 285.94 119.856C286.9 120.416 287.604 121.168 288.052 122.112L285.484 122.928C285.196 122.4 284.788 121.992 284.26 121.704C283.748 121.4 283.18 121.248 282.556 121.248C281.852 121.248 281.212 121.432 280.636 121.8C280.076 122.152 279.628 122.648 279.292 123.288C278.972 123.912 278.812 124.64 278.812 125.472C278.812 126.272 278.98 127 279.316 127.656C279.652 128.296 280.1 128.808 280.66 129.192C281.236 129.56 281.876 129.744 282.58 129.744C283.012 129.744 283.428 129.672 283.828 129.528C284.244 129.368 284.604 129.16 284.908 128.904C285.212 128.632 285.428 128.336 285.556 128.016L288.148 128.784C287.876 129.408 287.468 129.96 286.924 130.44C286.396 130.92 285.764 131.304 285.028 131.592C284.308 131.864 283.5 132 282.604 132ZM289.41 128.088C289.41 127.288 289.634 126.592 290.082 126C290.546 125.392 291.178 124.928 291.978 124.608C292.778 124.272 293.706 124.104 294.762 124.104C295.322 124.104 295.89 124.144 296.466 124.224C297.058 124.304 297.578 124.432 298.026 124.608V123.816C298.026 122.936 297.762 122.248 297.234 121.752C296.706 121.256 295.946 121.008 294.954 121.008C294.25 121.008 293.586 121.136 292.962 121.392C292.338 121.632 291.674 121.976 290.97 122.424L290.082 120.648C290.914 120.088 291.746 119.672 292.578 119.4C293.426 119.128 294.314 118.992 295.242 118.992C296.922 118.992 298.242 119.44 299.202 120.336C300.178 121.216 300.666 122.472 300.666 124.104V128.784C300.666 129.088 300.714 129.304 300.81 129.432C300.922 129.56 301.106 129.632 301.362 129.648V131.76C301.122 131.808 300.906 131.84 300.714 131.856C300.522 131.872 300.362 131.88 300.234 131.88C299.674 131.88 299.25 131.744 298.962 131.472C298.674 131.2 298.506 130.88 298.458 130.512L298.386 129.792C297.842 130.496 297.146 131.04 296.298 131.424C295.45 131.808 294.594 132 293.73 132C292.898 132 292.154 131.832 291.498 131.496C290.842 131.144 290.33 130.672 289.962 130.08C289.594 129.488 289.41 128.824 289.41 128.088ZM297.402 128.856C297.594 128.648 297.746 128.44 297.858 128.232C297.97 128.024 298.026 127.84 298.026 127.68V126.24C297.578 126.064 297.106 125.936 296.61 125.856C296.114 125.76 295.626 125.712 295.146 125.712C294.186 125.712 293.402 125.904 292.794 126.288C292.202 126.672 291.906 127.2 291.906 127.872C291.906 128.24 292.002 128.592 292.194 128.928C292.402 129.264 292.69 129.536 293.058 129.744C293.442 129.952 293.914 130.056 294.474 130.056C295.05 130.056 295.602 129.944 296.13 129.72C296.658 129.496 297.082 129.208 297.402 128.856ZM303.869 131.76V119.208H306.605L310.925 126.96L315.269 119.208H317.957V131.76H315.437V122.928L311.741 129.528H310.085L306.365 122.928V131.76H303.869ZM321.119 131.76V119.232H323.759V128.232L330.119 119.208H332.519V131.76H329.879V122.952L323.591 131.76H321.119ZM336.01 119.04L337.09 117.432L335.41 116.904L335.794 115.704L337.498 116.4L337.402 114.576H338.866L338.77 116.4L340.474 115.704L340.834 116.904L339.178 117.432L340.258 119.04L339.202 119.76L338.146 118.056L337.066 119.76L336.01 119.04Z" fill="white"/>
</svg>
