<svg width="276" height="100" viewBox="0 0 276 100" fill="none" xmlns="http://www.w3.org/2000/svg">
<path fill-rule="evenodd" clip-rule="evenodd" d="M254.533 1.79785C265.579 1.79785 274.533 10.7522 274.533 21.7978V60.5911C274.533 71.6368 265.579 80.5911 254.533 80.5911H80.0285L48.5548 98.1871V80.5911H21.5763C10.5306 80.5911 1.57626 71.6368 1.57626 60.5911V21.7979C1.57626 10.7522 10.5306 1.79785 21.5763 1.79785H254.533Z" fill="white"/>
<path d="M80.0285 80.5911L79.5406 79.7182L79.768 79.5911H80.0285V80.5911ZM48.5548 98.1871L49.0428 99.06L47.5548 99.8918V98.1871H48.5548ZM48.5548 80.5911V79.5911H49.5548V80.5911H48.5548ZM273.533 21.7978C273.533 11.3044 265.027 2.79785 254.533 2.79785V0.797852C266.131 0.797852 275.533 10.1999 275.533 21.7978H273.533ZM273.533 60.5911V21.7978H275.533V60.5911H273.533ZM254.533 79.5911C265.027 79.5911 273.533 71.0845 273.533 60.5911H275.533C275.533 72.189 266.131 81.5911 254.533 81.5911V79.5911ZM80.0285 79.5911H254.533V81.5911H80.0285V79.5911ZM48.0668 97.3143L79.5406 79.7182L80.5165 81.4639L49.0428 99.06L48.0668 97.3143ZM49.5548 80.5911V98.1871H47.5548V80.5911H49.5548ZM21.5763 79.5911H48.5548V81.5911H21.5763V79.5911ZM2.57626 60.5911C2.57626 71.0845 11.0829 79.5911 21.5763 79.5911V81.5911C9.9783 81.5911 0.576263 72.189 0.576263 60.5911H2.57626ZM2.57626 21.7979V60.5911H0.576263V21.7979H2.57626ZM21.5763 2.79785C11.0829 2.79785 2.57626 11.3044 2.57626 21.7979H0.576263C0.576263 10.1999 9.9783 0.797852 21.5763 0.797852V2.79785ZM254.533 2.79785H21.5763V0.797852H254.533V2.79785Z" fill="black"/>
<path d="M46.4018 45.6012C46.4018 46.5132 46.1618 47.2972 45.6818 47.9532C45.2178 48.6092 44.5858 49.1132 43.7858 49.4652C42.9858 49.8172 42.1058 49.9932 41.1458 49.9932H33.0098V32.9532H41.7938C42.5938 32.9532 43.2818 33.1692 43.8578 33.6012C44.4498 34.0172 44.8978 34.5612 45.2018 35.2332C45.5218 35.8892 45.6818 36.5772 45.6818 37.2972C45.6818 38.1292 45.4658 38.9132 45.0338 39.6492C44.6178 40.3692 44.0178 40.9052 43.2338 41.2572C44.2098 41.5452 44.9778 42.0732 45.5378 42.8412C46.1138 43.5932 46.4018 44.5132 46.4018 45.6012ZM43.6418 45.0972C43.6418 44.6172 43.5378 44.1852 43.3298 43.8012C43.1378 43.4012 42.8658 43.0812 42.5138 42.8412C42.1778 42.5852 41.7778 42.4572 41.3138 42.4572H35.6978V47.6652H41.1458C41.6258 47.6652 42.0498 47.5532 42.4178 47.3292C42.8018 47.0892 43.0978 46.7772 43.3058 46.3932C43.5298 45.9932 43.6418 45.5612 43.6418 45.0972ZM35.6978 35.2812V40.2972H40.6418C41.0898 40.2972 41.4898 40.1932 41.8418 39.9852C42.1938 39.7612 42.4738 39.4652 42.6818 39.0972C42.8898 38.7132 42.9938 38.2812 42.9938 37.8012C42.9938 37.3052 42.8978 36.8732 42.7058 36.5052C42.5138 36.1212 42.2498 35.8252 41.9138 35.6172C41.5938 35.3932 41.2178 35.2812 40.7858 35.2812H35.6978ZM54.7988 49.9932V37.4412H65.5988V49.9932H62.9588V39.7692H57.4388V49.9932H54.7988ZM67.999 49.9932L71.359 45.0252C70.575 44.8332 69.951 44.4332 69.487 43.8252C69.023 43.2172 68.791 42.4012 68.791 41.3772C68.791 40.5932 68.967 39.9052 69.319 39.3132C69.687 38.7212 70.199 38.2572 70.855 37.9212C71.511 37.5852 72.271 37.4172 73.135 37.4172H78.655V49.9932H76.015V45.4572H73.951L70.879 49.9932H67.999ZM73.399 43.5372H76.015V39.4572H73.567C72.895 39.4572 72.359 39.6412 71.959 40.0092C71.575 40.3772 71.383 40.8572 71.383 41.4492C71.383 42.0412 71.551 42.5372 71.887 42.9372C72.239 43.3372 72.743 43.5372 73.399 43.5372ZM84.8217 49.9932V39.7692H80.6697V37.4412H91.6377V39.7692H87.4617V49.9932H84.8217ZM93.6113 49.9932V37.4412H96.2513V42.4332H102.083V37.4412H104.723V49.9932H102.083V44.7132H96.2513V49.9932H93.6113ZM107.908 49.9932V37.4652H110.548V46.4652L116.908 37.4412H119.308V49.9932H116.668V41.1852L110.38 49.9932H107.908ZM132.303 52.9932V49.9932H122.463V37.4412H125.103V47.6892H130.239V37.4412H132.879V47.6892H134.631V52.9932H132.303ZM138.558 55.3212C138.27 55.3212 137.966 55.2812 137.646 55.2012C137.326 55.1212 136.99 55.0012 136.638 54.8412L137.31 52.8732C137.502 52.9692 137.686 53.0412 137.862 53.0892C138.038 53.1372 138.198 53.1612 138.342 53.1612C138.742 53.1612 139.102 52.9932 139.422 52.6572C139.758 52.3372 140.054 51.8492 140.31 51.1932L140.79 49.8972L135.486 37.4412H138.246L142.086 47.3052L145.494 37.4412H148.038L142.518 51.9132C142.246 52.6652 141.902 53.2892 141.486 53.7852C141.086 54.2812 140.638 54.6572 140.142 54.9132C139.646 55.1852 139.118 55.3212 138.558 55.3212ZM155.275 49.9932V37.4412H161.995C162.795 37.4412 163.451 37.5932 163.963 37.8972C164.491 38.1852 164.883 38.5612 165.139 39.0252C165.395 39.4732 165.523 39.9692 165.523 40.5132C165.523 41.2012 165.363 41.8092 165.043 42.3372C164.723 42.8652 164.251 43.2652 163.627 43.5372C164.347 43.7452 164.931 44.1132 165.379 44.6412C165.843 45.1532 166.075 45.8172 166.075 46.6332C166.075 47.3692 165.899 47.9932 165.547 48.5052C165.195 49.0012 164.691 49.3772 164.035 49.6332C163.395 49.8732 162.643 49.9932 161.779 49.9932H155.275ZM157.771 48.1692H161.707C162.043 48.1692 162.347 48.0892 162.619 47.9292C162.907 47.7532 163.131 47.5292 163.291 47.2572C163.451 46.9692 163.531 46.6652 163.531 46.3452C163.531 45.9932 163.451 45.6812 163.291 45.4092C163.147 45.1372 162.939 44.9212 162.667 44.7612C162.411 44.6012 162.107 44.5212 161.755 44.5212H157.771V48.1692ZM157.771 42.8172H161.323C161.659 42.8172 161.955 42.7372 162.211 42.5772C162.467 42.4012 162.667 42.1692 162.811 41.8812C162.955 41.5932 163.027 41.2892 163.027 40.9692C163.027 40.5052 162.875 40.1052 162.571 39.7692C162.267 39.4332 161.867 39.2652 161.371 39.2652H157.771V42.8172ZM181.934 32.8721V49.9932H179.109V36.2236L174.926 37.6416V35.3096L181.594 32.8721H181.934ZM196.395 32.8252H196.746V35.1338H196.547C195.539 35.1338 194.668 35.29 193.934 35.6025C193.207 35.915 192.609 36.3447 192.141 36.8916C191.672 37.4385 191.32 38.0791 191.086 38.8135C190.859 39.54 190.746 40.3135 190.746 41.1338V43.8174C190.746 44.4971 190.82 45.0986 190.969 45.6221C191.117 46.1377 191.324 46.5713 191.59 46.9229C191.863 47.2666 192.176 47.5283 192.527 47.708C192.879 47.8877 193.258 47.9775 193.664 47.9775C194.086 47.9775 194.469 47.8916 194.812 47.7197C195.156 47.54 195.449 47.2939 195.691 46.9814C195.934 46.6689 196.117 46.2979 196.242 45.8682C196.367 45.4385 196.43 44.9697 196.43 44.4619C196.43 43.9775 196.367 43.5244 196.242 43.1025C196.125 42.6729 195.949 42.2979 195.715 41.9775C195.48 41.6494 195.188 41.3955 194.836 41.2158C194.492 41.0283 194.094 40.9346 193.641 40.9346C193.078 40.9346 192.566 41.0674 192.105 41.333C191.652 41.5986 191.285 41.9463 191.004 42.376C190.73 42.7979 190.582 43.2471 190.559 43.7236L189.48 43.3721C189.543 42.6455 189.703 41.9932 189.961 41.415C190.227 40.8369 190.574 40.3447 191.004 39.9385C191.434 39.5322 191.93 39.2236 192.492 39.0127C193.062 38.7939 193.688 38.6846 194.367 38.6846C195.195 38.6846 195.914 38.8408 196.523 39.1533C197.133 39.4658 197.637 39.8916 198.035 40.4307C198.441 40.9619 198.742 41.5713 198.938 42.2588C199.141 42.9385 199.242 43.6494 199.242 44.3916C199.242 45.2119 199.117 45.9775 198.867 46.6885C198.617 47.3916 198.25 48.0088 197.766 48.54C197.289 49.0713 196.707 49.4854 196.02 49.7822C195.34 50.0791 194.566 50.2275 193.699 50.2275C192.785 50.2275 191.969 50.0518 191.25 49.7002C190.539 49.3486 189.934 48.8643 189.434 48.2471C188.941 47.6299 188.566 46.9189 188.309 46.1143C188.051 45.3096 187.922 44.458 187.922 43.5596V42.3877C187.922 41.0908 188.086 39.8682 188.414 38.7197C188.742 37.5635 189.246 36.5439 189.926 35.6611C190.613 34.7783 191.492 34.0869 192.562 33.5869C193.633 33.0791 194.91 32.8252 196.395 32.8252ZM201.703 48.5869C201.703 48.1494 201.852 47.7822 202.148 47.4854C202.445 47.1807 202.848 47.0283 203.355 47.0283C203.871 47.0283 204.273 47.1807 204.562 47.4854C204.859 47.7822 205.008 48.1494 205.008 48.5869C205.008 49.0244 204.859 49.3916 204.562 49.6885C204.273 49.9854 203.871 50.1338 203.355 50.1338C202.848 50.1338 202.445 49.9854 202.148 49.6885C201.852 49.3916 201.703 49.0244 201.703 48.5869ZM201.715 38.6025C201.715 38.165 201.863 37.7979 202.16 37.501C202.457 37.1963 202.859 37.0439 203.367 37.0439C203.883 37.0439 204.285 37.1963 204.574 37.501C204.871 37.7979 205.02 38.165 205.02 38.6025C205.02 39.04 204.871 39.4072 204.574 39.7041C204.285 40.001 203.883 40.1494 203.367 40.1494C202.859 40.1494 202.457 40.001 202.16 39.7041C201.863 39.4072 201.715 39.04 201.715 38.6025ZM218.953 40.0322V42.8213C218.953 44.1572 218.82 45.2979 218.555 46.2432C218.297 47.1807 217.922 47.9424 217.43 48.5283C216.938 49.1143 216.348 49.5439 215.66 49.8174C214.98 50.0908 214.219 50.2275 213.375 50.2275C212.703 50.2275 212.078 50.1416 211.5 49.9697C210.93 49.7979 210.414 49.5283 209.953 49.1611C209.492 48.7939 209.098 48.3213 208.77 47.7432C208.449 47.1572 208.199 46.458 208.02 45.6455C207.848 44.833 207.762 43.8916 207.762 42.8213V40.0322C207.762 38.6885 207.895 37.5557 208.16 36.6338C208.426 35.7041 208.805 34.9502 209.297 34.3721C209.789 33.7861 210.375 33.3604 211.055 33.0947C211.742 32.8291 212.508 32.6963 213.352 32.6963C214.031 32.6963 214.656 32.7822 215.227 32.9541C215.805 33.1182 216.32 33.3799 216.773 33.7393C217.234 34.0986 217.625 34.5674 217.945 35.1455C218.273 35.7158 218.523 36.4072 218.695 37.2197C218.867 38.0244 218.953 38.9619 218.953 40.0322ZM216.129 43.2197V39.6104C216.129 38.9307 216.09 38.333 216.012 37.8174C215.934 37.2939 215.816 36.8525 215.66 36.4932C215.512 36.126 215.324 35.8291 215.098 35.6025C214.871 35.3682 214.613 35.2002 214.324 35.0986C214.035 34.9893 213.711 34.9346 213.352 34.9346C212.914 34.9346 212.523 35.0205 212.18 35.1924C211.836 35.3564 211.547 35.6221 211.312 35.9893C211.078 36.3564 210.898 36.8408 210.773 37.4424C210.656 38.0361 210.598 38.7588 210.598 39.6104V43.2197C210.598 43.9072 210.637 44.5127 210.715 45.0361C210.793 45.5596 210.91 46.0088 211.066 46.3838C211.223 46.751 211.41 47.0557 211.629 47.2979C211.855 47.5322 212.113 47.7041 212.402 47.8135C212.699 47.9229 213.023 47.9775 213.375 47.9775C213.82 47.9775 214.215 47.8916 214.559 47.7197C214.902 47.5479 215.191 47.2744 215.426 46.8994C215.66 46.5166 215.836 46.0205 215.953 45.4111C216.07 44.8018 216.129 44.0713 216.129 43.2197ZM232.594 40.0322V42.8213C232.594 44.1572 232.461 45.2979 232.195 46.2432C231.938 47.1807 231.562 47.9424 231.07 48.5283C230.578 49.1143 229.988 49.5439 229.301 49.8174C228.621 50.0908 227.859 50.2275 227.016 50.2275C226.344 50.2275 225.719 50.1416 225.141 49.9697C224.57 49.7979 224.055 49.5283 223.594 49.1611C223.133 48.7939 222.738 48.3213 222.41 47.7432C222.09 47.1572 221.84 46.458 221.66 45.6455C221.488 44.833 221.402 43.8916 221.402 42.8213V40.0322C221.402 38.6885 221.535 37.5557 221.801 36.6338C222.066 35.7041 222.445 34.9502 222.938 34.3721C223.43 33.7861 224.016 33.3604 224.695 33.0947C225.383 32.8291 226.148 32.6963 226.992 32.6963C227.672 32.6963 228.297 32.7822 228.867 32.9541C229.445 33.1182 229.961 33.3799 230.414 33.7393C230.875 34.0986 231.266 34.5674 231.586 35.1455C231.914 35.7158 232.164 36.4072 232.336 37.2197C232.508 38.0244 232.594 38.9619 232.594 40.0322ZM229.77 43.2197V39.6104C229.77 38.9307 229.73 38.333 229.652 37.8174C229.574 37.2939 229.457 36.8525 229.301 36.4932C229.152 36.126 228.965 35.8291 228.738 35.6025C228.512 35.3682 228.254 35.2002 227.965 35.0986C227.676 34.9893 227.352 34.9346 226.992 34.9346C226.555 34.9346 226.164 35.0205 225.82 35.1924C225.477 35.3564 225.188 35.6221 224.953 35.9893C224.719 36.3564 224.539 36.8408 224.414 37.4424C224.297 38.0361 224.238 38.7588 224.238 39.6104V43.2197C224.238 43.9072 224.277 44.5127 224.355 45.0361C224.434 45.5596 224.551 46.0088 224.707 46.3838C224.863 46.751 225.051 47.0557 225.27 47.2979C225.496 47.5322 225.754 47.7041 226.043 47.8135C226.34 47.9229 226.664 47.9775 227.016 47.9775C227.461 47.9775 227.855 47.8916 228.199 47.7197C228.543 47.5479 228.832 47.2744 229.066 46.8994C229.301 46.5166 229.477 46.0205 229.594 45.4111C229.711 44.8018 229.77 44.0713 229.77 43.2197Z" fill="black"/>
</svg>
