<svg width="494" height="173" viewBox="0 0 494 173" fill="none" xmlns="http://www.w3.org/2000/svg">
<path fill-rule="evenodd" clip-rule="evenodd" d="M472.445 1.80078C483.491 1.80078 492.445 10.7551 492.445 21.8008V120.026C492.445 131.071 483.491 140.026 472.445 140.026H142.658L86.0578 170.894V140.026H21.5753C10.5296 140.026 1.57532 131.071 1.57532 120.026V21.8008C1.57532 10.7551 10.5296 1.80078 21.5753 1.80078H472.445Z" fill="white"/>
<path d="M142.658 140.026L142.18 139.148L142.403 139.026H142.658V140.026ZM86.0578 170.894L86.5366 171.772L85.0578 172.578V170.894H86.0578ZM86.0578 140.026V139.026H87.0578V140.026H86.0578ZM491.445 21.8008C491.445 11.3074 482.939 2.80078 472.445 2.80078V0.800781C484.043 0.800781 493.445 10.2028 493.445 21.8008H491.445ZM491.445 120.026V21.8008H493.445V120.026H491.445ZM472.445 139.026C482.939 139.026 491.445 130.519 491.445 120.026H493.445C493.445 131.624 484.043 141.026 472.445 141.026V139.026ZM142.658 139.026H472.445V141.026H142.658V139.026ZM85.579 170.016L142.18 139.148L143.137 140.904L86.5366 171.772L85.579 170.016ZM87.0578 140.026V170.894H85.0578V140.026H87.0578ZM21.5753 139.026H86.0578V141.026H21.5753V139.026ZM2.57532 120.026C2.57532 130.519 11.0819 139.026 21.5753 139.026V141.026C9.97736 141.026 0.575317 131.624 0.575317 120.026H2.57532ZM2.57532 21.8008V120.026H0.575317V21.8008H2.57532ZM21.5753 2.80078C11.0819 2.80078 2.57532 11.3074 2.57532 21.8008H0.575317C0.575317 10.2028 9.97733 0.800781 21.5753 0.800781V2.80078ZM472.445 2.80078H21.5753V0.800781H472.445V2.80078Z" fill="black"/>
<path d="M39.1578 60.7652C37.8618 60.7652 36.6858 60.4932 35.6298 59.9492C34.5898 59.4052 33.7738 58.6532 33.1818 57.6932L35.2458 56.4212C35.6298 57.0772 36.1498 57.5892 36.8058 57.9572C37.4778 58.3092 38.2458 58.4852 39.1098 58.4852C40.1978 58.4852 41.0298 58.2292 41.6058 57.7172C42.1978 57.2052 42.4938 56.5252 42.4938 55.6772C42.4938 55.1332 42.3738 54.6532 42.1338 54.2372C41.8938 53.8052 41.5338 53.4772 41.0538 53.2532C40.5738 53.0132 39.9898 52.8932 39.3018 52.8932H37.4058V50.8052H39.3018C39.8618 50.8052 40.3338 50.7012 40.7178 50.4932C41.1178 50.2692 41.4218 49.9732 41.6298 49.6052C41.8378 49.2212 41.9418 48.7892 41.9418 48.3092C41.9418 47.8132 41.8218 47.3812 41.5818 47.0132C41.3578 46.6292 41.0298 46.3332 40.5978 46.1252C40.1658 45.9012 39.6378 45.7892 39.0138 45.7892C38.1498 45.7892 37.4058 45.9652 36.7818 46.3172C36.1738 46.6692 35.6938 47.1492 35.3418 47.7572L33.3738 46.3892C33.9658 45.4612 34.7258 44.7252 35.6538 44.1812C36.5978 43.6372 37.7578 43.3652 39.1338 43.3652C40.2378 43.3652 41.1898 43.5492 41.9898 43.9172C42.8058 44.2692 43.4378 44.7892 43.8858 45.4772C44.3338 46.1492 44.5578 46.9652 44.5578 47.9252C44.5578 48.7252 44.3578 49.4772 43.9578 50.1812C43.5738 50.8692 42.9738 51.3892 42.1578 51.7412C43.1338 52.0132 43.8858 52.5252 44.4138 53.2772C44.9578 54.0292 45.2298 54.9092 45.2298 55.9172C45.2298 56.9412 44.9658 57.8212 44.4378 58.5572C43.9098 59.2772 43.1898 59.8292 42.2778 60.2132C41.3818 60.5812 40.3418 60.7652 39.1578 60.7652ZM46.3156 63.5732V58.2452H46.6036C46.9396 58.2452 47.2516 58.1492 47.5396 57.9572C47.8276 57.7652 48.0836 57.4372 48.3076 56.9732C48.5316 56.4932 48.7156 55.8372 48.8596 55.0052C49.0036 54.1572 49.0916 53.0932 49.1236 51.8132L49.2676 48.0212H58.2196V58.2452H59.9476V63.5732H57.6196V60.5732H48.6196V63.5732H46.3156ZM50.0836 58.2452H55.5796V50.3012H51.5956L51.5236 52.0532C51.4756 53.2692 51.3876 54.2932 51.2596 55.1252C51.1476 55.9572 50.9876 56.6212 50.7796 57.1172C50.5876 57.6132 50.3556 57.9892 50.0836 58.2452ZM69.3155 60.8132C68.3075 60.8132 67.4195 60.5732 66.6515 60.0932C65.8835 59.6132 65.2755 58.9892 64.8275 58.2212V65.6852H62.1875V48.0212H64.5155V50.2772C64.9955 49.5252 65.6195 48.9252 66.3875 48.4772C67.1555 48.0292 68.0115 47.8052 68.9555 47.8052C69.8195 47.8052 70.6115 47.9812 71.3315 48.3332C72.0515 48.6692 72.6755 49.1412 73.2035 49.7492C73.7315 50.3572 74.1395 51.0532 74.4275 51.8372C74.7315 52.6052 74.8835 53.4212 74.8835 54.2852C74.8835 55.4852 74.6435 56.5812 74.1635 57.5732C73.6995 58.5652 73.0435 59.3572 72.1955 59.9492C71.3635 60.5252 70.4035 60.8132 69.3155 60.8132ZM68.4515 58.5572C69.0115 58.5572 69.5155 58.4372 69.9635 58.1972C70.4275 57.9572 70.8195 57.6372 71.1395 57.2372C71.4755 56.8372 71.7315 56.3812 71.9075 55.8692C72.0835 55.3572 72.1715 54.8292 72.1715 54.2852C72.1715 53.7092 72.0755 53.1652 71.8835 52.6532C71.6915 52.1412 71.4115 51.6932 71.0435 51.3092C70.6915 50.9252 70.2755 50.6212 69.7955 50.3972C69.3315 50.1732 68.8195 50.0612 68.2595 50.0612C67.9235 50.0612 67.5715 50.1252 67.2035 50.2532C66.8355 50.3812 66.4915 50.5572 66.1715 50.7812C65.8515 51.0052 65.5715 51.2692 65.3315 51.5732C65.0915 51.8772 64.9235 52.1972 64.8275 52.5332V55.8212C65.0515 56.3332 65.3475 56.7972 65.7155 57.2132C66.0835 57.6132 66.5075 57.9412 66.9875 58.1972C67.4675 58.4372 67.9555 58.5572 68.4515 58.5572ZM76.3458 56.9012C76.3458 56.1012 76.5698 55.4052 77.0178 54.8132C77.4818 54.2052 78.1138 53.7412 78.9138 53.4212C79.7138 53.0852 80.6418 52.9172 81.6978 52.9172C82.2578 52.9172 82.8258 52.9572 83.4018 53.0372C83.9938 53.1172 84.5138 53.2452 84.9618 53.4212V52.6292C84.9618 51.7492 84.6978 51.0612 84.1698 50.5652C83.6418 50.0692 82.8818 49.8212 81.8898 49.8212C81.1858 49.8212 80.5218 49.9492 79.8978 50.2052C79.2738 50.4452 78.6098 50.7892 77.9058 51.2372L77.0178 49.4612C77.8498 48.9012 78.6818 48.4852 79.5138 48.2132C80.3618 47.9412 81.2498 47.8052 82.1778 47.8052C83.8578 47.8052 85.1778 48.2532 86.1378 49.1492C87.1138 50.0292 87.6018 51.2852 87.6018 52.9172V57.5972C87.6018 57.9012 87.6498 58.1172 87.7458 58.2452C87.8578 58.3732 88.0418 58.4452 88.2978 58.4612V60.5732C88.0578 60.6212 87.8418 60.6532 87.6498 60.6692C87.4578 60.6852 87.2978 60.6932 87.1698 60.6932C86.6098 60.6932 86.1858 60.5572 85.8978 60.2852C85.6098 60.0132 85.4418 59.6932 85.3938 59.3252L85.3218 58.6052C84.7778 59.3092 84.0818 59.8532 83.2338 60.2372C82.3858 60.6212 81.5298 60.8132 80.6658 60.8132C79.8338 60.8132 79.0898 60.6452 78.4338 60.3092C77.7778 59.9572 77.2658 59.4852 76.8978 58.8932C76.5298 58.3012 76.3458 57.6372 76.3458 56.9012ZM84.3378 57.6692C84.5298 57.4612 84.6818 57.2532 84.7938 57.0452C84.9058 56.8372 84.9618 56.6532 84.9618 56.4932V55.0532C84.5138 54.8772 84.0418 54.7492 83.5458 54.6692C83.0498 54.5732 82.5618 54.5252 82.0818 54.5252C81.1218 54.5252 80.3378 54.7172 79.7298 55.1012C79.1378 55.4852 78.8418 56.0132 78.8418 56.6852C78.8418 57.0532 78.9378 57.4052 79.1298 57.7412C79.3378 58.0772 79.6258 58.3492 79.9938 58.5572C80.3778 58.7652 80.8498 58.8692 81.4098 58.8692C81.9858 58.8692 82.5378 58.7572 83.0658 58.5332C83.5938 58.3092 84.0178 58.0212 84.3378 57.6692ZM90.8047 60.5732V48.0212H97.5247C98.3247 48.0212 98.9807 48.1732 99.4927 48.4772C100.021 48.7652 100.413 49.1412 100.669 49.6052C100.925 50.0532 101.053 50.5492 101.053 51.0932C101.053 51.7812 100.893 52.3892 100.573 52.9172C100.253 53.4452 99.7807 53.8452 99.1567 54.1172C99.8767 54.3252 100.461 54.6932 100.909 55.2212C101.373 55.7332 101.605 56.3972 101.605 57.2132C101.605 57.9492 101.429 58.5732 101.077 59.0852C100.725 59.5812 100.221 59.9572 99.5647 60.2132C98.9247 60.4532 98.1727 60.5732 97.3087 60.5732H90.8047ZM93.3007 58.7492H97.2367C97.5727 58.7492 97.8767 58.6692 98.1487 58.5092C98.4367 58.3332 98.6607 58.1092 98.8207 57.8372C98.9807 57.5492 99.0607 57.2452 99.0607 56.9252C99.0607 56.5732 98.9807 56.2612 98.8207 55.9892C98.6767 55.7172 98.4687 55.5012 98.1967 55.3412C97.9407 55.1812 97.6367 55.1012 97.2847 55.1012H93.3007V58.7492ZM93.3007 53.3972H96.8527C97.1887 53.3972 97.4847 53.3172 97.7407 53.1572C97.9967 52.9812 98.1967 52.7492 98.3407 52.4612C98.4847 52.1732 98.5567 51.8692 98.5567 51.5492C98.5567 51.0852 98.4047 50.6852 98.1007 50.3492C97.7967 50.0132 97.3967 49.8452 96.9007 49.8452H93.3007V53.3972ZM109.805 60.8132C108.829 60.8132 107.941 60.6452 107.141 60.3092C106.357 59.9572 105.677 59.4772 105.101 58.8692C104.525 58.2612 104.077 57.5652 103.757 56.7812C103.453 55.9972 103.301 55.1652 103.301 54.2852C103.301 53.1012 103.565 52.0212 104.093 51.0452C104.637 50.0692 105.389 49.2852 106.349 48.6932C107.325 48.1012 108.477 47.8052 109.805 47.8052C111.085 47.8052 112.197 48.0932 113.141 48.6692C114.101 49.2292 114.805 49.9812 115.253 50.9252L112.685 51.7412C112.397 51.2132 111.989 50.8052 111.461 50.5172C110.949 50.2132 110.381 50.0612 109.757 50.0612C109.053 50.0612 108.413 50.2452 107.837 50.6132C107.277 50.9652 106.829 51.4612 106.493 52.1012C106.173 52.7252 106.013 53.4532 106.013 54.2852C106.013 55.0852 106.181 55.8132 106.517 56.4692C106.853 57.1092 107.301 57.6212 107.861 58.0052C108.437 58.3732 109.077 58.5572 109.781 58.5572C110.213 58.5572 110.629 58.4852 111.029 58.3412C111.445 58.1812 111.805 57.9732 112.109 57.7172C112.413 57.4452 112.629 57.1492 112.757 56.8292L115.349 57.5972C115.077 58.2212 114.669 58.7732 114.125 59.2532C113.597 59.7332 112.965 60.1172 112.229 60.4052C111.509 60.6772 110.701 60.8132 109.805 60.8132ZM120.499 60.5732V50.3492H116.347V48.0212H127.315V50.3492H123.139V60.5732H120.499ZM129.289 60.5732V48.0212H136.009C136.809 48.0212 137.465 48.1732 137.977 48.4772C138.505 48.7652 138.897 49.1412 139.153 49.6052C139.409 50.0532 139.537 50.5492 139.537 51.0932C139.537 51.7812 139.377 52.3892 139.057 52.9172C138.737 53.4452 138.265 53.8452 137.641 54.1172C138.361 54.3252 138.945 54.6932 139.393 55.2212C139.857 55.7332 140.089 56.3972 140.089 57.2132C140.089 57.9492 139.913 58.5732 139.561 59.0852C139.209 59.5812 138.705 59.9572 138.049 60.2132C137.409 60.4532 136.657 60.5732 135.793 60.5732H129.289ZM131.785 58.7492H135.721C136.057 58.7492 136.361 58.6692 136.633 58.5092C136.921 58.3332 137.145 58.1092 137.305 57.8372C137.465 57.5492 137.545 57.2452 137.545 56.9252C137.545 56.5732 137.465 56.2612 137.305 55.9892C137.161 55.7172 136.953 55.5012 136.681 55.3412C136.425 55.1812 136.121 55.1012 135.769 55.1012H131.785V58.7492ZM131.785 53.3972H135.337C135.673 53.3972 135.969 53.3172 136.225 53.1572C136.481 52.9812 136.681 52.7492 136.825 52.4612C136.969 52.1732 137.041 51.8692 137.041 51.5492C137.041 51.0852 136.889 50.6852 136.585 50.3492C136.281 50.0132 135.881 49.8452 135.385 49.8452H131.785V53.3972ZM144.306 65.9012C144.018 65.9012 143.714 65.8612 143.394 65.7812C143.074 65.7012 142.738 65.5812 142.386 65.4212L143.058 63.4532C143.25 63.5492 143.434 63.6212 143.61 63.6692C143.786 63.7172 143.946 63.7412 144.09 63.7412C144.49 63.7412 144.85 63.5732 145.17 63.2372C145.506 62.9172 145.802 62.4292 146.058 61.7732L146.538 60.4772L141.234 48.0212H143.994L147.834 57.8852L151.242 48.0212H153.786L148.266 62.4932C147.994 63.2452 147.65 63.8692 147.234 64.3652C146.834 64.8612 146.386 65.2372 145.89 65.4932C145.394 65.7652 144.866 65.9012 144.306 65.9012ZM155.727 60.5732V48.0452H158.367V57.0452L164.727 48.0212H167.127V60.5732H164.487V51.7652L158.199 60.5732H155.727ZM161.439 46.7252C160.255 46.7252 159.335 46.4292 158.679 45.8372C158.039 45.2452 157.719 44.5012 157.719 43.6052H159.447C159.447 44.0692 159.599 44.4532 159.903 44.7572C160.223 45.0612 160.735 45.2132 161.439 45.2132C162.127 45.2132 162.615 45.0692 162.903 44.7812C163.207 44.4932 163.391 44.1012 163.455 43.6052H165.183C165.183 44.5012 164.855 45.2452 164.199 45.8372C163.559 46.4292 162.639 46.7252 161.439 46.7252ZM173.257 60.5732V50.3492H169.105V48.0212H180.073V50.3492H175.897V60.5732H173.257ZM187.735 60.8132C186.759 60.8132 185.871 60.6452 185.071 60.3092C184.287 59.9572 183.607 59.4852 183.031 58.8932C182.455 58.2852 182.007 57.5972 181.687 56.8292C181.383 56.0452 181.231 55.2132 181.231 54.3332C181.231 53.1492 181.503 52.0692 182.047 51.0932C182.591 50.1012 183.351 49.3092 184.327 48.7172C185.303 48.1092 186.447 47.8052 187.759 47.8052C189.071 47.8052 190.199 48.1092 191.143 48.7172C192.103 49.3092 192.847 50.0932 193.375 51.0692C193.903 52.0452 194.167 53.0932 194.167 54.2132C194.167 54.4052 194.159 54.5892 194.143 54.7652C194.127 54.9252 194.111 55.0612 194.095 55.1732H184.039C184.087 55.9092 184.287 56.5572 184.639 57.1172C185.007 57.6612 185.471 58.0932 186.031 58.4132C186.591 58.7172 187.191 58.8692 187.831 58.8692C188.535 58.8692 189.199 58.6932 189.823 58.3412C190.463 57.9892 190.895 57.5252 191.119 56.9492L193.375 57.5972C193.103 58.2052 192.687 58.7572 192.127 59.2532C191.583 59.7332 190.935 60.1172 190.183 60.4052C189.431 60.6772 188.615 60.8132 187.735 60.8132ZM183.967 53.4212H191.551C191.503 52.7012 191.295 52.0692 190.927 51.5252C190.575 50.9652 190.119 50.5332 189.559 50.2292C189.015 49.9092 188.407 49.7492 187.735 49.7492C187.079 49.7492 186.471 49.9092 185.911 50.2292C185.367 50.5332 184.919 50.9652 184.567 51.5252C184.215 52.0692 184.015 52.7012 183.967 53.4212ZM196.488 62.9012L197.064 60.4292H196.2V57.5012H198.576V60.4292L197.736 62.9012H196.488ZM207.547 60.5732V48.0212H210.283L214.603 55.7732L218.947 48.0212H221.635V60.5732H219.115V51.7412L215.419 58.3412H213.763L210.043 51.7412V60.5732H207.547ZM224.797 60.5732V48.0212H227.437V53.0132H233.269V48.0212H235.909V60.5732H233.269V55.2932H227.437V60.5732H224.797ZM244.782 60.8132C243.806 60.8132 242.918 60.6452 242.118 60.3092C241.334 59.9572 240.654 59.4852 240.078 58.8932C239.502 58.2852 239.054 57.5972 238.734 56.8292C238.43 56.0452 238.278 55.2132 238.278 54.3332C238.278 53.1492 238.55 52.0692 239.094 51.0932C239.638 50.1012 240.398 49.3092 241.374 48.7172C242.35 48.1092 243.494 47.8052 244.806 47.8052C246.118 47.8052 247.246 48.1092 248.19 48.7172C249.15 49.3092 249.894 50.0932 250.422 51.0692C250.95 52.0452 251.214 53.0932 251.214 54.2132C251.214 54.4052 251.206 54.5892 251.19 54.7652C251.174 54.9252 251.158 55.0612 251.142 55.1732H241.086C241.134 55.9092 241.334 56.5572 241.686 57.1172C242.054 57.6612 242.518 58.0932 243.078 58.4132C243.638 58.7172 244.238 58.8692 244.878 58.8692C245.582 58.8692 246.246 58.6932 246.87 58.3412C247.51 57.9892 247.942 57.5252 248.166 56.9492L250.422 57.5972C250.15 58.2052 249.734 58.7572 249.174 59.2532C248.63 59.7332 247.982 60.1172 247.23 60.4052C246.478 60.6772 245.662 60.8132 244.782 60.8132ZM241.014 53.4212H248.598C248.55 52.7012 248.342 52.0692 247.974 51.5252C247.622 50.9652 247.166 50.5332 246.606 50.2292C246.062 49.9092 245.454 49.7492 244.782 49.7492C244.126 49.7492 243.518 49.9092 242.958 50.2292C242.414 50.5332 241.966 50.9652 241.614 51.5252C241.262 52.0692 241.062 52.7012 241.014 53.4212ZM259.297 60.5732V48.0212H261.937V53.0132H267.769V48.0212H270.409V60.5732H267.769V55.2932H261.937V60.5732H259.297ZM275.063 65.9012C274.775 65.9012 274.471 65.8612 274.151 65.7812C273.831 65.7012 273.495 65.5812 273.143 65.4212L273.815 63.4532C274.007 63.5492 274.191 63.6212 274.367 63.6692C274.543 63.7172 274.703 63.7412 274.847 63.7412C275.247 63.7412 275.607 63.5732 275.927 63.2372C276.263 62.9172 276.559 62.4292 276.815 61.7732L277.295 60.4772L271.991 48.0212H274.751L278.591 57.8852L281.999 48.0212H284.543L279.023 62.4932C278.751 63.2452 278.407 63.8692 277.991 64.3652C277.591 64.8612 277.143 65.2372 276.647 65.4932C276.151 65.7652 275.623 65.9012 275.063 65.9012ZM285.596 60.5732L290.108 54.0932L285.956 48.0212H288.908L292.316 53.0132H293.492V48.0212H296.204V53.0132H297.428L300.788 48.0212H303.74L299.588 54.0932L304.124 60.5732H301.124L297.428 55.3172H296.204V60.5732H293.492V55.3172H292.316L288.596 60.5732H285.596ZM306.406 60.5732V48.0212H309.046V53.0132H314.878V48.0212H317.518V60.5732H314.878V55.2932H309.046V60.5732H306.406ZM326.343 60.8132C325.351 60.8132 324.463 60.6452 323.679 60.3092C322.895 59.9572 322.215 59.4772 321.639 58.8692C321.079 58.2612 320.647 57.5732 320.343 56.8052C320.039 56.0212 319.887 55.1892 319.887 54.3092C319.887 53.4292 320.039 52.5972 320.343 51.8132C320.647 51.0292 321.079 50.3412 321.639 49.7492C322.215 49.1412 322.895 48.6692 323.679 48.3332C324.479 47.9812 325.367 47.8052 326.343 47.8052C327.319 47.8052 328.199 47.9812 328.983 48.3332C329.783 48.6692 330.463 49.1412 331.023 49.7492C331.599 50.3412 332.039 51.0292 332.343 51.8132C332.647 52.5972 332.799 53.4292 332.799 54.3092C332.799 55.1892 332.647 56.0212 332.343 56.8052C332.039 57.5732 331.599 58.2612 331.023 58.8692C330.463 59.4772 329.783 59.9572 328.983 60.3092C328.199 60.6452 327.319 60.8132 326.343 60.8132ZM322.599 54.3332C322.599 55.1332 322.767 55.8532 323.103 56.4932C323.439 57.1332 323.887 57.6372 324.447 58.0052C325.007 58.3732 325.639 58.5572 326.343 58.5572C327.031 58.5572 327.655 58.3732 328.215 58.0052C328.791 57.6212 329.247 57.1092 329.583 56.4692C329.919 55.8132 330.087 55.0932 330.087 54.3092C330.087 53.5092 329.919 52.7892 329.583 52.1492C329.247 51.5092 328.791 51.0052 328.215 50.6372C327.655 50.2532 327.031 50.0612 326.343 50.0612C325.639 50.0612 325.007 50.2532 324.447 50.6372C323.887 51.0212 323.439 51.5332 323.103 52.1732C322.767 52.7972 322.599 53.5172 322.599 54.3332ZM341.07 60.5732V48.0212H343.71V53.0132H349.542V48.0212H352.182V60.5732H349.542V55.2932H343.71V60.5732H341.07ZM354.455 56.9012C354.455 56.1012 354.679 55.4052 355.127 54.8132C355.591 54.2052 356.223 53.7412 357.023 53.4212C357.823 53.0852 358.751 52.9172 359.807 52.9172C360.367 52.9172 360.935 52.9572 361.511 53.0372C362.103 53.1172 362.623 53.2452 363.071 53.4212V52.6292C363.071 51.7492 362.807 51.0612 362.279 50.5652C361.751 50.0692 360.991 49.8212 359.999 49.8212C359.295 49.8212 358.631 49.9492 358.007 50.2052C357.383 50.4452 356.719 50.7892 356.015 51.2372L355.127 49.4612C355.959 48.9012 356.791 48.4852 357.623 48.2132C358.471 47.9412 359.359 47.8052 360.287 47.8052C361.967 47.8052 363.287 48.2532 364.247 49.1492C365.223 50.0292 365.711 51.2852 365.711 52.9172V57.5972C365.711 57.9012 365.759 58.1172 365.855 58.2452C365.967 58.3732 366.151 58.4452 366.407 58.4612V60.5732C366.167 60.6212 365.951 60.6532 365.759 60.6692C365.567 60.6852 365.407 60.6932 365.279 60.6932C364.719 60.6932 364.295 60.5572 364.007 60.2852C363.719 60.0132 363.551 59.6932 363.503 59.3252L363.431 58.6052C362.887 59.3092 362.191 59.8532 361.343 60.2372C360.495 60.6212 359.639 60.8132 358.775 60.8132C357.943 60.8132 357.199 60.6452 356.543 60.3092C355.887 59.9572 355.375 59.4852 355.007 58.8932C354.639 58.3012 354.455 57.6372 354.455 56.9012ZM362.447 57.6692C362.639 57.4612 362.791 57.2532 362.903 57.0452C363.015 56.8372 363.071 56.6532 363.071 56.4932V55.0532C362.623 54.8772 362.151 54.7492 361.655 54.6692C361.159 54.5732 360.671 54.5252 360.191 54.5252C359.231 54.5252 358.447 54.7172 357.839 55.1012C357.247 55.4852 356.951 56.0132 356.951 56.6852C356.951 57.0532 357.047 57.4052 357.239 57.7412C357.447 58.0772 357.735 58.3492 358.103 58.5572C358.487 58.7652 358.959 58.8692 359.519 58.8692C360.095 58.8692 360.647 58.7572 361.175 58.5332C361.703 58.3092 362.127 58.0212 362.447 57.6692ZM374.602 60.8132C373.626 60.8132 372.738 60.6452 371.938 60.3092C371.154 59.9572 370.474 59.4772 369.898 58.8692C369.322 58.2612 368.874 57.5652 368.554 56.7812C368.25 55.9972 368.098 55.1652 368.098 54.2852C368.098 53.1012 368.362 52.0212 368.89 51.0452C369.434 50.0692 370.186 49.2852 371.146 48.6932C372.122 48.1012 373.274 47.8052 374.602 47.8052C375.882 47.8052 376.994 48.0932 377.938 48.6692C378.898 49.2292 379.602 49.9812 380.05 50.9252L377.482 51.7412C377.194 51.2132 376.786 50.8052 376.258 50.5172C375.746 50.2132 375.178 50.0612 374.554 50.0612C373.85 50.0612 373.21 50.2452 372.634 50.6132C372.074 50.9652 371.626 51.4612 371.29 52.1012C370.97 52.7252 370.81 53.4532 370.81 54.2852C370.81 55.0852 370.978 55.8132 371.314 56.4692C371.65 57.1092 372.098 57.6212 372.658 58.0052C373.234 58.3732 373.874 58.5572 374.578 58.5572C375.01 58.5572 375.426 58.4852 375.826 58.3412C376.242 58.1812 376.602 57.9732 376.906 57.7172C377.21 57.4452 377.426 57.1492 377.554 56.8292L380.146 57.5972C379.874 58.2212 379.466 58.7732 378.922 59.2532C378.394 59.7332 377.762 60.1172 377.026 60.4052C376.306 60.6772 375.498 60.8132 374.602 60.8132ZM385.296 60.5732V50.3492H381.144V48.0212H392.112V50.3492H387.936V60.5732H385.296ZM401.214 60.8132C400.206 60.8132 399.318 60.5732 398.55 60.0932C397.782 59.6132 397.174 58.9892 396.726 58.2212V65.6852H394.086V48.0212H396.414V50.2772C396.894 49.5252 397.518 48.9252 398.286 48.4772C399.054 48.0292 399.91 47.8052 400.854 47.8052C401.718 47.8052 402.51 47.9812 403.23 48.3332C403.95 48.6692 404.574 49.1412 405.102 49.7492C405.63 50.3572 406.038 51.0532 406.326 51.8372C406.63 52.6052 406.782 53.4212 406.782 54.2852C406.782 55.4852 406.542 56.5812 406.062 57.5732C405.598 58.5652 404.942 59.3572 404.094 59.9492C403.262 60.5252 402.302 60.8132 401.214 60.8132ZM400.35 58.5572C400.91 58.5572 401.414 58.4372 401.862 58.1972C402.326 57.9572 402.718 57.6372 403.038 57.2372C403.374 56.8372 403.63 56.3812 403.806 55.8692C403.982 55.3572 404.07 54.8292 404.07 54.2852C404.07 53.7092 403.974 53.1652 403.782 52.6532C403.59 52.1412 403.31 51.6932 402.942 51.3092C402.59 50.9252 402.174 50.6212 401.694 50.3972C401.23 50.1732 400.718 50.0612 400.158 50.0612C399.822 50.0612 399.47 50.1252 399.102 50.2532C398.734 50.3812 398.39 50.5572 398.07 50.7812C397.75 51.0052 397.47 51.2692 397.23 51.5732C396.99 51.8772 396.822 52.1972 396.726 52.5332V55.8212C396.95 56.3332 397.246 56.7972 397.614 57.2132C397.982 57.6132 398.406 57.9412 398.886 58.1972C399.366 58.4372 399.854 58.5572 400.35 58.5572ZM414.796 60.8132C413.804 60.8132 412.916 60.6452 412.132 60.3092C411.348 59.9572 410.668 59.4772 410.092 58.8692C409.532 58.2612 409.1 57.5732 408.796 56.8052C408.492 56.0212 408.34 55.1892 408.34 54.3092C408.34 53.4292 408.492 52.5972 408.796 51.8132C409.1 51.0292 409.532 50.3412 410.092 49.7492C410.668 49.1412 411.348 48.6692 412.132 48.3332C412.932 47.9812 413.82 47.8052 414.796 47.8052C415.772 47.8052 416.652 47.9812 417.436 48.3332C418.236 48.6692 418.916 49.1412 419.476 49.7492C420.052 50.3412 420.492 51.0292 420.796 51.8132C421.1 52.5972 421.252 53.4292 421.252 54.3092C421.252 55.1892 421.1 56.0212 420.796 56.8052C420.492 57.5732 420.052 58.2612 419.476 58.8692C418.916 59.4772 418.236 59.9572 417.436 60.3092C416.652 60.6452 415.772 60.8132 414.796 60.8132ZM411.052 54.3332C411.052 55.1332 411.22 55.8532 411.556 56.4932C411.892 57.1332 412.34 57.6372 412.9 58.0052C413.46 58.3732 414.092 58.5572 414.796 58.5572C415.484 58.5572 416.108 58.3732 416.668 58.0052C417.244 57.6212 417.7 57.1092 418.036 56.4692C418.372 55.8132 418.54 55.0932 418.54 54.3092C418.54 53.5092 418.372 52.7892 418.036 52.1492C417.7 51.5092 417.244 51.0052 416.668 50.6372C416.108 50.2532 415.484 50.0612 414.796 50.0612C414.092 50.0612 413.46 50.2532 412.9 50.6372C412.34 51.0212 411.892 51.5332 411.556 52.1732C411.22 52.7972 411.052 53.5172 411.052 54.3332ZM423.594 60.5732V48.0452H426.234V57.0452L432.594 48.0212H434.994V60.5732H432.354V51.7652L426.066 60.5732H423.594ZM441.124 60.5732V50.3492H436.972V48.0212H447.94V50.3492H443.764V60.5732H441.124ZM449.914 60.5732V48.0212H452.554V52.1492H455.554C457.042 52.1492 458.17 52.5252 458.938 53.2772C459.722 54.0292 460.114 55.0212 460.114 56.2532C460.114 57.0852 459.946 57.8292 459.61 58.4852C459.274 59.1412 458.778 59.6532 458.122 60.0212C457.482 60.3892 456.682 60.5732 455.722 60.5732H449.914ZM452.554 58.5332H455.314C455.842 58.5332 456.266 58.4372 456.586 58.2452C456.906 58.0372 457.146 57.7652 457.306 57.4292C457.466 57.0772 457.546 56.7012 457.546 56.3012C457.546 55.9012 457.474 55.5412 457.33 55.2212C457.186 54.8852 456.946 54.6212 456.61 54.4292C456.29 54.2212 455.85 54.1172 455.29 54.1172H452.554V58.5332ZM33.7578 96.5732V84.0212H36.3738V88.9892H37.6218L41.3178 84.0212H44.2458L39.6618 90.0932L44.7738 96.5732H41.7258L37.5978 91.3652H36.3738V96.5732H33.7578ZM51.7728 96.8132C50.7808 96.8132 49.8928 96.6452 49.1088 96.3092C48.3248 95.9572 47.6448 95.4772 47.0688 94.8692C46.5088 94.2612 46.0768 93.5732 45.7728 92.8052C45.4688 92.0212 45.3168 91.1892 45.3168 90.3092C45.3168 89.4292 45.4688 88.5972 45.7728 87.8132C46.0768 87.0292 46.5088 86.3412 47.0688 85.7492C47.6448 85.1412 48.3248 84.6692 49.1088 84.3332C49.9088 83.9812 50.7968 83.8052 51.7728 83.8052C52.7488 83.8052 53.6288 83.9812 54.4128 84.3332C55.2128 84.6692 55.8928 85.1412 56.4528 85.7492C57.0288 86.3412 57.4688 87.0292 57.7728 87.8132C58.0768 88.5972 58.2288 89.4292 58.2288 90.3092C58.2288 91.1892 58.0768 92.0212 57.7728 92.8052C57.4688 93.5732 57.0288 94.2612 56.4528 94.8692C55.8928 95.4772 55.2128 95.9572 54.4128 96.3092C53.6288 96.6452 52.7488 96.8132 51.7728 96.8132ZM48.0288 90.3332C48.0288 91.1332 48.1968 91.8532 48.5328 92.4932C48.8688 93.1332 49.3168 93.6372 49.8768 94.0052C50.4368 94.3732 51.0688 94.5572 51.7728 94.5572C52.4608 94.5572 53.0848 94.3732 53.6448 94.0052C54.2208 93.6212 54.6768 93.1092 55.0128 92.4692C55.3488 91.8132 55.5168 91.0932 55.5168 90.3092C55.5168 89.5092 55.3488 88.7892 55.0128 88.1492C54.6768 87.5092 54.2208 87.0052 53.6448 86.6372C53.0848 86.2532 52.4608 86.0612 51.7728 86.0612C51.0688 86.0612 50.4368 86.2532 49.8768 86.6372C49.3168 87.0212 48.8688 87.5332 48.5328 88.1732C48.1968 88.7972 48.0288 89.5172 48.0288 90.3332ZM60.5703 96.5732V84.0212H63.2103V89.0132H69.0423V84.0212H71.6823V96.5732H69.0423V91.2932H63.2103V96.5732H60.5703ZM77.8432 96.5732V86.3492H73.6912V84.0212H84.6592V86.3492H80.4832V96.5732H77.8432ZM92.3208 96.8132C91.3448 96.8132 90.4568 96.6452 89.6568 96.3092C88.8728 95.9572 88.1928 95.4852 87.6168 94.8932C87.0408 94.2852 86.5928 93.5972 86.2728 92.8292C85.9688 92.0452 85.8168 91.2132 85.8168 90.3332C85.8168 89.1492 86.0888 88.0692 86.6328 87.0932C87.1768 86.1012 87.9368 85.3092 88.9128 84.7172C89.8888 84.1092 91.0328 83.8052 92.3448 83.8052C93.6568 83.8052 94.7848 84.1092 95.7288 84.7172C96.6888 85.3092 97.4328 86.0932 97.9608 87.0692C98.4888 88.0452 98.7528 89.0932 98.7528 90.2132C98.7528 90.4052 98.7448 90.5892 98.7288 90.7652C98.7128 90.9252 98.6968 91.0612 98.6808 91.1732H88.6248C88.6728 91.9092 88.8728 92.5572 89.2248 93.1172C89.5928 93.6612 90.0568 94.0932 90.6168 94.4132C91.1768 94.7172 91.7768 94.8692 92.4168 94.8692C93.1208 94.8692 93.7848 94.6932 94.4088 94.3412C95.0488 93.9892 95.4808 93.5252 95.7048 92.9492L97.9608 93.5972C97.6888 94.2052 97.2728 94.7572 96.7128 95.2532C96.1688 95.7332 95.5208 96.1172 94.7688 96.4052C94.0168 96.6772 93.2008 96.8132 92.3208 96.8132ZM88.5528 89.4212H96.1368C96.0888 88.7012 95.8808 88.0692 95.5128 87.5252C95.1608 86.9652 94.7048 86.5332 94.1448 86.2292C93.6008 85.9092 92.9928 85.7492 92.3208 85.7492C91.6648 85.7492 91.0568 85.9092 90.4968 86.2292C89.9528 86.5332 89.5048 86.9652 89.1528 87.5252C88.8008 88.0692 88.6008 88.7012 88.5528 89.4212ZM100.906 96.5732V84.0212H103.522V88.9892H104.77L108.466 84.0212H111.394L106.81 90.0932L111.922 96.5732H108.874L104.746 91.3652H103.522V96.5732H100.906ZM118.969 96.8132C117.993 96.8132 117.105 96.6452 116.305 96.3092C115.521 95.9572 114.841 95.4772 114.265 94.8692C113.689 94.2612 113.241 93.5652 112.921 92.7812C112.617 91.9972 112.465 91.1652 112.465 90.2852C112.465 89.1012 112.729 88.0212 113.257 87.0452C113.801 86.0692 114.553 85.2852 115.513 84.6932C116.489 84.1012 117.641 83.8052 118.969 83.8052C120.249 83.8052 121.361 84.0932 122.305 84.6692C123.265 85.2292 123.969 85.9812 124.417 86.9252L121.849 87.7412C121.561 87.2132 121.153 86.8052 120.625 86.5172C120.113 86.2132 119.545 86.0612 118.921 86.0612C118.217 86.0612 117.577 86.2452 117.001 86.6132C116.441 86.9652 115.993 87.4612 115.657 88.1012C115.337 88.7252 115.177 89.4532 115.177 90.2852C115.177 91.0852 115.345 91.8132 115.681 92.4692C116.017 93.1092 116.465 93.6212 117.025 94.0052C117.601 94.3732 118.241 94.5572 118.945 94.5572C119.377 94.5572 119.793 94.4852 120.193 94.3412C120.609 94.1812 120.969 93.9732 121.273 93.7172C121.577 93.4452 121.793 93.1492 121.921 92.8292L124.513 93.5972C124.241 94.2212 123.833 94.7732 123.289 95.2532C122.761 95.7332 122.129 96.1172 121.393 96.4052C120.673 96.6772 119.865 96.8132 118.969 96.8132ZM129.664 96.5732V86.3492H125.512V84.0212H136.48V86.3492H132.304V96.5732H129.664ZM138.453 96.5732V84.0212H141.093V89.0132H146.925V84.0212H149.565V96.5732H146.925V91.2932H141.093V96.5732H138.453ZM154.22 101.901C153.932 101.901 153.628 101.861 153.308 101.781C152.988 101.701 152.652 101.581 152.3 101.421L152.972 99.4532C153.164 99.5492 153.348 99.6212 153.524 99.6692C153.7 99.7172 153.86 99.7412 154.004 99.7412C154.404 99.7412 154.764 99.5732 155.084 99.2372C155.42 98.9172 155.716 98.4292 155.972 97.7732L156.452 96.4772L151.148 84.0212H153.908L157.748 93.8852L161.156 84.0212H163.7L158.18 98.4932C157.908 99.2452 157.564 99.8692 157.148 100.365C156.748 100.861 156.3 101.237 155.804 101.493C155.308 101.765 154.78 101.901 154.22 101.901ZM176.441 96.8132C175.337 96.8132 174.353 96.5812 173.489 96.1172C172.641 95.6532 171.953 95.0212 171.425 94.2212C170.913 93.4052 170.585 92.4852 170.441 91.4612H168.281V96.5732H165.641V84.0212H168.281V89.1572H170.441C170.585 88.1012 170.921 87.1732 171.449 86.3732C171.993 85.5572 172.689 84.9252 173.537 84.4772C174.385 84.0292 175.353 83.8052 176.441 83.8052C177.753 83.8052 178.873 84.1012 179.801 84.6932C180.729 85.2852 181.441 86.0692 181.937 87.0452C182.433 88.0212 182.681 89.1092 182.681 90.3092C182.681 91.5412 182.425 92.6452 181.913 93.6212C181.417 94.5972 180.697 95.3732 179.753 95.9492C178.825 96.5252 177.721 96.8132 176.441 96.8132ZM176.441 94.5572C177.145 94.5572 177.761 94.3812 178.289 94.0292C178.817 93.6612 179.233 93.1652 179.537 92.5412C179.841 91.9012 179.993 91.1572 179.993 90.3092C179.993 89.4452 179.841 88.7012 179.537 88.0772C179.233 87.4372 178.809 86.9412 178.265 86.5892C177.721 86.2372 177.113 86.0612 176.441 86.0612C175.769 86.0612 175.169 86.2372 174.641 86.5892C174.129 86.9412 173.729 87.4372 173.441 88.0772C173.153 88.7172 173.009 89.4612 173.009 90.3092C173.009 91.1732 173.153 91.9252 173.441 92.5652C173.745 93.2052 174.153 93.7012 174.665 94.0532C175.193 94.3892 175.785 94.5572 176.441 94.5572ZM198.105 96.8132C197.097 96.8132 196.209 96.5732 195.441 96.0932C194.673 95.6132 194.065 94.9892 193.617 94.2212V101.685H190.977V84.0212H193.305V86.2772C193.785 85.5252 194.409 84.9252 195.177 84.4772C195.945 84.0292 196.801 83.8052 197.745 83.8052C198.609 83.8052 199.401 83.9812 200.121 84.3332C200.841 84.6692 201.465 85.1412 201.993 85.7492C202.521 86.3572 202.929 87.0532 203.217 87.8372C203.521 88.6052 203.673 89.4212 203.673 90.2852C203.673 91.4852 203.433 92.5812 202.953 93.5732C202.489 94.5652 201.833 95.3572 200.985 95.9492C200.153 96.5252 199.193 96.8132 198.105 96.8132ZM197.241 94.5572C197.801 94.5572 198.305 94.4372 198.753 94.1972C199.217 93.9572 199.609 93.6372 199.929 93.2372C200.265 92.8372 200.521 92.3812 200.697 91.8692C200.873 91.3572 200.961 90.8292 200.961 90.2852C200.961 89.7092 200.865 89.1652 200.673 88.6532C200.481 88.1412 200.201 87.6932 199.833 87.3092C199.481 86.9252 199.065 86.6212 198.585 86.3972C198.121 86.1732 197.609 86.0612 197.049 86.0612C196.713 86.0612 196.361 86.1252 195.993 86.2532C195.625 86.3812 195.281 86.5572 194.961 86.7812C194.641 87.0052 194.361 87.2692 194.121 87.5732C193.881 87.8772 193.713 88.1972 193.617 88.5332V91.8212C193.841 92.3332 194.137 92.7972 194.505 93.2132C194.873 93.6132 195.297 93.9412 195.777 94.1972C196.257 94.4372 196.745 94.5572 197.241 94.5572ZM211.735 96.8132C210.759 96.8132 209.871 96.6452 209.071 96.3092C208.287 95.9572 207.607 95.4852 207.031 94.8932C206.455 94.2852 206.007 93.5972 205.687 92.8292C205.383 92.0452 205.231 91.2132 205.231 90.3332C205.231 89.1492 205.503 88.0692 206.047 87.0932C206.591 86.1012 207.351 85.3092 208.327 84.7172C209.303 84.1092 210.447 83.8052 211.759 83.8052C213.071 83.8052 214.199 84.1092 215.143 84.7172C216.103 85.3092 216.847 86.0932 217.375 87.0692C217.903 88.0452 218.167 89.0932 218.167 90.2132C218.167 90.4052 218.159 90.5892 218.143 90.7652C218.127 90.9252 218.111 91.0612 218.095 91.1732H208.039C208.087 91.9092 208.287 92.5572 208.639 93.1172C209.007 93.6612 209.471 94.0932 210.031 94.4132C210.591 94.7172 211.191 94.8692 211.831 94.8692C212.535 94.8692 213.199 94.6932 213.823 94.3412C214.463 93.9892 214.895 93.5252 215.119 92.9492L217.375 93.5972C217.103 94.2052 216.687 94.7572 216.127 95.2532C215.583 95.7332 214.935 96.1172 214.183 96.4052C213.431 96.6772 212.615 96.8132 211.735 96.8132ZM207.967 89.4212H215.551C215.503 88.7012 215.295 88.0692 214.927 87.5252C214.575 86.9652 214.119 86.5332 213.559 86.2292C213.015 85.9092 212.407 85.7492 211.735 85.7492C211.079 85.7492 210.471 85.9092 209.911 86.2292C209.367 86.5332 208.919 86.9652 208.567 87.5252C208.215 88.0692 208.015 88.7012 207.967 89.4212ZM220.32 96.5732V84.0212H222.936V88.9892H224.184L227.88 84.0212H230.808L226.224 90.0932L231.336 96.5732H228.288L224.16 91.3652H222.936V96.5732H220.32ZM232.344 96.6932V94.3412C232.744 94.3412 233.104 94.2452 233.424 94.0532C233.744 93.8452 234.024 93.5092 234.264 93.0452C234.504 92.5652 234.696 91.9012 234.84 91.0532C234.984 90.2052 235.08 89.1252 235.128 87.8132L235.296 84.0212H244.248V96.5732H241.608V86.3492H237.624L237.576 88.0532C237.512 89.7332 237.36 91.1332 237.12 92.2532C236.88 93.3572 236.544 94.2372 236.112 94.8932C235.696 95.5332 235.168 95.9972 234.528 96.2852C233.904 96.5572 233.176 96.6932 232.344 96.6932ZM246.502 92.9012C246.502 92.1012 246.726 91.4052 247.174 90.8132C247.638 90.2052 248.27 89.7412 249.07 89.4212C249.87 89.0852 250.798 88.9172 251.854 88.9172C252.414 88.9172 252.982 88.9572 253.558 89.0372C254.15 89.1172 254.67 89.2452 255.118 89.4212V88.6292C255.118 87.7492 254.854 87.0612 254.326 86.5652C253.798 86.0692 253.038 85.8212 252.046 85.8212C251.342 85.8212 250.678 85.9492 250.054 86.2052C249.43 86.4452 248.766 86.7892 248.062 87.2372L247.174 85.4612C248.006 84.9012 248.838 84.4852 249.67 84.2132C250.518 83.9412 251.406 83.8052 252.334 83.8052C254.014 83.8052 255.334 84.2532 256.294 85.1492C257.27 86.0292 257.758 87.2852 257.758 88.9172V93.5972C257.758 93.9012 257.806 94.1172 257.902 94.2452C258.014 94.3732 258.198 94.4452 258.454 94.4612V96.5732C258.214 96.6212 257.998 96.6532 257.806 96.6692C257.614 96.6852 257.454 96.6932 257.326 96.6932C256.766 96.6932 256.342 96.5572 256.054 96.2852C255.766 96.0132 255.598 95.6932 255.55 95.3252L255.478 94.6052C254.934 95.3092 254.238 95.8532 253.39 96.2372C252.542 96.6212 251.686 96.8132 250.822 96.8132C249.99 96.8132 249.246 96.6452 248.59 96.3092C247.934 95.9572 247.422 95.4852 247.054 94.8932C246.686 94.3012 246.502 93.6372 246.502 92.9012ZM254.494 93.6692C254.686 93.4612 254.838 93.2532 254.95 93.0452C255.062 92.8372 255.118 92.6532 255.118 92.4932V91.0532C254.67 90.8772 254.198 90.7492 253.702 90.6692C253.206 90.5732 252.718 90.5252 252.238 90.5252C251.278 90.5252 250.494 90.7172 249.886 91.1012C249.294 91.4852 248.998 92.0132 248.998 92.6852C248.998 93.0532 249.094 93.4052 249.286 93.7412C249.494 94.0772 249.782 94.3492 250.15 94.5572C250.534 94.7652 251.006 94.8692 251.566 94.8692C252.142 94.8692 252.694 94.7572 253.222 94.5332C253.75 94.3092 254.174 94.0212 254.494 93.6692ZM260.961 96.5732V84.0212H263.697L268.017 91.7732L272.361 84.0212H275.049V96.5732H272.529V87.7412L268.833 94.3412H267.177L263.457 87.7412V96.5732H260.961ZM279.892 101.901C279.604 101.901 279.3 101.861 278.98 101.781C278.66 101.701 278.324 101.581 277.972 101.421L278.644 99.4532C278.836 99.5492 279.02 99.6212 279.196 99.6692C279.372 99.7172 279.532 99.7412 279.676 99.7412C280.076 99.7412 280.436 99.5732 280.756 99.2372C281.092 98.9172 281.388 98.4292 281.644 97.7732L282.124 96.4772L276.82 84.0212H279.58L283.42 93.8852L286.828 84.0212H289.372L283.852 98.4932C283.58 99.2452 283.236 99.8692 282.82 100.365C282.42 100.861 281.972 101.237 281.476 101.493C280.98 101.765 280.452 101.901 279.892 101.901Z" fill="black"/>
</svg>
