<svg width="22" height="18" viewBox="0 0 22 18" fill="none" xmlns="http://www.w3.org/2000/svg">
<path fill-rule="evenodd" clip-rule="evenodd" d="M19.7582 0.534525C19.6021 0.585256 17.8511 1.24832 15.8671 2.00801C13.8831 2.7677 9.73435 4.35484 6.64766 5.535C3.56096 6.71517 0.963531 7.72884 0.875617 7.7876C0.380036 8.11882 0.318266 8.59087 0.734973 8.86287C0.830019 8.92492 1.82001 9.25757 3.27149 9.71515C5.21328 10.3273 5.66715 10.4577 5.73367 10.4226C5.77853 10.399 8.41435 8.78692 11.591 6.8403C15.7148 4.31338 17.4276 3.28432 17.5793 3.24255C17.7443 3.19721 17.8147 3.19433 17.8935 3.22975C18.0236 3.2882 18.0217 3.3596 17.8857 3.51899C17.8256 3.58947 15.5731 5.62491 12.8801 8.04218C10.1871 10.4595 7.98358 12.4496 7.98346 12.4645C7.98334 12.4796 7.91966 13.2474 7.84196 14.1709C7.665 16.2741 7.66541 16.1881 7.83106 16.3742C8.04843 16.6184 8.32725 16.6894 8.61032 16.5728C8.68701 16.5412 9.3101 15.9893 10.0175 15.3266C10.7157 14.6723 11.3429 14.0859 11.4112 14.0234L11.5355 13.9097L13.8688 15.6425C15.1522 16.5956 16.3092 17.426 16.44 17.488C16.7789 17.6486 17.2184 17.6713 17.4479 17.54C17.6478 17.4256 17.8396 17.1507 17.95 16.8201C18.076 16.443 21.1557 1.944 21.1833 1.59804C21.2274 1.04587 21.0764 0.664571 20.7472 0.496627C20.5713 0.406918 20.0944 0.425187 19.7582 0.534525Z" fill="black"/>
</svg>
