<svg width="31" height="18" viewBox="0 0 31 18" fill="none" xmlns="http://www.w3.org/2000/svg">
<path fill-rule="evenodd" clip-rule="evenodd" d="M0.326644 0.624986C0.0754492 0.792915 0.0530595 0.882423 0.0904155 1.56808C0.113164 1.98476 0.160099 2.35137 0.194821 2.38281C0.229543 2.41424 0.357535 2.74862 0.479181 3.12585C1.15075 5.20833 2.62559 7.95406 4.59324 10.785C6.57395 13.6345 8.7358 15.5623 11.14 16.6229C11.6291 16.8386 12.0898 17.0151 12.1638 17.0151C12.2379 17.0151 12.2601 17.0746 12.2131 17.1472C12.1631 17.2243 12.18 17.2482 12.2536 17.2048C12.4275 17.1021 13.1336 17.2484 13.0545 17.3706C13.0192 17.4252 13.0739 17.4391 13.1761 17.4017C13.2784 17.3642 13.4562 17.3725 13.5715 17.42C13.6868 17.4675 13.9083 17.4943 14.0638 17.4795C14.2195 17.4647 14.3188 17.4957 14.2848 17.5483C14.1978 17.6827 16.4486 17.6282 16.9405 17.4839C17.7648 17.2423 17.7916 17.172 17.7949 15.2541C17.7979 13.4602 17.903 12.705 18.1725 12.5419C18.4173 12.3936 19.0361 12.4251 19.4978 12.6093C20.3687 12.9567 21.771 14.1259 23.5954 16.0261C25.0989 17.5918 25.0854 17.5867 27.7341 17.5867H29.9032L30.2569 17.249C30.5435 16.9752 30.5953 16.8509 30.53 16.5917C30.4217 16.1618 30.042 15.4401 29.6848 14.9853C29.5241 14.7806 29.4309 14.554 29.4776 14.4819C29.528 14.4041 29.51 14.3816 29.4335 14.4267C29.2817 14.5163 28.7739 13.8843 28.9006 13.7633C28.948 13.718 28.9275 13.698 28.8551 13.7191C28.7827 13.74 28.4867 13.4999 28.1974 13.1856C27.908 12.8712 27.1271 12.0739 26.4619 11.4137C25.1358 10.0975 24.9838 9.88896 25.0531 9.48108C25.0788 9.32973 25.7662 8.24945 26.5806 7.08047C29.5568 2.80829 30.3595 1.08465 29.5953 0.606582C29.351 0.453742 28.9482 0.430994 27.0241 0.461059C24.9294 0.493638 24.723 0.515358 24.5046 0.72524C24.3737 0.850987 23.8383 1.77694 23.3148 2.78291C21.0038 7.2245 18.4741 9.8182 17.9237 8.31084C17.839 8.07889 17.792 6.70025 17.792 4.44882C17.792 1.46497 17.7644 0.910088 17.6056 0.693575C17.4212 0.442197 17.3866 0.439453 14.3315 0.439453C11.4924 0.439453 11.228 0.456257 11.0458 0.648535C10.7488 0.961758 10.8053 1.36723 11.2112 1.83741C11.4112 2.06901 11.6941 2.50512 11.8398 2.80657C12.0878 3.31916 12.1072 3.5431 12.142 6.28403C12.1624 7.89519 12.1324 9.3854 12.0754 9.59551C11.9527 10.0477 11.5508 10.1977 11.0709 9.97046C9.93263 9.43124 7.51683 5.62318 6.29366 2.43996C5.96835 1.59346 5.64256 0.947812 5.44273 0.753819L5.11898 0.439453H2.86146C0.972591 0.439453 0.558802 0.469747 0.326644 0.624986Z" fill="black"/>
</svg>
